<?xml version="1.0" encoding="UTF-8" standalone="no"?>
<svg width="178px" height="202px" viewBox="0 0 178 202" version="1.1" xmlns="http://www.w3.org/2000/svg" xmlns:xlink="http://www.w3.org/1999/xlink">
    <!-- Generator: Sketch 3.8.2 (29753) - http://www.bohemiancoding.com/sketch -->
    <title>Group</title>
    <desc>Created with Sketch.</desc>
    <defs></defs>
    <g id="Page-1" stroke="none" stroke-width="1" fill="none" fill-rule="evenodd">
        <g id="Desktop-Copy" transform="translate(-402.000000, -1143.000000)">
            <g id="Group" transform="translate(402.000000, 1143.000000)">
                <g transform="translate(36.607143, 39.880598)">
                    <g transform="translate(39.744898, 104.072304)" id="Shape">
                        <g>
                            <path d="M22.7193878,0.371686802 C15.4566327,-0.929217004 8.75255102,3.71686802 1.8622449,42.186452 C-2.60714286,67.2753111 3.91071429,54.266273 10.2423469,49.9918748 C10.8010204,52.2219956 11.7321429,54.0804296 13.0357143,54.266273 C14.5255102,54.4521165 16.2015306,52.7795258 17.6913265,50.549405 C22.5331633,54.266273 25.3265306,61.3283223 27.747449,46.832537 C34.0790816,12.0798211 29.9821429,1.67259061 22.7193878,0.371686802 L22.7193878,0.371686802 Z" fill="#285173"></path>
                            <g opacity="0.25" fill="#F3F3F4">
                                <path d="M11.1734694,50.9210918 C10.9872449,50.9210918 10.9872449,51.1069352 10.8010204,51.1069352 C11.1734694,52.0361522 11.5459184,52.7795258 12.1045918,53.337056 C11.7321429,52.7795258 11.3596939,51.8503088 11.1734694,50.9210918 L11.1734694,50.9210918 Z"></path>
                                <path d="M2.60714286,43.3015124 C9.31122449,4.83192842 16.2015306,0.185843401 23.4642857,1.48674721 C25.1403061,1.85843401 26.8163265,2.60180761 27.9336735,4.27439822 C26.4438776,2.04427741 24.7678571,0.743373603 22.5331633,0.371686802 C15.2704082,-0.929217004 8.56632653,3.71686802 1.67602041,42.186452 C-0.18622449,53.1512126 -0.18622449,56.8680807 1.11734694,57.0539241 C0.931122449,55.3813335 1.30357143,51.2927786 2.60714286,43.3015124 L2.60714286,43.3015124 Z"></path>
                            </g>
                            <g opacity="0.25" transform="translate(0.000000, 1.858434)" fill="#000000">
                                <path d="M27.002551,0.929217004 C30.1683673,6.69036243 30.9132653,19.1418703 26.630102,42.9298256 C24.0229592,57.4256109 21.4158163,50.3635616 16.5739796,46.6466936 C15.0841837,48.8768144 13.4081633,50.549405 11.9183673,50.3635616 C11.5459184,50.3635616 11.3596939,50.1777182 11.1734694,49.9918748 C11.7321429,51.2927786 12.4770408,52.2219956 13.4081633,52.407839 C14.8979592,52.5936824 16.5739796,50.9210918 18.0637755,48.690971 C22.9056122,52.407839 25.6989796,59.4698883 28.119898,44.974103 C32.7755102,17.8409665 31.2857143,5.57530203 27.002551,0.929217004 L27.002551,0.929217004 Z"></path>
                                <path d="M8.93877551,46.0891634 C5.58673469,48.3192842 2.23469388,52.9653692 0.558673469,53.337056 C0.931122449,58.9123581 5.4005102,51.8503088 9.86989796,48.5051276 C9.49744898,47.761754 9.31122449,47.0183804 8.93877551,46.0891634 L8.93877551,46.0891634 Z"></path>
                            </g>
                            <path d="M27.9336735,15.2391589 C26.8163265,21.1861477 22.7193878,25.2747025 18.4362245,24.5313289 C14.1530612,23.7879553 11.7321429,18.3984967 12.6632653,12.6373513 C13.7806122,6.69036243 17.877551,2.60180761 22.1607143,3.34518122 C26.4438776,4.08855482 29.0510204,9.47801344 27.9336735,15.2391589 L27.9336735,15.2391589 Z" fill="#000000" opacity="0.5"></path>
                            <path d="M10.4285714,49.9918748 C10.4285714,49.9918748 10.4285714,38.6554274 13.7806122,31.4075347 C13.5943878,31.4075347 12.6632653,45.7174766 10.4285714,49.9918748 L10.4285714,49.9918748 Z" fill="#000000" opacity="0.25"></path>
                            <path d="M17.877551,50.549405 C17.877551,50.549405 18.25,36.0536198 21.2295918,31.2216913 C21.2295918,31.2216913 19.1811224,46.6466936 17.877551,50.549405 L17.877551,50.549405 Z" fill="#000000" opacity="0.25"></path>
                        </g>
                        <path d="M11.1734694,52.0361522 C11.7321429,53.1512126 12.4770408,53.8945862 13.2219388,54.0804296 C14.7117347,54.266273 16.3877551,52.5936824 17.877551,50.3635616 C22.7193878,54.0804296 25.5127551,61.1424789 27.9336735,46.6466936 C30.5408163,31.9650649 31.2857143,21.5578345 30.7270408,14.4957853 C29.9821429,14.8674721 29.0510204,15.2391589 28.119898,15.7966891 C8.93877551,25.8322327 8.56632653,41.6289218 11.1734694,52.0361522 L11.1734694,52.0361522 Z" fill="#000000" opacity="0.25"></path>
                    </g>
                    <g transform="translate(74.270893, 100.355436)" id="Shape">
                        <g>
                            <path d="M4.76737259,0.929217004 C10.1678828,-0.929217004 16.1270665,2.04427741 25.6245154,31.2216913 C31.7699236,50.1777182 25.438291,40.8855482 19.8515563,38.0978972 C19.6653318,39.9563312 19.1066583,41.4430784 18.1755359,41.6289218 C17.0581889,42.0006086 15.568393,40.8855482 14.2648216,39.2129576 C10.9127808,42.7439822 9.60920933,48.3192842 5.88471953,37.3545236 C-2.681607,11.3364475 -0.633137613,2.60180761 4.76737259,0.929217004 L4.76737259,0.929217004 Z" fill="#285173"></path>
                            <g opacity="0.25" transform="translate(0.856658, 0.000000)" fill="#F3F3F4">
                                <path d="M18.3537891,39.0271142 C18.4987959,39.0271142 18.4987959,39.2129576 18.6438027,39.2129576 C18.4987959,39.9563312 18.3537891,40.6997048 18.0637755,41.0713916 C18.2087823,40.5138614 18.3537891,39.7704878 18.3537891,39.0271142 L18.3537891,39.0271142 Z"></path>
                                <path d="M24.2091837,32.1509083 C14.7117347,2.97349441 8.93877551,0.185843401 3.35204082,1.85843401 C2.04846939,2.23012081 0.931122449,3.15933781 0.18622449,4.46024162 C0.931122449,2.60180761 2.23469388,1.48674721 3.91071429,0.929217004 C9.31122449,-0.929217004 15.2704082,2.04427741 24.7678571,31.2216913 C27.5612245,39.398801 27.747449,42.3722954 26.8163265,42.7439822 C27.002551,41.257235 26.2576531,38.0978972 24.2091837,32.1509083 L24.2091837,32.1509083 Z"></path>
                            </g>
                            <g opacity="0.25" transform="translate(0.000000, 3.078731)" fill="#000000">
                                <path d="M1.78778075,0.0806067763 C-0.0744641432,4.9125352 0.856658306,14.7622354 6.81584198,32.7890453 C10.3541073,43.753806 11.8439032,37.9926606 15.195944,34.6474793 C16.6857399,36.3200699 18.1755359,37.4351303 19.1066583,37.0634435 C19.2928828,37.0634435 19.4791073,36.8776001 19.6653318,36.6917567 C19.2928828,37.8068171 18.9204338,38.5501908 18.1755359,38.7360342 C17.0581889,39.107721 15.568393,37.9926606 14.2648216,36.3200699 C10.9127808,39.8510946 9.60920933,45.4263966 5.88471953,34.4616359 C-0.819362102,14.0188618 -1.00558659,4.1691616 1.78778075,0.0806067763 L1.78778075,0.0806067763 Z"></path>
                                <path d="M20.7826787,33.3465755 C23.5760461,34.6474793 26.7418624,37.9926606 28.2316583,37.9926606 C28.4178828,42.2670588 24.320944,37.4351303 20.4102297,35.2050095 C20.4102297,34.6474793 20.5964542,33.9041057 20.7826787,33.3465755 L20.7826787,33.3465755 Z"></path>
                            </g>
                            <path d="M2.34645422,13.0090381 C3.83625014,17.4692797 7.56073994,20.2569307 10.7265563,19.1418703 C13.8923726,18.0268099 15.3821685,13.5665683 13.8923726,9.29217004 C12.4025767,4.83192842 8.67808688,2.04427741 5.51227055,3.15933781 C2.34645422,4.08855482 0.856658306,8.54879644 2.34645422,13.0090381 L2.34645422,13.0090381 Z" fill="#000000" opacity="0.5"></path>
                            <path d="M19.8515563,38.0978972 C19.8515563,38.0978972 18.5479848,29.3632573 15.195944,23.9737987 C15.195944,23.9737987 17.6168624,35.1244028 19.8515563,38.0978972 L19.8515563,38.0978972 Z" fill="#000000" opacity="0.25"></path>
                            <path d="M14.0785971,39.398801 C14.0785971,39.398801 12.2163522,28.0623535 9.23676035,24.7171723 C9.42298484,24.7171723 12.7750257,36.61115 14.0785971,39.398801 L14.0785971,39.398801 Z" fill="#000000" opacity="0.25"></path>
                        </g>
                        <path d="M25.6245154,31.2216913 C20.9689032,16.7259061 17.0581889,8.73463984 13.8923726,4.64608502 C12.5888012,3.90271142 11.6576787,3.71686802 11.6576787,3.71686802 L1.78778075,23.0445817 C2.16022973,24.9030157 2.7189032,26.7614497 3.27757667,28.8057271 C7.56073994,29.7349441 14.2648216,31.9650649 19.8515563,38.6554274 C19.8515563,38.469584 19.8515563,38.2837406 20.0377808,37.9120538 C25.438291,40.6997048 31.7699236,50.1777182 25.6245154,31.2216913 L25.6245154,31.2216913 Z" fill="#000000" opacity="0.25"></path>
                    </g>
                    <g>
                        <g transform="translate(4.362245, 68.762058)" id="Shape">
                            <path d="M21.6020408,71.7355527 C23.2780612,71.7355527 24.9540816,71.5497093 26.630102,70.8063357 C34.6377551,68.0186847 38.7346939,59.2840449 35.9413265,51.478622 C33.1479592,43.6731992 31.6581633,37.540367 31.0994898,33.6376556 C37.8035714,31.4075347 45.4387755,30.4783177 48.4183673,30.2924743 L48.4183673,30.2924743 L68.3443878,0.743373603 C66.1096939,0.929217004 24.2091837,1.30090381 9.125,10.221387 L7.44897959,11.3364475 L5.95918367,12.8231947 C2.42091837,16.5400627 0.37244898,21.5578345 0.18622449,27.6906667 C1.28841382e-13,31.0358479 0.37244898,34.752716 1.11734694,39.0271142 C2.60714286,47.761754 5.58673469,56.8680807 7.2627551,61.5141657 C9.31122449,67.8328413 15.2704082,71.7355527 21.6020408,71.7355527 L21.6020408,71.7355527 Z" fill="#263337"></path>
                            <g opacity="0.25" transform="translate(0.000000, 11.150604)" fill="#000000">
                                <path d="M0.18622449,16.7259061 C0.37244898,10.4072304 2.42091837,5.38945862 5.95918367,1.85843401 L7.44897959,0.371686802 L8.00765306,0 C5.21428571,3.53102462 3.7244898,7.99126624 3.53826531,13.5665683 C3.35204082,16.9117495 3.7244898,20.6286175 4.46938776,24.9030157 C5.95918367,33.6376556 8.93877551,42.7439822 10.6147959,47.3900672 C12.8494898,53.7087428 18.622449,57.6114543 24.9540816,57.6114543 C26.630102,57.6114543 28.3061224,57.2397675 29.9821429,56.6822373 C31.4719388,56.1247071 32.7755102,55.3813335 33.8928571,54.6379599 C32.2168367,57.0539241 29.6096939,58.9123581 26.630102,60.0274185 C24.9540816,60.5849487 23.2780612,60.9566355 21.6020408,60.9566355 C15.2704082,60.9566355 9.49744898,57.0539241 7.2627551,50.7352484 C5.58673469,46.0891634 2.60714286,36.9828368 1.11734694,28.2481969 C0.37244898,23.6021119 -1.66089364e-13,19.8852439 0.18622449,16.7259061 L0.18622449,16.7259061 Z"></path>
                            </g>
                            <path d="M18.8086735,20.2569307 C18.8086735,20.2569307 27.375,25.0888591 31.2857143,33.823499 L31.0994898,33.823499 C31.0994898,34.1951858 31.2857143,34.3810292 31.2857143,34.752716 C29.4234694,32.3367517 25.1403061,27.5048233 20.2984694,26.0180761 C13.7806122,24.1596421 23.2780612,25.4605459 18.8086735,20.2569307 L18.8086735,20.2569307 Z" fill="#000000" opacity="0.25"></path>
                            <path d="M14.1530612,7.99126624 C31.8443878,1.30090381 66.2959184,0.929217004 68.3443878,0.929217004 L48.4183673,30.4783177 L48.4183673,30.4783177 C47.1147959,30.4783177 45.252551,30.6641611 42.8316327,31.0358479 C30.5408163,27.5048233 20.1122449,19.1418703 14.1530612,7.99126624 L14.1530612,7.99126624 Z" fill="#000000" opacity="0.25"></path>
                            <path d="M20.8571429,54.4521165 C26.2576531,51.8503088 32.2168367,52.2219956 35.3826531,54.8238033 C36.3137755,61.3283223 32.7755102,67.6469979 26.2576531,69.8771187 C24.7678571,70.4346489 23.2780612,70.6204923 21.7882653,70.6204923 C18.0637755,70.6204923 14.7117347,69.1337451 12.1045918,66.5319375 C11.5459184,62.4433827 15.0841837,57.2397675 20.8571429,54.4521165 L20.8571429,54.4521165 Z" fill="#000000" opacity="0.25"></path>
                        </g>
                        <path d="M33.0408163,92.9217004 C23.7295918,94.594291 18.1428571,92.5500136 16.2806122,90.1340494 C15.1632653,88.8331456 14.9770408,87.160555 15.7219388,85.4879644 C16.6530612,83.443687 18.5153061,81.3994096 21.3086735,79.726819 C24.6607143,77.6825416 29.3163265,76.1957944 34.5306122,75.6382641 C34.1581633,74.7090471 33.7857143,73.9656735 33.4132653,73.0364565 C25.4056122,74.3373603 17.9566327,76.3816378 13.3010204,79.1692888 L11.625,80.2843492 L10.1352041,81.7710964 C8.27295918,83.6295304 6.96938776,85.8596512 6.03826531,88.2756154 C6.2244898,91.0632664 7.15561224,93.8509174 9.01785714,96.0810382 C12.5561224,100.54128 18.7015306,102.771401 26.5229592,102.771401 C28.9438776,102.771401 31.7372449,102.585557 34.5306122,102.028027 C40.1173469,101.09881 46.6352041,99.7979063 52.9668367,98.6828459 L60.2295918,88.089772 C51.6632653,89.5765192 41.2346939,91.6207966 33.0408163,92.9217004 L33.0408163,92.9217004 Z" id="Shape" fill="#000000" opacity="0.25"></path>
                        <g transform="translate(72.627551, 68.762058)" id="Shape">
                            <path d="M47.1938776,71.7355527 C45.5178571,71.7355527 43.8418367,71.5497093 42.1658163,70.8063357 C34.1581633,68.0186847 30.0612245,59.2840449 32.8545918,51.478622 C35.6479592,43.6731992 37.1377551,37.540367 37.6964286,33.6376556 C30.9923469,31.4075347 23.3571429,30.4783177 20.377551,30.2924743 L20.377551,30.2924743 L0.451530612,0.743373603 C2.68622449,0.929217004 44.5867347,1.30090381 59.6709184,10.221387 L61.3469388,11.3364475 L62.8367347,12.8231947 C66.375,16.5400627 68.4234694,21.5578345 68.6096939,27.6906667 C68.7959184,31.0358479 68.4234694,34.752716 67.6785714,39.0271142 C66.1887755,47.761754 63.2091837,56.8680807 61.5331633,61.5141657 C59.2984694,67.8328413 53.5255102,71.7355527 47.1938776,71.7355527 L47.1938776,71.7355527 Z" fill="#263337"></path>
                            <g opacity="0.25" transform="translate(34.158163, 11.150604)" fill="#000000">
                                <path d="M34.4515306,16.7259061 C34.2653061,10.4072304 32.2168367,5.38945862 28.6785714,1.85843401 L27.1887755,0.371686802 L26.630102,0 C29.4234694,3.53102462 30.9132653,7.99126624 31.0994898,13.5665683 C31.2857143,16.9117495 30.9132653,20.6286175 30.1683673,24.9030157 C28.6785714,33.6376556 25.6989796,42.7439822 24.0229592,47.3900672 C21.7882653,53.7087428 16.0153061,57.6114543 9.68367347,57.6114543 C8.00765306,57.6114543 6.33163265,57.2397675 4.65561224,56.6822373 C3.16581633,56.1247071 1.8622449,55.3813335 0.744897959,54.6379599 C2.42091837,57.0539241 5.02806122,58.9123581 8.00765306,60.0274185 C9.68367347,60.5849487 11.3596939,60.9566355 13.0357143,60.9566355 C19.3673469,60.9566355 25.1403061,57.0539241 27.375,50.7352484 C29.0510204,46.0891634 32.0306122,36.9828368 33.5204082,28.2481969 C34.2653061,23.6021119 34.4515306,19.8852439 34.4515306,16.7259061 L34.4515306,16.7259061 Z"></path>
                            </g>
                            <path d="M49.9872449,20.2569307 C49.9872449,20.2569307 41.4209184,25.0888591 37.5102041,33.823499 L37.6964286,33.823499 C37.6964286,34.1951858 37.5102041,34.3810292 37.5102041,34.752716 C39.372449,32.3367517 43.6556122,27.5048233 48.497449,26.0180761 C54.8290816,24.1596421 45.5178571,25.4605459 49.9872449,20.2569307 L49.9872449,20.2569307 Z" fill="#000000" opacity="0.25"></path>
                            <path d="M54.6428571,7.99126624 C36.9515306,1.30090381 2.5,0.929217004 0.451530612,0.929217004 L20.377551,30.4783177 L20.377551,30.4783177 C21.6811224,30.4783177 23.5433673,30.6641611 25.9642857,31.0358479 C38.255102,27.5048233 48.497449,19.1418703 54.6428571,7.99126624 L54.6428571,7.99126624 Z" fill="#000000" opacity="0.25"></path>
                            <path d="M47.9387755,54.4521165 C42.5382653,51.8503088 36.5790816,52.2219956 33.4132653,54.8238033 C32.4821429,61.3283223 36.0204082,67.6469979 42.5382653,69.8771187 C44.0280612,70.4346489 45.5178571,70.6204923 47.0076531,70.6204923 C50.7321429,70.6204923 54.0841837,69.1337451 56.6913265,66.5319375 C57.25,62.4433827 53.7117347,57.2397675 47.9387755,54.4521165 L47.9387755,54.4521165 Z" fill="#000000" opacity="0.25"></path>
                        </g>
                        <path d="M109.206633,95.3376646 C109.206633,115.222909 84.4387755,141.426828 73.0790816,141.426828 C61.7193878,141.426828 36.9515306,115.037065 36.9515306,95.3376646 C36.9515306,75.4524207 53.1530612,69.6912753 73.0790816,69.6912753 C93.005102,69.6912753 109.206633,75.4524207 109.206633,95.3376646 L109.206633,95.3376646 Z" id="Shape" fill="#263337"></path>
                        <path d="M63.5816327,137.70996 C67.119898,140.125924 70.4719388,141.426828 73.0790816,141.426828 C75.6862245,141.426828 79.0382653,139.940081 82.5765306,137.70996 L88.3494898,71.5497093 C83.6938776,70.4346489 78.4795918,69.8771187 73.0790816,69.8771187 C67.6785714,69.8771187 62.4642857,70.4346489 57.8086735,71.5497093 L63.5816327,137.70996 L63.5816327,137.70996 Z" id="Shape" fill="#F3F3F4"></path>
                        <path d="M97.8469388,74.5232037 C99.5229592,77.868385 100.454082,81.7710964 100.454082,86.4171814 C100.454082,106.302425 75.6862245,132.506345 64.3265306,132.506345 C60.7882653,132.506345 55.9464286,129.904537 50.9183673,125.815982 C58.5535714,134.736466 67.4923469,141.240985 73.0790816,141.240985 C84.4387755,141.240985 109.206633,114.851222 109.206633,95.1518212 C109.206633,84.9304342 104.923469,78.4259152 97.8469388,74.5232037 L97.8469388,74.5232037 Z" id="Shape" fill="#000000" opacity="0.25"></path>
                        <path d="M39.9311224,82.51447 C48.6836735,95.1518212 63.3954082,103.514774 79.9693878,103.514774 C90.9566327,103.514774 101.012755,99.7979063 109.206633,93.8509174 C108.461735,75.2665773 92.4464286,69.8771187 73.0790816,69.8771187 C58.3673469,69.6912753 45.7040816,72.8506131 39.9311224,82.51447 L39.9311224,82.51447 Z" id="Shape" fill="#000000" opacity="0.25"></path>
                        <g>
                            <path d="M121.125,48.5051276 C121.125,74.8948905 99.5229592,96.2668816 72.8928571,96.2668816 C46.2627551,96.2668816 24.6607143,74.8948905 24.6607143,48.5051276 C24.6607143,22.1153647 46.2627551,0.743373603 72.8928571,0.743373603 C99.5229592,0.557530203 121.125,22.1153647 121.125,48.5051276 L121.125,48.5051276 Z" id="Shape" fill="#263337"></path>
                            <path d="M103.619898,11.5222909 C110.32398,19.6994005 114.420918,30.2924743 114.420918,41.6289218 C114.420918,68.0186847 92.8188776,89.3906758 66.1887755,89.3906758 C54.4566327,89.3906758 43.8418367,85.302121 35.4617347,78.4259152 C44.4005102,89.2048324 57.8086735,96.0810382 72.8928571,96.0810382 C99.5229592,96.0810382 121.125,74.7090471 121.125,48.3192842 C121.125,33.6376556 114.234694,20.4427741 103.619898,11.5222909 L103.619898,11.5222909 Z" id="Shape" fill="#000000" opacity="0.25"></path>
                            <path d="M25.0331633,42.186452 C24.8469388,43.6731992 24.6607143,45.1599464 24.6607143,46.6466936 C25.4056122,84.372904 48.3112245,69.1337451 76.244898,69.1337451 C91.8877551,69.1337451 106.040816,73.5939867 115.538265,71.1780225 C119.262755,64.4876601 121.311224,56.6822373 121.311224,48.5051276 L121.311224,47.0183804 C120.566327,78.6117586 100.640306,61.3283223 76.244898,61.3283223 C51.4770408,61.3283223 31.1785714,80.2843492 31.1785714,44.974103 C31.1785714,35.8677764 51.2908163,28.6198837 76.244898,28.6198837 C99.1505102,28.6198837 118.145408,34.9385594 120.938776,42.9298256 C120.566327,39.7704878 119.821429,36.61115 118.890306,33.6376556 C109.579082,28.4340403 93.9362245,24.7171723 76.244898,24.7171723 C49.8010204,24.7171723 28.1989796,32.7084386 25.0331633,42.186452 L25.0331633,42.186452 Z" id="Shape" fill="#000000" opacity="0.25"></path>
                            <path d="M78.1071429,71.7355527 C70.4719388,71.7355527 64.1403061,76.7533246 64.1403061,83.0720002 C64.1403061,86.9747116 66.5612245,92.5500136 70.2857143,96.2668816 L72.7066327,96.2668816 C77.9209184,96.2668816 82.9489796,95.523508 87.6045918,94.0367608 C90.2117347,90.5057362 91.8877551,86.231338 91.8877551,83.0720002 C91.8877551,76.7533246 85.7423469,71.7355527 78.1071429,71.7355527 L78.1071429,71.7355527 Z" id="Shape" fill="#000000" opacity="0.25"></path>
                            <path d="M72.8928571,0.557530203 C67.6785714,0.557530203 62.6505102,1.30090381 57.8086735,2.97349441 L57.8086735,29.3632573 C57.8086735,29.3632573 58.9260204,31.7792215 73.0790816,31.7792215 C87.2321429,31.7792215 88.3494898,29.3632573 88.3494898,29.3632573 L88.3494898,3.15933781 C83.5076531,1.30090381 78.2933673,0.557530203 72.8928571,0.557530203 L72.8928571,0.557530203 Z" id="Shape" fill="#F3F3F4"></path>
                            <path d="M27.0816327,85.1162776 C17.7704082,86.7888682 12.1836735,84.7445908 10.3214286,82.3286266 C9.20408163,81.0277228 9.01785714,79.3551322 9.7627551,77.6825416 C10.6938776,75.6382641 12.5561224,73.5939867 15.3494898,71.9213961 C18.7015306,69.8771187 23.3571429,68.3903715 28.5714286,67.8328413 C27.2678571,65.0451903 26.3367347,62.0716959 25.5918367,59.0982015 C13.3010204,61.1424789 4.3622449,66.7177809 1.19642857,74.3373603 C-0.852040816,79.1692888 -0.107142857,84.1870606 3.05867347,88.2756154 C6.59693878,92.735857 12.7423469,94.9659778 20.5637755,94.9659778 C22.9846939,94.9659778 25.7780612,94.7801344 28.5714286,94.2226042 C45.8903061,91.0632664 73.6377551,85.6738078 74.0102041,85.4879644 L72.1479592,76.5674812 C71.9617347,76.5674812 44.2142857,81.9569398 27.0816327,85.1162776 L27.0816327,85.1162776 Z" id="Shape" fill="#CCCCCD"></path>
                            <g opacity="0.5" transform="translate(0.000000, 58.831751)" id="Shape" fill="#F3F3F4">
                                <path d="M22.2397959,26.8420565 C24.4744898,27.0278999 27.0816327,26.8420565 30.247449,26.2845263 C44.2142857,23.8685621 64.8852041,19.7800073 72.5204082,18.2932601 L72.3341837,17.7357299 C72.1479592,17.7357299 44.4005102,23.3110319 27.2678571,26.2845263 C25.2193878,26.4703697 23.7295918,26.6562131 22.2397959,26.8420565 L22.2397959,26.8420565 Z"></path>
                                <path d="M6.2244898,29.2580207 C3.05867347,25.3553093 2.31377551,20.3375375 4.3622449,15.3197656 C7.34183673,8.25771641 15.1632653,2.86825779 25.7780612,0.638136979 C25.7780612,0.452293578 25.5918367,0.266450177 25.5918367,0.0806067763 C13.3010204,2.12488419 4.3622449,7.70018621 1.19642857,15.3197656 C-0.852040816,20.1516941 -0.107142857,25.1694659 3.05867347,29.2580207 C6.59693878,33.7182623 12.7423469,35.9483831 20.5637755,35.9483831 L22.0535714,35.9483831 C15.1632653,35.5766963 9.57653061,33.3465755 6.2244898,29.2580207 L6.2244898,29.2580207 Z"></path>
                            </g>
                            <g opacity="0.25" transform="translate(2.500000, 64.407053)" id="Shape" fill="#000000">
                                <path d="M7.2627551,17.1781997 C6.70408163,16.0631392 6.51785714,14.576392 7.2627551,13.0896448 C8.19387755,11.0453674 10.0561224,9.00109002 12.8494898,7.32849941 C16.2015306,5.284222 20.8571429,3.79747479 26.0714286,3.23994459 C25.6989796,2.31072759 25.3265306,1.38151058 24.9540816,0.266450177 C19.3673469,1.75319738 13.0357143,3.98331819 10.8010204,5.284222 C8.00765306,6.95681261 5.95918367,9.00109002 5.21428571,11.0453674 C4.46938776,12.9038014 4.65561224,14.3905486 5.77295918,15.6914524 C6.14540816,16.2489827 6.51785714,16.8065129 7.2627551,17.1781997 L7.2627551,17.1781997 Z"></path>
                                <path d="M69.6479592,11.9745844 C69.6479592,11.9745844 69.0892857,12.1604278 68.1581633,12.3462712 L69.4617347,18.8507903 C69.2755102,18.8507903 41.5280612,24.4260923 24.2091837,27.5854301 C21.4158163,28.1429603 18.8086735,28.3288037 16.2015306,28.3288037 C9.86989796,28.3288037 4.46938776,26.6562131 0.744897959,23.6827187 C4.28316327,27.9571169 10.4285714,30.3730811 18.25,30.3730811 C20.6709184,30.3730811 23.4642857,30.1872377 26.2576531,29.6297075 C43.5765306,26.4703697 71.3239796,21.0809111 71.6964286,20.8950677 L69.6479592,11.9745844 L69.6479592,11.9745844 Z"></path>
                            </g>
                            <path d="M72.8928571,21.3719911 C44.4005102,21.3719911 21.3086735,30.8500045 21.3086735,41.0713916 C21.3086735,81.585253 44.4005102,65.6027205 72.8928571,65.6027205 C101.385204,65.6027205 124.477041,80.4701926 124.477041,41.0713916 C124.477041,30.8500045 101.385204,21.3719911 72.8928571,21.3719911 L72.8928571,21.3719911 Z M72.8928571,57.9831411 C48.125,57.9831411 27.8265306,76.939168 27.8265306,41.6289218 C27.8265306,32.5225951 47.9387755,25.2747025 72.8928571,25.2747025 C97.6607143,25.2747025 117.959184,32.5225951 117.959184,41.6289218 C117.772959,76.0099509 97.6607143,57.9831411 72.8928571,57.9831411 L72.8928571,57.9831411 Z" id="Shape" fill="#FFCB02"></path>
                            <g opacity="0.5" transform="translate(21.122449, 21.447725)" id="Shape" fill="#F3F3F4">
                                <path d="M1.48979592,21.1104142 C1.48979592,10.7031838 24.5816327,1.41101372 53.0739796,1.41101372 C74.4897959,1.41101372 92.9260204,6.80047234 100.747449,13.8625216 C93.8571429,6.24294214 74.4897959,0.11010991 51.7704082,0.11010991 C23.2780612,0.11010991 0.18622449,9.58812335 0.18622449,19.8095104 C0.18622449,33.0043919 2.60714286,40.2522845 6.89030612,43.9691525 C3.35204082,39.8805977 1.48979592,32.8185485 1.48979592,21.1104142 L1.48979592,21.1104142 Z"></path>
                                <path d="M53.0739796,37.8363203 C77.8418367,37.8363203 98.1403061,55.8631302 98.1403061,21.482101 C98.1403061,19.2519802 96.8367347,17.2077028 94.7882653,15.1634254 C96.0918367,16.6501726 96.8367347,18.3227632 96.8367347,20.1811972 C96.8367347,54.5622264 76.7244898,36.5354165 51.7704082,36.5354165 C34.6377551,36.5354165 19.5535714,45.6417431 12.1045918,39.5089109 C18.994898,48.0577073 34.8239796,37.8363203 53.0739796,37.8363203 L53.0739796,37.8363203 Z"></path>
                            </g>
                            <g opacity="0.25" transform="translate(25.852525, 23.306159)" id="Shape" fill="#000000">
                                <path d="M5.69849504,35.9778863 C3.27757667,32.8185485 1.97400524,27.2432464 1.97400524,18.3227632 C1.97400524,9.21643655 22.0862501,1.96854392 47.0403318,1.96854392 C65.4765563,1.96854392 81.3056379,6.05709874 88.3821685,11.8182442 C82.7954338,5.12788173 65.6627808,0.11010991 45.1780869,0.11010991 C20.4102297,0.11010991 0.111760347,7.35800254 0.111760347,16.4643292 C0.111760347,27.6149332 2.16022973,33.3760787 5.69849504,35.9778863 L5.69849504,35.9778863 Z"></path>
                                <path d="M94.3413522,10.1456536 C96.0173726,12.0040876 96.7622706,14.048365 96.7622706,15.906799 C96.7622706,55.4914434 73.6704338,40.4381279 45.1780869,40.4381279 C26.1831889,40.4381279 9.60920933,47.5001771 0.670433816,40.2522845 C9.05053586,50.4736715 26.7418624,42.2965619 47.0403318,42.2965619 C75.5326787,42.2965619 98.6245154,57.164034 98.6245154,17.765233 C98.6245154,15.1634254 96.948495,12.5616178 94.3413522,10.1456536 L94.3413522,10.1456536 Z"></path>
                            </g>
                            <path d="M117.772959,41.6289218 C117.772959,76.0099509 97.6607143,57.9831411 72.7066327,57.9831411 C47.9387755,57.9831411 27.6403061,76.939168 27.6403061,41.6289218 C27.6403061,32.5225951 47.752551,25.2747025 72.7066327,25.2747025 C97.6607143,25.2747025 117.772959,32.5225951 117.772959,41.6289218 L117.772959,41.6289218 Z" id="Shape" fill="#4A99D3"></path>
                            <path d="M30.8061224,44.4165728 C30.8061224,35.3102462 50.9183673,28.0623535 75.872449,28.0623535 C93.75,28.0623535 109.206633,31.9650649 116.469388,37.3545236 C111.441327,30.2924743 93.9362245,25.0888591 72.8928571,25.0888591 C48.125,25.0888591 27.8265306,32.3367517 27.8265306,41.4430784 C27.8265306,53.1512126 30.0612245,58.9123581 33.9719388,61.3283223 C31.9234694,58.3548279 30.8061224,52.9653692 30.8061224,44.4165728 L30.8061224,44.4165728 Z" id="Shape" fill="#000000" opacity="0.25"></path>
                            <path d="M57.8086735,44.044886 C57.8086735,48.5051276 55.3877551,52.2219956 52.4081633,52.2219956 C49.4285714,52.2219956 47.0076531,48.5051276 47.0076531,44.044886 C47.0076531,39.5846444 49.4285714,35.8677764 52.4081633,35.8677764 C55.3877551,36.0536198 57.8086735,39.5846444 57.8086735,44.044886 L57.8086735,44.044886 Z" id="Shape" fill="#000000" opacity="0.25"></path>
                            <ellipse id="Oval" fill="#000000" opacity="0.25" cx="93.75" cy="44.044886" rx="5.4005102" ry="8.17710964"></ellipse>
                            <path d="M64.6989796,58.5406713 C67.3061224,58.1689845 69.9132653,57.9831411 72.7066327,57.9831411 C97.4744898,57.9831411 117.772959,76.0099509 117.772959,41.6289218 C117.772959,37.3545236 113.303571,33.4518122 105.854592,30.4783177 C93.377551,36.0536198 77.3622449,44.974103 64.6989796,58.5406713 L64.6989796,58.5406713 Z" id="Shape" fill="#F3F3F4" opacity="0.25"></path>
                            <path d="M87.0459184,78.0542284 C87.0459184,84.1870606 80.9005102,94.9659778 73.0790816,94.9659778 C65.4438776,94.9659778 59.1122449,84.372904 59.1122449,78.0542284 C59.1122449,71.7355527 65.2576531,66.7177809 73.0790816,66.7177809 C80.7142857,66.9036243 87.0459184,71.9213961 87.0459184,78.0542284 L87.0459184,78.0542284 Z" id="Shape" fill="#CCCCCD"></path>
                            <path d="M82.3903061,69.6912753 C83.5076531,71.3638659 84.252551,73.2222999 84.252551,75.2665773 C84.252551,81.3994096 78.1071429,92.1783268 70.2857143,92.1783268 C68.0510204,92.1783268 65.8163265,91.2491098 63.9540816,89.7623626 C66.375,92.735857 69.5408163,94.9659778 73.0790816,94.9659778 C80.7142857,94.9659778 87.0459184,84.372904 87.0459184,78.0542284 C87.0459184,74.7090471 85.1836735,71.7355527 82.3903061,69.6912753 L82.3903061,69.6912753 Z" id="Shape" fill="#000000" opacity="0.25"></path>
                            <path d="M72.1479592,67.6469979 C72.1479592,67.6469979 72.1479592,67.6469979 71.9617347,67.6469979 C70.4719388,68.0186847 64.6989796,69.1337451 61.7193878,75.4524207 C59.2984694,80.8418794 63.9540816,85.8596512 63.9540816,85.8596512 C63.9540816,85.8596512 60.9744898,75.2665773 72.1479592,67.6469979 L72.1479592,67.6469979 Z" id="Shape" fill="#F3F3F4" opacity="0.5"></path>
                        </g>
                        <g transform="translate(94.974490, 122.656645)">
                            <ellipse id="Oval" fill="#FBCA97" cx="15.9081633" cy="15.9825325" rx="15.8290816" ry="15.7966891"></ellipse>
                            <path d="M1.19642857,18.7701835 C0.823979592,9.84970025 19.4464286,11.7081343 18.5153061,1.48674721 C18.3290816,-6.83342272e-14 21.3086735,1.67259061 22.7984694,2.04427741 C20.75,1.11506041 18.3290816,0.371686802 15.9081633,0.371686802 C7.15561224,0.371686802 0.0790816327,7.43373603 0.0790816327,16.1683759 C0.0790816327,18.5843401 0.637755102,21.0003043 1.75510204,23.0445817 C1.38265306,21.5578345 1.19642857,20.0710873 1.19642857,18.7701835 L1.19642857,18.7701835 Z" id="Shape" fill="#F3F3F4" opacity="0.25"></path>
                            <path d="M25.5918367,3.71686802 C27.6403061,6.31867563 28.9438776,9.84970025 28.9438776,13.3807249 C28.9438776,22.1153647 21.8673469,29.1774139 13.1147959,29.1774139 C9.39030612,29.1774139 6.03826531,27.8765101 3.43112245,25.8322327 C6.2244898,29.5491007 10.880102,31.7792215 15.9081633,31.7792215 C24.6607143,31.7792215 31.7372449,24.7171723 31.7372449,15.9825325 C31.7372449,10.9647607 29.3163265,6.50451903 25.5918367,3.71686802 L25.5918367,3.71686802 Z" id="Shape" fill="#000000" opacity="0.25"></path>
                        </g>
                        <g transform="translate(18.622449, 122.656645)">
                            <ellipse id="Oval" fill="#FBCA97" cx="16.2806122" cy="15.9825325" rx="15.8290816" ry="15.7966891"></ellipse>
                            <path d="M30.9923469,18.7701835 C31.3647959,9.84970025 12.7423469,11.7081343 13.6734694,1.48674721 C13.8596939,-6.83342272e-14 10.880102,1.67259061 9.39030612,2.04427741 C11.4387755,1.11506041 13.8596939,0.371686802 16.2806122,0.371686802 C25.0331633,0.371686802 32.1096939,7.43373603 32.1096939,16.1683759 C32.1096939,18.5843401 31.5510204,21.0003043 30.4336735,23.0445817 C30.8061224,21.5578345 30.8061224,20.0710873 30.9923469,18.7701835 L30.9923469,18.7701835 Z" id="Shape" fill="#F3F3F4" opacity="0.25"></path>
                            <path d="M6.41071429,3.71686802 C4.3622449,6.31867563 3.05867347,9.84970025 3.05867347,13.3807249 C3.05867347,22.1153647 10.1352041,29.1774139 18.8877551,29.1774139 C22.6122449,29.1774139 25.9642857,27.8765101 28.5714286,25.8322327 C25.5918367,29.5491007 21.122449,31.7792215 16.0943878,31.7792215 C7.34183673,31.7792215 0.265306122,24.7171723 0.265306122,15.9825325 C0.451530612,10.9647607 2.87244898,6.50451903 6.41071429,3.71686802 L6.41071429,3.71686802 Z" id="Shape" fill="#000000" opacity="0.25"></path>
                        </g>
                    </g>
                </g>
                <g fill="#F3F3F4" opacity="0.25">
                    <g transform="translate(0.000000, 41.100895)">
                        <path d="M22.9056122,11.4170542 C22.9056122,17.5498865 18.0637755,22.3818149 11.9183673,22.3818149 C5.77295918,22.3818149 0.931122449,17.5498865 0.931122449,11.4170542 C0.931122449,5.284222 5.77295918,0.452293578 11.9183673,0.452293578 C18.0637755,0.452293578 22.9056122,5.284222 22.9056122,11.4170542 L22.9056122,11.4170542 Z" id="Shape"></path>
                        <ellipse id="Oval" cx="9.86989796" cy="8.44355981" rx="5.21428571" ry="5.20361522"></ellipse>
                    </g>
                    <g transform="translate(3.086735, 0.000000)" id="Shape">
                        <path d="M29.875,14.7917386 C29.875,22.7830048 23.3571429,29.4733672 15.1632653,29.4733672 C7.15561224,29.4733672 0.451530612,22.9688482 0.451530612,14.7917386 C0.451530612,6.80047234 6.96938776,0.11010991 15.1632653,0.11010991 C23.3571429,0.11010991 29.875,6.61462894 29.875,14.7917386 L29.875,14.7917386 Z"></path>
                        <path d="M19.2602041,10.7031838 C19.2602041,14.4200518 16.0943878,17.5793896 12.369898,17.5793896 C8.64540816,17.5793896 5.47959184,14.4200518 5.47959184,10.7031838 C5.47959184,6.98631574 8.64540816,3.82697793 12.369898,3.82697793 C16.2806122,3.82697793 19.2602041,6.98631574 19.2602041,10.7031838 L19.2602041,10.7031838 Z"></path>
                    </g>
                    <g transform="translate(31.658163, 44.817763)" id="Shape">
                        <path d="M12.8494898,6.39928241 C12.8494898,9.74446362 10.2423469,12.3462712 6.89030612,12.3462712 C3.53826531,12.3462712 0.931122449,9.74446362 0.931122449,6.39928241 C0.931122449,3.05410119 3.53826531,0.452293578 6.89030612,0.452293578 C10.0561224,0.452293578 12.8494898,3.23994459 12.8494898,6.39928241 L12.8494898,6.39928241 Z"></path>
                        <path d="M8.38010204,4.9125352 C8.38010204,6.39928241 7.07653061,7.70018621 5.58673469,7.70018621 C4.09693878,7.70018621 2.79336735,6.39928241 2.79336735,4.9125352 C2.79336735,3.42578799 4.09693878,2.12488419 5.58673469,2.12488419 C7.2627551,1.93904078 8.38010204,3.23994459 8.38010204,4.9125352 L8.38010204,4.9125352 Z"></path>
                    </g>
                    <g transform="translate(42.831633, 82.624580)" id="Oval">
                        <ellipse cx="3.35204082" cy="3.90271142" rx="3.35204082" ry="3.34518122"></ellipse>
                        <ellipse cx="2.60714286" cy="2.97349441" rx="1.48979592" ry="1.48674721"></ellipse>
                    </g>
                    <g transform="translate(40.331633, 13.862522)">
                        <path d="M6.78316327,4.08855482 C6.78316327,5.94698883 5.29336735,7.43373603 3.43112245,7.43373603 C1.56887755,7.43373603 0.0790816327,5.94698883 0.0790816327,4.08855482 C0.0790816327,2.23012081 1.56887755,0.743373603 3.43112245,0.743373603 C5.29336735,0.929217004 6.78316327,2.41596421 6.78316327,4.08855482 L6.78316327,4.08855482 Z" id="Shape"></path>
                        <ellipse id="Oval" cx="2.87244898" cy="3.34518122" rx="1.48979592" ry="1.48674721"></ellipse>
                    </g>
                    <g transform="translate(40.331633, 59.685235)" id="Shape">
                        <path d="M10.880102,5.4700654 C10.880102,8.25771641 8.64540816,10.6736806 5.66581633,10.6736806 C2.87244898,10.6736806 0.451530612,8.44355981 0.451530612,5.4700654 C0.451530612,2.68241439 2.68622449,0.266450177 5.66581633,0.266450177 C8.64540816,0.266450177 10.880102,2.49657099 10.880102,5.4700654 L10.880102,5.4700654 Z"></path>
                        <path d="M7.15561224,3.98331819 C7.15561224,5.284222 6.03826531,6.39928241 4.73469388,6.39928241 C3.43112245,6.39928241 2.31377551,5.284222 2.31377551,3.98331819 C2.31377551,2.68241439 3.43112245,1.56735398 4.73469388,1.56735398 C6.03826531,1.56735398 7.15561224,2.68241439 7.15561224,3.98331819 L7.15561224,3.98331819 Z"></path>
                    </g>
                    <g transform="translate(27.077015, 73.332410)" id="Shape">
                        <path d="M10.5403318,5.20361522 C10.5403318,7.99126624 8.3056379,10.4072304 5.32604606,10.4072304 C2.53267871,10.4072304 0.111760347,8.17710964 0.111760347,5.20361522 C0.111760347,2.41596421 2.34645422,0 5.32604606,0 C8.3056379,0 10.5403318,2.41596421 10.5403318,5.20361522 L10.5403318,5.20361522 Z"></path>
                        <path d="M6.81584198,3.90271142 C6.81584198,5.20361522 5.69849504,6.31867563 4.39492361,6.31867563 C3.09135218,6.31867563 1.97400524,5.20361522 1.97400524,3.90271142 C1.97400524,2.60180761 3.09135218,1.48674721 4.39492361,1.48674721 C5.69849504,1.30090381 6.81584198,2.41596421 6.81584198,3.90271142 L6.81584198,3.90271142 Z"></path>
                    </g>
                </g>
            </g>
        </g>
    </g>
</svg>