<?xml version="1.0" encoding="UTF-8" standalone="no"?>
<svg width="143px" height="109px" viewBox="0 0 143 109" version="1.1" xmlns="http://www.w3.org/2000/svg" xmlns:xlink="http://www.w3.org/1999/xlink">
    <!-- Generator: Sketch 3.8.2 (29753) - http://www.bohemiancoding.com/sketch -->
    <title>Group</title>
    <desc>Created with Sketch.</desc>
    <defs>
        <path d="M60.2,15 C68.7,17.3 64.7,8.3 64.6,8.2 C57.1,-1.9 32.5,-2.6 17.4,8.6 C2.3,19.7 -3.9,37 3.6,47.1 C4.5,48.3 13,59 14.2,47 C16.3,25.5 39,44.1 44.5,40.1 C49.6,36.4 43.6,10.6 60.2,15 L60.2,15 Z" id="path-1"></path>
        <path d="M60.2,15 C68.7,17.3 64.7,8.3 64.6,8.2 C57.1,-1.9 32.5,-2.6 17.4,8.6 C2.3,19.7 -3.9,37 3.6,47.1 C4.5,48.3 13,59 14.2,47 C16.3,25.5 39,44.1 44.5,40.1 C49.6,36.4 43.6,10.6 60.2,15 L60.2,15 Z" id="path-3"></path>
        <path d="M60.2,15 C68.7,17.3 64.7,8.3 64.6,8.2 C57.1,-1.9 32.5,-2.6 17.4,8.6 C2.3,19.7 -3.9,37 3.6,47.1 C4.5,48.3 13,59 14.2,47 C16.3,25.5 39,44.1 44.5,40.1 C49.6,36.4 43.6,10.6 60.2,15 L60.2,15 Z" id="path-5"></path>
        <path d="M60.2,15 C68.7,17.3 64.7,8.3 64.6,8.2 C57.1,-1.9 32.5,-2.6 17.4,8.6 C2.3,19.7 -3.9,37 3.6,47.1 C4.5,48.3 13,59 14.2,47 C16.3,25.5 39,44.1 44.5,40.1 C49.6,36.4 43.6,10.6 60.2,15 L60.2,15 Z" id="path-7"></path>
        <path d="M60.2,15 C68.7,17.3 64.7,8.3 64.6,8.2 C57.1,-1.9 32.5,-2.6 17.4,8.6 C2.3,19.7 -3.9,37 3.6,47.1 C4.5,48.3 13,59 14.2,47 C16.3,25.5 39,44.1 44.5,40.1 C49.6,36.4 43.6,10.6 60.2,15 L60.2,15 Z" id="path-9"></path>
        <path d="M60.2,15 C68.7,17.3 64.7,8.3 64.6,8.2 C57.1,-1.9 32.5,-2.6 17.4,8.6 C2.3,19.7 -3.9,37 3.6,47.1 C4.5,48.3 13,59 14.2,47 C16.3,25.5 39,44.1 44.5,40.1 C49.6,36.4 43.6,10.6 60.2,15 L60.2,15 Z" id="path-11"></path>
        <path d="M60.2,15 C68.7,17.3 64.7,8.3 64.6,8.2 C57.1,-1.9 32.5,-2.6 17.4,8.6 C2.3,19.7 -3.9,37 3.6,47.1 C4.5,48.3 13,59 14.2,47 C16.3,25.5 39,44.1 44.5,40.1 C49.6,36.4 43.6,10.6 60.2,15 L60.2,15 Z" id="path-13"></path>
        <path d="M60.2,15 C68.7,17.3 64.7,8.3 64.6,8.2 C57.1,-1.9 32.5,-2.6 17.4,8.6 C2.3,19.7 -3.9,37 3.6,47.1 C4.5,48.3 13,59 14.2,47 C16.3,25.5 39,44.1 44.5,40.1 C49.6,36.4 43.6,10.6 60.2,15 L60.2,15 Z" id="path-15"></path>
        <path d="M60.2,15 C68.7,17.3 64.7,8.3 64.6,8.2 C57.1,-1.9 32.5,-2.6 17.4,8.6 C2.3,19.7 -3.9,37 3.6,47.1 C4.5,48.3 13,59 14.2,47 C16.3,25.5 39,44.1 44.5,40.1 C49.6,36.4 43.6,10.6 60.2,15 L60.2,15 Z" id="path-17"></path>
    </defs>
    <g id="Page-1" stroke="none" stroke-width="1" fill="none" fill-rule="evenodd">
        <g id="wally_characters" transform="translate(-138.000000, -82.000000)">
            <g id="Capa_1">
                <g id="Group" transform="translate(138.000000, 82.000000)">
                    <g>
                        <g>
                            <path d="M94.4,82 C94.4,90.4 76.3,97.1 54.1,97.1 C31.8,97.1 13.8,90.3 13.8,82 C13.8,73.7 31.9,66.9 54.1,66.9 C76.4,66.9 94.4,73.7 94.4,82 L94.4,82 Z" id="Shape" fill="#85B7DA"></path>
                            <path d="M92.9,81.1 C92.9,89.1 75.5,95.6 54.1,95.6 C32.7,95.6 15.3,89.1 15.3,81.1 C15.3,73.1 32.7,66.6 54.1,66.6 C75.5,66.5 92.9,73.1 92.9,81.1 L92.9,81.1 Z" id="Shape" fill="#C2DDE9"></path>
                            <g opacity="0.03" transform="translate(3.000000, 10.000000)" id="Shape" fill="#000000">
                                <g opacity="0.5">
                                    <path d="M44.6,80.8 C44.6,70.9 65.9,62.9 92.3,62.9 C111.6,62.9 128.3,67.2 135.8,73.4 L135.8,73.4 L64.6,1.4 C23.1,-4.9 0.1,36.8 0.1,36.8 L45.3,83.6 C44.8,82.8 44.6,81.8 44.6,80.8 L44.6,80.8 Z"></path>
                                </g>
                            </g>
                            <g opacity="0.1" transform="translate(56.000000, 64.000000)" id="Shape" fill="#000000">
                                <path d="M6.5,0.7 C4.5,0.5 2.4,0.4 0.3,0.3 L6.7,11.9 C7.9,12 9.1,12.2 10.2,12.3 C10.2,12.4 4.7,4.9 6.5,0.7 C6.5,0.8 6.5,0.8 6.5,0.7 L6.5,0.7 Z"></path>
                            </g>
                            <path d="M142.7,90.9 C142.7,100.8 121.4,108.8 95,108.8 C68.7,108.8 47.3,100.8 47.3,90.9 C47.3,81 68.6,73 95,73 C121.4,73.1 142.7,81.1 142.7,90.9 L142.7,90.9 Z" id="Shape" fill="#000000" opacity="0.05"></path>
                            <path d="M54.1,64.3 C33.7,64.3 17.2,71 17.2,79.3 C17.2,87.6 33.7,94.3 54.1,94.3 C74.5,94.3 91,87.6 91,79.3 C90.9,71 74.4,64.3 54.1,64.3 L54.1,64.3 Z M54.1,79 C47.9,79 42,78.4 36.9,77.3 C42.1,76.2 47.9,75.6 54.1,75.6 C60.3,75.6 66.2,76.2 71.3,77.3 C66.2,78.4 60.3,79 54.1,79 L54.1,79 Z" id="Shape" fill="#8F111A"></path>
                            <path d="M54.1,64.3 C33.7,64.3 17.2,71 17.2,79.3 C17.2,87.6 33.7,94.3 54.1,94.3 C74.5,94.3 91,87.6 91,79.3 C90.9,71 74.4,64.3 54.1,64.3 L54.1,64.3 Z M54.1,79 C47.9,79 42,78.4 36.9,77.3 C42.1,76.2 47.9,75.6 54.1,75.6 C60.3,75.6 66.2,76.2 71.3,77.3 C66.2,78.4 60.3,79 54.1,79 L54.1,79 Z" id="Shape" fill="#8F111A"></path>
                            <path d="M89.3,83.9 C90.5,82 83.8,76.4 78.9,76.4 C71.4,76.4 71.5,77.2 71.5,77.2 C66.3,78.3 60.5,78.9 54.3,78.9 C48.1,78.9 42.2,78.3 37.1,77.2 C37.1,77.2 36.4,76.4 30.2,76.4 C23.6,76.4 21.8,79.6 19.3,83.9 C24.1,89.9 38,94.2 54.4,94.2 C70.6,94.3 84.5,89.9 89.3,83.9 L89.3,83.9 Z" id="Shape" fill="#7A0D16"></path>
                            <path d="M42.5,66.8 C42.5,66.8 33.6,67.2 22.2,74.1 C22.2,74.1 26.4,70.7 31.2,68.7 C33.6,67.7 38.5,66.2 42.5,66.8 L42.5,66.8 Z" id="Shape" fill="#F8E0E2"></path>
                            <g transform="translate(28.000000, 15.000000)" id="Shape">
                                <path d="M34.2,63.7 C35.2,63.6 36.3,63.5 37.3,63.4 L2.9,0.9 C2.5,0.2 1.6,-0.1 0.9,0.3 C0.2,0.7 -4.22994972e-14,1.6 0.4,2.3 L34.2,63.7 L34.2,63.7 Z" fill="#A57400"></path>
                                <g opacity="0.1" transform="translate(1.000000, 0.000000)" fill="#000000">
                                    <path d="M0,0.3 L34.8,63.5 C35.3,63.5 35.8,63.4 36.3,63.3 L1.9,0.8 C1.5,0.2 0.7,-0.1 0,0.3 L0,0.3 Z"></path>
                                </g>
                            </g>
                            <g>
                                <g transform="translate(1.000000, 1.000000)" id="Clipped">
                                    <g>
                                        <mask id="mask-2" fill="white">
                                            <use xlink:href="#path-1"></use>
                                        </mask>
                                        <g id="SVGID_7_"></g>
                                        <path d="M60.2,15 C68.7,17.3 64.7,8.3 64.6,8.2 C57.1,-1.9 32.5,-2.6 17.4,8.6 C2.3,19.7 -3.9,37 3.6,47.1 C4.5,48.3 13,59 14.2,47 C16.3,25.5 39,44.1 44.5,40.1 C49.6,36.4 43.6,10.6 60.2,15 L60.2,15 Z" id="Shape" fill="#56B5D6" mask="url(#mask-2)"></path>
                                    </g>
                                    <g>
                                        <mask id="mask-4" fill="white">
                                            <use xlink:href="#path-3"></use>
                                        </mask>
                                        <g id="SVGID_7_"></g>
                                        <path d="M58.4,12.1 C66.9,14.4 62.9,5.4 62.8,5.3 C55.3,-4.8 30.7,-5.5 15.6,5.7 C0.5,16.8 -5.7,34.1 1.8,44.2 C2.7,45.4 11.2,56.1 12.4,44.1 C14.5,22.6 37.2,41.2 42.7,37.2 C47.8,33.5 41.9,7.7 58.4,12.1 L58.4,12.1 Z" id="Shape" fill="#4FA5CD" mask="url(#mask-4)"></path>
                                    </g>
                                    <g>
                                        <mask id="mask-6" fill="white">
                                            <use xlink:href="#path-5"></use>
                                        </mask>
                                        <g id="SVGID_7_"></g>
                                        <path d="M56,8.6 C64.5,10.9 60.4,1.9 60.4,1.8 C52.9,-8.3 28.3,-9 13.2,2.2 C-1.9,13.3 -8.1,30.6 -0.6,40.7 C0.3,41.9 8.8,52.6 10,40.6 C12.1,19.1 34.8,37.7 40.3,33.7 C45.4,30 39.4,4.2 56,8.6 L56,8.6 Z" id="Shape" fill="#56B5D6" mask="url(#mask-6)"></path>
                                    </g>
                                    <g>
                                        <mask id="mask-8" fill="white">
                                            <use xlink:href="#path-7"></use>
                                        </mask>
                                        <g id="SVGID_7_"></g>
                                        <path d="M53.4,5.5 C61.9,7.8 57.8,-1.2 57.8,-1.3 C50.3,-11.4 25.7,-12.1 10.6,-1 C-4.5,10.1 -10.7,27.4 -3.2,37.5 C-2.3,38.7 6.2,49.4 7.4,37.4 C9.5,15.9 32.2,34.5 37.7,30.5 C42.8,26.8 36.9,1 53.4,5.5 L53.4,5.5 Z" id="Shape" fill="#4FA5CD" mask="url(#mask-8)"></path>
                                    </g>
                                    <g>
                                        <mask id="mask-10" fill="white">
                                            <use xlink:href="#path-9"></use>
                                        </mask>
                                        <g id="SVGID_7_"></g>
                                        <path d="M51.1,2.6 C59.6,4.9 55.6,-4.1 55.5,-4.2 C48,-14.3 23.4,-15 8.3,-3.9 C-6.8,7.2 -13,24.5 -5.5,34.6 C-4.6,35.9 3.9,46.5 5.1,34.5 C7.2,13 29.9,31.6 35.4,27.6 C40.5,23.9 34.5,-1.8 51.1,2.6 L51.1,2.6 Z" id="Shape" fill="#56B5D6" mask="url(#mask-10)"></path>
                                    </g>
                                    <g>
                                        <mask id="mask-12" fill="white">
                                            <use xlink:href="#path-11"></use>
                                        </mask>
                                        <g id="SVGID_7_"></g>
                                        <path d="M48.6,-1.2 C57.1,1.1 53.1,-7.9 53,-8 C45.5,-18.1 20.9,-18.8 5.8,-7.6 C-9.3,3.5 -15.5,20.8 -8,30.9 C-7.1,32.1 1.4,42.8 2.6,30.8 C4.7,9.3 27.4,27.9 32.9,23.9 C38,20.1 32,-5.7 48.6,-1.2 L48.6,-1.2 Z" id="Shape" fill="#4FA5CD" mask="url(#mask-12)"></path>
                                    </g>
                                    <g>
                                        <mask id="mask-14" fill="white">
                                            <use xlink:href="#path-13"></use>
                                        </mask>
                                        <g id="SVGID_7_"></g>
                                        <path d="M45.4,-5.6 C53.9,-3.3 49.9,-12.3 49.8,-12.4 C42.3,-22.5 17.7,-23.2 2.6,-12 C-12.5,-0.9 -18.7,16.4 -11.2,26.5 C-10.3,27.7 -1.8,38.4 -0.6,26.4 C1.5,4.9 24.2,23.5 29.7,19.5 C34.8,15.7 28.9,-10.1 45.4,-5.6 L45.4,-5.6 Z" id="Shape" fill="#56B5D6" mask="url(#mask-14)"></path>
                                    </g>
                                    <g>
                                        <mask id="mask-16" fill="white">
                                            <use xlink:href="#path-15"></use>
                                        </mask>
                                        <g id="SVGID_7_"></g>
                                        <path d="M42.2,-11 C50.7,-8.7 46.6,-17.7 46.6,-17.8 C39.1,-27.9 14.5,-28.6 -0.6,-17.4 C-15.7,-6.3 -21.9,11 -14.4,21.1 C-13.5,22.3 -5,33 -3.8,21 C-1.7,-0.5 21,18.1 26.5,14.1 C31.6,10.3 25.6,-15.5 42.2,-11 L42.2,-11 Z" id="Shape" fill="#4FA5CD" mask="url(#mask-16)"></path>
                                    </g>
                                    <g>
                                        <mask id="mask-18" fill="white">
                                            <use xlink:href="#path-17"></use>
                                        </mask>
                                        <g id="SVGID_7_"></g>
                                        <path d="M39.6,-14.5 C48.1,-12.2 44,-21.3 44,-21.3 C36.5,-31.4 11.9,-32.1 -3.2,-20.9 C-18.3,-9.8 -24.5,7.5 -17,17.6 C-16.1,18.8 -7.6,29.5 -6.4,17.5 C-4.3,-4 18.4,14.6 23.9,10.6 C29,6.8 23,-18.9 39.6,-14.5 L39.6,-14.5 Z" id="Shape" fill="#56B5D6" mask="url(#mask-18)"></path>
                                    </g>
                                </g>
                                <path d="M66.4,9.9 C58.9,-1.7 31.1,-3.3 16.3,7.6 C1.5,18.5 -3.5,41.7 4.8,49.7 C8.2,52.9 11.5,54.9 13.6,52.7 C11.5,51.4 10.6,52.1 8,49.3 C1.0658141e-14,40.8 3.8,20.4 17.8,10.1 C31.8,-0.3 60.6,2.5 66.4,14.2 C67.5,13.4 68.2,12.7 66.4,9.9 L66.4,9.9 Z" id="Shape" fill="#E7E7E4"></path>
                                <g opacity="0.1" transform="translate(21.000000, 6.000000)" id="Shape" fill="#000000">
                                    <path d="M3.9,0.4 C2.9,0.8 1.9,1.2 0.9,1.7 C3.7,6.9 15.2,27.8 20.3,32.7 C23.4,35.7 23.9,34.7 25.3,33.8 C26.4,33 26.6,31.4 25.3,28.7 C22.4,22.4 10.5,4.9 3.9,0.4 L3.9,0.4 Z"></path>
                                </g>
                                <g opacity="0.25" transform="translate(15.000000, 48.000000)" id="Shape" fill="#FFFFFF">
                                    <g>
                                        <path></path>
                                    </g>
                                </g>
                                <g opacity="0.1" transform="translate(2.000000, 1.000000)" id="Shape" fill="#000000">
                                    <path d="M17.4,9 C30.4,-0.6 56,1.1 64.4,10.7 C64.1,9.4 63.6,8.3 63.6,8.2 C56.1,-1.9 31.5,-2.6 16.4,8.6 C10.6,12.9 6.1,18 3.2,23.3 C-0.8,33.2 -0.7,43.7 4.4,48.6 C6.6,50.7 8.8,52.3 10.7,52.5 C11.3,52.3 11.8,51.8 12.2,51.1 C10.8,50.5 9.8,50.5 7.7,48.2 C-0.4,39.6 3.3,19.3 17.4,9 L17.4,9 Z"></path>
                                </g>
                            </g>
                            <g opacity="0.1" transform="translate(17.000000, 64.000000)" id="Shape" fill="#000000">
                                <path d="M37.1,0.3 C35.2,0.3 33.3,0.4 31.5,0.5 C29.8,3.1 29,6.7 30,11.8 C32.3,11.6 34.7,11.5 37.1,11.5 C43.3,11.5 49.2,12.1 54.3,13.2 C49.2,14.3 43.3,14.9 37.1,14.9 C30.9,14.9 25,14.3 19.9,13.2 C22.5,12.6 25.3,12.2 28.2,11.9 C22.1,10.8 3.7,8 0.3,15.5 C0.7,23.6 17,30.2 37.2,30.2 C57.6,30.2 74.1,23.5 74.1,15.2 C73.9,7 57.4,0.3 37.1,0.3 L37.1,0.3 Z"></path>
                            </g>
                            <path d="M90.9,79.3 C90.9,77.2 89.8,75.1 87.8,73.3 C87.8,73.3 59.1,57.9 50.3,75.7 C51.5,75.6 52.8,75.6 54,75.6 C60.2,75.6 66.1,76.2 71.2,77.3 C66.1,78.4 60.2,79 54,79 C52.3,79 41.3,77.9 39.6,77.8 C38.5,81.6 34.9,90.9 47.9,93.8 C48,93.8 47.9,93.9 47.9,94 C49.9,94.1 51.9,94.2 53.9,94.2 C74.4,94.3 90.9,87.6 90.9,79.3 L90.9,79.3 Z" id="Shape" fill="#5E0311"></path>
                        </g>
                        <g opacity="0.25" transform="translate(2.000000, 7.000000)" id="Shape" fill="#FFFFFF">
                            <path d="M0.8,22.6 C8.9,44.3 4.4,16.2 26.3,22 C37.4,24.9 27.4,10.9 22.2,3.5 C21.4,2.4 20.7,1.2 20.1,0.1 C18.8,0.8 17.5,1.6 16.3,2.5 C8.7,8.2 3.3,15.5 0.8,22.6 L0.8,22.6 Z"></path>
                        </g>
                        <path d="M66.4,9.9 C58.9,-1.7 31.1,-3.3 16.3,7.6 C1.5,18.5 -3.5,41.7 4.8,49.7 C8.2,52.9 11.5,54.9 13.6,52.7 C11.5,51.4 10.6,52.1 8,49.3 C1.0658141e-14,40.8 3.8,20.4 17.8,10.1 C31.8,-0.3 60.6,2.5 66.4,14.2 C67.5,13.4 68.2,12.7 66.4,9.9 L66.4,9.9 Z" id="Shape" fill="#A6D1DA"></path>
                        <path d="M45.5,41.5 C46.6,40.8 46.6,39.2 45.4,36.6 C42.3,29.9 27.4,7.7 22.3,7.1 L20.9,8.2 C20.9,8.2 34.4,33.6 40,39 C42.9,41.8 44.2,42.4 45.5,41.5 L45.5,41.5 Z" id="Shape" fill="#A6D1DA"></path>
                        <g opacity="0.25" transform="translate(44.000000, 10.000000)" id="Shape" fill="#000000">
                            <path d="M13.8,0.5 C6.4,0.5 0.3,7.7 0.3,16.6 C0.3,20.5 1.5,24.1 3.4,26.9 C5.1,18.6 3.8,2.5 17.2,6.1 C20.9,7.1 22.2,5.9 22.5,4.3 C20.1,1.9 17.1,0.5 13.8,0.5 L13.8,0.5 Z"></path>
                        </g>
                    </g>
                    <g opacity="0.25" transform="translate(48.000000, 65.000000)" id="Shape" fill="#000000">
                        <path d="M18.3,13.7 C19,13.5 19.7,13.2 20.4,12.8 C16,13.6 11.1,14 6,14 C4.6,14 3.2,14 1.8,13.9 C4.8,16.6 11,16.3 18.3,13.7 L18.3,13.7 Z"></path>
                        <g>
                            <path d="M17.2,0 C16.1,0.3 14.9,0.4 13.6,0.2 C4.9,-0.7 -0.5,5.8 0.2,10.7 C2.1,10.6 4,10.5 6,10.5 C11.7,10.5 17.1,11 22,12 C25.8,9.9 29.3,6.7 31.2,3.3 C27.3,1.9 22.5,0.7 17.2,0 L17.2,0 Z"></path>
                        </g>
                    </g>
                    <path d="M72.3,58.9 C73.8,59.7 74.4,61.7 73.5,63.4 C72.6,65.1 70.6,65.9 69.2,65 C64.6,62 61.1,64.3 60.5,63.3 C59.5,61.4 58.4,58.8 60.6,57.8 C61.5,57.4 63.7,57.8 65.4,57.9 C68.5,58 71.5,58.5 72.3,58.9 L72.3,58.9 Z" id="Shape" fill="#171717"></path>
                    <path d="M61.3,56.6 L59.7,62.9 C59.7,62.9 60.7,64.6 63.3,63.6 L64.8,57.4 C64.9,57.3 62.7,55.6 61.3,56.6 L61.3,56.6 Z" id="Shape" fill="#3A7B27"></path>
                    <g opacity="0.25" transform="translate(59.000000, 58.000000)" id="Shape" fill="#000000">
                        <path d="M2,1 C1.9,1 1.8,0.9 1.7,0.9 L0.7,4.7 C1.7,5.9 4,4.2 4.9,2.8 L5.2,1.7 C4.8,1 3.4,1.3 2,1 L2,1 Z"></path>
                    </g>
                    <path d="M61.3,56.6 L61.2,57 C61.6,57.5 62.6,58.1 64.8,57.6 L64.9,57.3 C64.9,57.3 62.7,55.6 61.3,56.6 L61.3,56.6 Z" id="Shape" fill="#509328"></path>
                    <path d="M77.8,56.8 C84.6,63.5 74.4,74.3 65.5,77.4 C56.6,80.5 49.3,80.4 47.7,75.5 C46,70.6 51.5,63 60.8,64 C70.6,64.9 74.1,53.1 77.8,56.8 L77.8,56.8 Z" id="Shape" fill="#262626"></path>
                    <path d="M76.3,56.1 C73.1,56 69.3,64.8 60.7,64 C51.3,63.1 45.9,70.6 47.6,75.5 C47.6,75.6 47.7,75.7 47.7,75.8 C53.4,78.8 56.3,69.6 62.6,70.2 C69,70.8 74.3,65.3 75.7,63.6 C77.1,61.8 77.4,58.4 76.3,56.1 L76.3,56.1 Z" id="Shape" fill="#F2F2F1"></path>
                    <g opacity="0.25" transform="translate(61.000000, 56.000000)" id="Shape" fill="#000000">
                        <path d="M3.9,1.3 C3.9,1.3 3.3,0.9 2.6,0.6 L0.8,7.6 C0.8,7.6 0.9,7.7 1,7.9 C1.4,7.9 1.8,7.8 2.3,7.6 L3.9,1.3 L3.9,1.3 Z"></path>
                    </g>
                    <path d="M64.2,59.5 C64.9,60.6 59.3,65.7 59.2,60.8 C59.1,57.4 60.2,58.6 60.9,58.7 C62.3,59 63.7,58.7 64.2,59.5 L64.2,59.5 Z" id="Shape" fill="#262626"></path>
                    <path d="M61.5,56.7 C61.5,56.7 62,58.1 64.7,57.3 C64.7,57.3 62.4,55.7 61.5,56.7 L61.5,56.7 Z" id="Shape" fill="#00300E"></path>
                    <path d="M61.6,56.8 C61.6,56.8 62,58 64.4,57.4 C64.4,57.4 62.3,56.2 61.6,56.8 L61.6,56.8 Z" id="Shape" fill="#F3B018"></path>
                    <g transform="translate(63.000000, 51.000000)" id="Shape">
                        <path d="M10.2,0.9 C10.1,0.8 9.9,0.7 9.8,0.8 L-2.84217094e-14,6.5 C-2.84217094e-14,6.5 -2.84217094e-14,6.5 -2.84217094e-14,6.6 C0.4,6.6 0.8,6.6 1.4,6.5 L10.2,1.4 C10.2,1.3 10.3,1.1 10.2,0.9 L10.2,0.9 Z" fill="#E1E3E3"></path>
                        <polygon fill="#B20D13" points="6.3 3.5 7.3 3 6.1 2.9 5.1 3.5"></polygon>
                        <polygon fill="#B20D13" points="3.5 5.1 4.5 4.6 3.3 4.5 2.3 5.1"></polygon>
                        <polygon fill="#B20D13" points="1.6 6.3 2.5 5.7 1.3 5.7 0.3 6.2"></polygon>
                        <polygon fill="#B20D13" points="8.6 2.2 9.6 1.6 8.3 1.6 7.4 2.2"></polygon>
                    </g>
                    <g opacity="0.25" transform="translate(74.000000, 56.000000)" id="Shape" fill="#000000">
                        <path d="M3.8,0.8 C2.7,-0.3 1.7,-6.66133815e-15 0.5,0.9 C1.6,3.5 3.8,5.1 6,4.8 C5.7,3.3 5,2 3.8,0.8 L3.8,0.8 Z"></path>
                    </g>
                    <path d="M83.6,52.6 C85.1,55.9 83,59.4 80.4,60.1 C77.8,60.7 74.9,58.4 74.1,54.9 C73.3,51.4 64.2,45.1 66.9,45.1 C67.8,45.1 70.5,45.2 75.1,48.2 C76.3,49.1 82.5,50.3 83.6,52.6 L83.6,52.6 Z" id="Shape" fill="#262626"></path>
                    <g transform="translate(76.000000, 48.000000)" id="Shape">
                        <path d="M4.9,7 C2.9,7.8 1.8,6.6 1.1,4.9 C0.4,3.2 0.5,1.5 2.4,0.8 C4.3,-3.10862447e-14 5.2,1.3 5.9,3 C6.6,4.7 6.9,6.2 4.9,7 L4.9,7 Z" fill="#000000"></path>
                        <path d="M4.5,6.4 C4.7,5.8 4.9,5 4.9,4.1 C4.9,2.9 4.6,1.9 4.2,1.1 C3.8,0.9 3.3,0.9 2.8,1.2 C1.2,1.8 1.2,3.2 1.7,4.6 C2.2,5.9 3.1,6.8 4.5,6.4 L4.5,6.4 Z" fill="#A8A8A8"></path>
                        <path d="M6.7,10.3 L6.2,10.1 C6.7,9 5.2,7.4 4.6,6.8 L5,6.4 C5,6.4 7.4,8.6 6.7,10.3 L6.7,10.3 Z" fill="#000000"></path>
                    </g>
                    <path id="Shape" fill="#FADD97"></path>
                    <path id="Shape" fill="#FADD97"></path>
                    <g opacity="0.25" transform="translate(61.000000, 63.000000)" id="Shape" fill="#000000">
                        <path d="M0.2,0.9 C2.1,1.7 4.8,3.5 4.3,7.1 C4.8,7 5.3,6.9 5.8,6.8 C6.6,4.8 6.8,1.7 3.6,0.6 C2.5,0.9 1.4,1 0.2,0.9 L0.2,0.9 Z"></path>
                    </g>
                    <g opacity="0.25" transform="translate(62.000000, 63.000000)" id="Shape" fill="#000000">
                        <path d="M17.4,2 C17.2,1.3 16.4,0.8 14.9,0.6 C14.9,0.6 10.5,0.6 7,5.6 C7,5.6 4.9,2.7 1.9,2.6 C-1.1,2.5 4,9.6 7.9,9.5 C9.7,9.4 13.1,7.7 15.3,5.8 C16.2,4.5 16.9,3.2 17.4,2 L17.4,2 Z"></path>
                    </g>
                    <path d="M76.3,62.7 C76.3,62.7 71.9,62.7 68.4,67.7 C68.4,67.7 66.3,64.8 63.3,64.7 C60.3,64.6 65.4,71.7 69.3,71.6 C73.2,71.6 83.8,64 76.3,62.7 L76.3,62.7 Z" id="Shape" fill="#262626"></path>
                    <path d="M49.5,72.2 C49,71.8 47.3,72.7 47.4,74.1 C48,75 48.7,75.9 49.5,77 C50.1,77.8 50.6,78.4 51,78.8 C51.6,79 52.3,79.2 53,79.3 C53.1,79.2 53.1,79 53.1,79 C53.1,79 52.6,74.8 49.5,72.2 L49.5,72.2 Z" id="Shape" fill="#000000" opacity="0.25"></path>
                    <path d="M49.5,68.2 C47.6,70.5 46.9,73.2 47.7,75.5 C47.8,75.7 47.9,75.9 48,76.2 C48.2,76.1 48.3,76 48.3,76 C48.3,76 50.4,71.6 49.5,68.2 L49.5,68.2 Z" id="Shape" fill="#000000" opacity="0.25"></path>
                    <path d="M47.6,74.1 C47.6,74.1 50,69.5 48.8,66.1 C47.6,62.6 46,61.5 46,61.5 C46,61.5 44.6,62.1 45.7,70.9 C46.3,75.9 47.6,74.1 47.6,74.1 L47.6,74.1 Z" id="Shape" fill="#CE8400"></path>
                    <path d="M48.8,66.1 C48.3,64.8 47.9,63.9 47.4,63.2 C47.1,63.6 46.3,65.4 47.2,72.5 C47.3,73.2 47.4,73.8 47.5,74.3 C47.5,74.2 47.6,74.2 47.6,74.2 C47.6,74.2 50,69.6 48.8,66.1 L48.8,66.1 Z" id="Shape" fill="#B47300"></path>
                    <path d="M51.4,78.4 C51.4,78.4 51.2,72.8 48.1,70.1 C45,67.4 43,67.2 43,67.2 C43,67.2 42,68.6 47.8,76.3 C51.1,80.7 51.4,78.4 51.4,78.4 L51.4,78.4 Z" id="Shape" fill="#F4B11F"></path>
                    <path d="M48.1,70.1 C47,69.1 46,68.5 45.2,68.1 L45,68.1 C45,68.1 44,69.5 49.8,77.2 C50.3,77.9 50.8,78.4 51.2,78.8 C51.3,78.6 51.4,78.4 51.4,78.4 C51.4,78.4 51.2,72.8 48.1,70.1 L48.1,70.1 Z" id="Shape" fill="#F09F1F"></path>
                </g>
            </g>
        </g>
    </g>
</svg>