<?xml version="1.0" encoding="UTF-8" standalone="no"?>
<svg width="166px" height="305px" viewBox="0 0 166 305" version="1.1" xmlns="http://www.w3.org/2000/svg" xmlns:xlink="http://www.w3.org/1999/xlink">
    <!-- Generator: Sketch 3.8.2 (29753) - http://www.bohemiancoding.com/sketch -->
    <title>Group</title>
    <desc>Created with Sketch.</desc>
    <defs></defs>
    <g id="Page-1" stroke="none" stroke-width="1" fill="none" fill-rule="evenodd">
        <g id="Desktop-Copy" transform="translate(-745.000000, -870.000000)">
            <g id="Group" transform="translate(745.000000, 870.000000)">
                <g transform="translate(13.141572, 280.407273)" id="Shape">
                    <path d="M75.8185039,7.23272727 C75.8185039,12.1287273 73.5792342,18.2487273 51.1865377,22.7367273 C27.3688513,27.4287273 0.701185448,22.7367273 0.497615479,13.7607273 C0.29404551,7.64072727 16.783213,0.704727273 39.5830495,0.704727273 C62.382886,0.500727273 75.8185039,-0.315272727 75.8185039,7.23272727 L75.8185039,7.23272727 Z" fill="#5DA8AE"></path>
                    <path d="M137.703774,7.23272727 C137.703774,12.1287273 135.464505,18.2487273 113.071808,22.7367273 C89.2541218,27.4287273 62.5864559,22.7367273 62.382886,13.7607273 C62.179316,7.64072727 78.6684834,0.704727273 101.46832,0.704727273 C124.268156,0.500727273 137.703774,-0.315272727 137.703774,7.23272727 L137.703774,7.23272727 Z" fill="#5DA8AE"></path>
                    <path d="M127.118136,8.04872727 C127.118136,11.3127273 125.489576,16.6167273 109.407549,19.4727273 C92.5112413,22.5327273 72.7649544,18.8607273 72.5613844,13.7607273 C72.5613844,12.1287273 78.8720534,3.56072727 100.85761,4.17272727 C117.143208,4.58072727 127.118136,2.74472727 127.118136,8.04872727 L127.118136,8.04872727 Z" fill="#9AD2E6"></path>
                    <path d="M65.6400055,7.84472727 C65.6400055,11.1087273 64.0114457,16.6167273 47.7258482,19.4727273 C30.4224009,22.5327273 10.4725439,18.6567273 10.268974,13.7607273 C10.268974,12.1287273 16.783213,3.35672727 38.9723396,3.96872727 C55.461507,4.58072727 65.6400055,2.74472727 65.6400055,7.84472727 L65.6400055,7.84472727 Z" fill="#9AD2E6"></path>
                </g>
                <g id="Shape">
                    <path d="M54.7603216,296.208 C53.3353318,296.208 51.910342,296.208 50.2817823,296.004 C41.3247036,294.168 35.6247445,285.396 37.4568742,276.42 L49.8746423,215.424 C51.706772,206.448 60.4602807,200.736 69.4173593,202.572 C78.3744379,204.408 84.0743971,213.18 82.2422673,222.156 L69.8244993,283.152 C68.1959395,290.496 62.0888404,295.8 54.7603216,296.208 L54.7603216,296.208 Z" fill="#F7D29E"></path>
                    <path d="M76.3387382,205.632 C79.1887178,209.304 80.4101376,214.2 79.3922878,219.096 L66.9745197,280.092 C65.3459599,287.64 59.2388609,292.74 51.910342,293.352 C50.4853522,293.352 49.0603624,293.352 47.4318027,293.148 C44.7853931,292.536 42.5461235,291.516 40.7139937,290.088 C42.9532634,293.148 46.4139529,295.392 50.4853522,296.208 C51.910342,296.616 53.5389018,296.616 54.9638915,296.412 C62.0888404,296.004 68.3995095,290.7 70.0280692,283.152 L82.4458373,222.156 C83.6672571,215.628 81.0208475,209.304 76.3387382,205.632 L76.3387382,205.632 Z" fill="#000000" opacity="0.15"></path>
                    <path d="M110.945633,296.208 C112.370623,296.208 113.795612,296.208 115.424172,296.004 C124.381251,294.168 130.08121,285.396 128.24908,276.42 L115.831312,215.424 C113.999182,206.448 105.245674,200.736 96.2885952,202.572 C87.3315166,204.408 81.6315574,213.18 83.4636872,222.156 L95.8814552,283.152 C97.510015,290.496 103.820684,295.8 110.945633,296.208 L110.945633,296.208 Z" fill="#F7D29E"></path>
                    <path d="M128.24908,276.42 L115.831312,215.424 C115.017032,211.548 112.981333,208.284 109.927783,205.836 C111.556343,207.876 112.777763,210.324 113.388473,212.976 L125.806241,273.972 C127.63837,282.948 121.938411,291.72 112.981333,293.556 C111.556343,293.964 109.927783,293.964 108.502793,293.964 C105.042104,293.76 101.784984,292.332 99.1385747,290.292 C101.988554,293.76 106.263524,296.208 110.945633,296.412 C112.370623,296.412 113.795612,296.412 115.424172,296.208 C124.381251,294.168 130.08121,285.396 128.24908,276.42 L128.24908,276.42 Z" fill="#000000" opacity="0.15"></path>
                    <path d="M82.8529772,208.08 C42.5461235,208.08 42.1389835,156.06 42.1389835,133.824 C42.1389835,111.588 60.2567107,93.432 82.8529772,93.432 C105.245674,93.432 123.566971,111.588 123.566971,133.824 C123.566971,156.06 123.363401,208.08 82.8529772,208.08 Z" fill="#F7D29E"></path>
                    <path d="M119.902712,117.3 C120.309851,119.544 120.513421,121.788 120.513421,124.032 C120.513421,147.492 120.309851,202.164 77.763728,202.164 C68.1959395,202.164 60.8674206,199.512 55.1674615,194.82 C61.2745606,202.776 70.0280692,208.08 82.8529772,208.08 C123.159831,208.08 123.566971,156.06 123.566971,133.824 C123.566971,127.908 122.141981,122.4 119.902712,117.3 L119.902712,117.3 Z" fill="#000000" opacity="0.15"></path>
                    <path d="M116.442022,200.124 C116.442022,222.36 97.1028751,216.648 83.0565472,230.724 C69.2137893,216.852 49.6710724,222.36 49.6710724,200.124 C49.6710724,177.888 64.73525,187.068 83.0565472,187.068 C101.377844,187.272 116.442022,177.888 116.442022,200.124 L116.442022,200.124 Z" fill="#003757"></path>
                    <path d="M82.8529772,191.148 C96.0850252,191.148 107.688513,187.68 114.609892,190.128 C110.131353,181.356 97.713585,187.272 82.8529772,187.272 C68.1959395,187.272 55.5746014,181.356 51.0960621,190.128 C58.221011,187.68 69.8244993,191.148 82.8529772,191.148 L82.8529772,191.148 Z" fill="#FFFFFF" opacity="0.1"></path>
                    <path d="M111.352773,186.66 C112.777763,188.904 113.388473,192.372 113.388473,197.268 C113.388473,219.504 96.6957351,213.792 82.6494073,227.868 C73.0816187,218.28 59.4424308,217.872 51.910342,211.344 C57.6103011,220.932 71.8601989,219.912 82.8529772,230.724 C97.1028751,216.444 116.238452,222.36 116.238452,200.124 C116.442022,192.372 114.609892,188.496 111.352773,186.66 L111.352773,186.66 Z" fill="#000000" opacity="0.15"></path>
                    <path d="M47.0246628,197.88 C48.6532225,197.064 50.2817823,195.84 51.5032021,194.412 C58.0174411,187.476 57.8138711,176.664 50.8924922,170.136 C44.1746832,163.608 39.4925739,158.304 36.8461643,154.836 C42.3425535,149.124 49.4675024,144.432 52.5210519,142.596 L52.5210519,142.596 L57.2031612,102.816 C54.9638915,104.04 13.4356179,126.072 3.05354953,142.596 L1.83212972,144.432 L1.22141981,146.676 C-0.407139937,152.184 0.203569969,158.304 3.05354953,164.628 C4.68210928,167.892 6.71780897,171.564 9.7713585,175.644 C15.6748876,183.6 23.4105464,191.148 27.2783758,195.024 C32.774765,200.328 40.7139937,201.144 47.0246628,197.88 L47.0246628,197.88 Z" fill="#F7D29E"></path>
                    <g opacity="0.15" transform="translate(32.571195, 144.840000)" fill="#000000">
                        <path d="M4.27496934,10.2 C8.34636872,6.12 13.232048,2.244 16.8963074,0 C10.5856384,3.264 3.66425944,7.344 0.814279875,10.2 C3.46068947,13.872 8.14279875,19.176 14.8606077,25.5 C21.7819866,32.028 21.9855566,42.84 15.4713176,49.776 C14.0463278,51.204 12.6213381,52.428 10.9927783,53.244 C8.95707862,54.264 6.92137893,54.876 4.88567925,55.08 C8.14279875,55.488 11.6034882,54.876 14.6570377,53.244 C16.2855975,52.428 17.9141572,51.204 19.1355771,49.776 C25.6498161,42.84 25.4462461,32.028 18.5248671,25.5 C11.6034882,18.972 6.92137893,13.668 4.27496934,10.2 L4.27496934,10.2 Z"></path>
                    </g>
                    <path d="M118.884862,197.88 C117.256302,197.064 115.627742,195.84 114.406322,194.412 C107.892083,187.476 108.095653,176.664 115.017032,170.136 C121.734841,163.608 126.416951,158.304 129.06336,154.836 C123.566971,149.124 116.442022,144.432 113.388473,142.596 L113.388473,142.596 L108.706363,102.816 C110.945633,104.04 152.473907,126.072 162.855975,142.596 L164.077395,144.432 L164.688105,146.676 C166.316664,152.184 165.705954,158.304 162.855975,164.628 C161.227415,167.892 159.191715,171.564 156.138166,175.644 C150.234637,183.6 142.498978,191.148 138.631149,195.024 C132.93119,200.328 125.195531,201.144 118.884862,197.88 L118.884862,197.88 Z" fill="#F7D29E"></path>
                    <g opacity="0.15" transform="translate(112.890857, 134.424633)" fill="#000000">
                        <path d="M6.80828451,12.6593666 C6.80828451,12.6593666 10.8796839,15.9233666 12.9153836,17.7593666 L12.9153836,17.7593666 C10.8796839,15.7193666 6.40114457,12.0473666 6.40114457,12.0473666 L6.80828451,12.6593666 L6.80828451,12.6593666 Z"></path>
                        <path d="M51.7972476,12.4553666 L51.1865377,10.2113666 L49.9651179,8.37536657 C48.3365581,5.72336657 45.6901485,2.86736657 42.636599,0.0113665689 C44.4687287,1.84736657 45.8937185,3.88736657 47.1151383,5.51936657 L48.3365581,7.35536657 L48.947268,9.59936657 C50.5758278,15.1073666 49.9651179,21.2273666 47.1151383,27.5513666 C45.4865786,30.8153666 43.4508789,34.4873666 40.3973293,38.5673666 C34.4938002,46.5233666 26.7581414,54.0713666 22.890312,57.9473666 C17.3939229,63.0473666 9.65826407,64.0673666 3.34759504,60.8033666 C2.3297452,60.1913666 1.31189535,59.5793666 0.497615479,58.9673666 C0.904755416,59.3753666 1.31189535,59.7833666 1.71903529,60.3953666 C3.14402507,61.8233666 4.56901485,63.0473666 6.1975746,63.8633666 C12.5082436,67.1273666 20.4474724,66.1073666 25.7402916,61.0073666 C29.811691,57.1313666 37.3437798,49.5833666 43.2473089,41.6273666 C46.3008584,37.5473666 48.5401281,34.0793666 49.9651179,30.6113666 C52.8150974,24.0833666 53.4258073,17.9633666 51.7972476,12.4553666 L51.7972476,12.4553666 Z"></path>
                    </g>
                    <path d="M113.592043,113.832 C113.999182,113.628 114.202752,113.424 114.609892,113.424 C115.424172,113.016 116.034882,112.608 116.645592,112.2 C116.849162,112.2 116.849162,111.996 117.052732,111.996 L117.052732,111.996 C118.274152,111.384 119.495572,110.568 120.513421,109.752 C115.831312,106.896 111.963483,104.856 109.927783,103.836 C102.802834,97.308 93.2350456,93.432 82.8529772,93.432 C72.4709088,93.432 62.9031203,97.308 55.7781714,103.836 C55.1674615,104.244 54.5567516,104.448 53.7424717,105.06 C53.9460417,105.264 53.9460417,105.264 54.1496117,105.468 L54.1496117,105.468 C54.3531816,105.672 54.5567516,105.876 54.7603216,106.08 C55.3710315,106.692 55.9817414,107.1 56.5924513,107.712 L56.5924513,107.712 C65.7530999,114.852 77.3565881,119.34 89.9779261,119.34 C97.1028751,119.34 103.820684,117.912 109.927783,115.464 L109.927783,115.464 C110.131353,115.464 110.131353,115.26 110.334923,115.26 C110.742063,115.056 111.149203,114.852 111.556343,114.648 C112.370623,114.24 112.981333,114.036 113.592043,113.832 L113.592043,113.832 Z" fill="#000000" opacity="0.25"></path>
                    <path d="M137.002589,58.14 C137.002589,87.924 112.777763,111.996 82.8529772,111.996 C52.9281919,111.996 28.7033656,87.924 28.7033656,58.14 C28.7033656,28.356 52.9281919,4.284 82.8529772,4.284 C112.777763,4.284 137.002589,28.356 137.002589,58.14 L137.002589,58.14 Z" fill="#F7D29E"></path>
                    <path d="M119.088432,17.952 C127.63837,27.54 132.72762,39.984 132.72762,53.652 C132.72762,83.436 108.502793,107.508 78.5780079,107.508 C64.73525,107.508 51.910342,102.204 42.3425535,93.636 C52.3174819,104.652 66.7709497,111.792 82.8529772,111.792 C112.777763,111.792 137.002589,87.72 137.002589,57.936 C137.002589,42.228 130.08121,27.948 119.088432,17.952 L119.088432,17.952 Z" fill="#000000" opacity="0.15"></path>
                    <path d="M65.9566698,53.244 C65.9566698,58.344 63.3102603,62.424 59.8495708,62.424 C56.5924513,62.424 53.7424717,58.344 53.7424717,53.244 C53.7424717,48.144 56.3888813,44.064 59.8495708,44.064 C63.3102603,44.064 65.9566698,48.144 65.9566698,53.244 L65.9566698,53.244 Z" fill="#000000" opacity="0.75"></path>
                    <path d="M112.370623,53.244 C112.370623,58.344 109.724213,62.424 106.263524,62.424 C102.802834,62.424 100.156425,58.344 100.156425,53.244 C100.156425,48.144 102.802834,44.064 106.263524,44.064 C109.724213,44.064 112.370623,48.144 112.370623,53.244 L112.370623,53.244 Z" fill="#000000" opacity="0.75"></path>
                    <path d="M82.6494073,67.32 C87.5350865,67.32 91.6064859,70.38 92.0136258,74.052 C92.0136258,73.848 92.2171958,73.44 92.2171958,73.236 C92.2171958,68.952 87.9422265,65.484 82.6494073,65.484 C77.3565881,65.484 73.0816187,68.952 73.0816187,73.236 C73.0816187,73.644 73.0816187,73.848 73.2851887,74.052 C73.6923287,70.176 77.763728,67.32 82.6494073,67.32 L82.6494073,67.32 Z" fill="#000000" opacity="0.15"></path>
                    <path d="M82.8529772,84.864 C67.7887996,84.864 53.9460417,83.64 41.7318436,81.396 C47.4318027,91.392 63.7174002,98.736 82.8529772,98.736 C101.988554,98.736 118.274152,91.596 123.974111,81.396 C111.963483,83.64 97.9171549,84.864 82.8529772,84.864 L82.8529772,84.864 Z" fill="#F9FAFA"></path>
                    <path d="M82.8529772,84.864 C67.7887996,84.864 53.9460417,83.64 41.7318436,81.396 C47.4318027,91.392 63.7174002,98.736 82.8529772,98.736 C101.988554,98.736 118.274152,91.596 123.974111,81.396 C111.963483,83.64 97.9171549,84.864 82.8529772,84.864 L82.8529772,84.864 Z" fill="#F9FAFA"></path>
                    <path d="M82.8529772,86.496 C97.306445,86.496 110.945633,85.272 122.549121,83.232 C122.956261,82.62 123.566971,82.008 123.770541,81.192 C111.759913,83.436 97.713585,84.66 82.6494073,84.66 C67.5852296,84.66 53.7424717,83.436 41.5282736,81.192 C41.9354135,81.804 42.3425535,82.62 42.7496934,83.232 C54.9638915,85.476 68.3995095,86.496 82.8529772,86.496 L82.8529772,86.496 Z" fill="#000000" opacity="0.15"></path>
                    <g transform="translate(26.464096, 0.000000)">
                        <path d="M56.9995912,32.232 C35.2176046,32.232 14.2498978,38.76 0.814279875,50.592 C0.814279875,51.204 2.23926966,51.612 2.23926966,52.428 C16.4891675,42.228 35.0140346,35.904 56.9995912,35.904 C78.3744379,35.904 96.2885952,42.024 110.538493,51.612 C110.538493,51 111.963483,49.776 111.963483,49.776 C98.1207249,37.332 78.170868,32.232 56.9995912,32.232 L56.9995912,32.232 Z" fill="#003F64"></path>
                        <path d="M56.9995912,34.068 C78.3744379,34.068 97.713585,39.984 111.963483,49.776 C108.502793,22.236 85.0922469,1.02 56.3888813,1.02 C27.4819458,1.02 3.8678294,22.644 0.814279875,50.592 C15.0641777,40.392 35.0140346,34.068 56.9995912,34.068 L56.9995912,34.068 Z" fill="#005282"></path>
                        <path d="M39.289004,3.672 L39.289004,35.292 C44.9889631,34.476 50.8924922,33.864 56.9995912,33.864 C62.6995503,33.864 68.1959395,34.272 73.6923287,35.088 L73.6923287,3.468 C68.1959395,1.836 62.4959804,0.816 56.5924513,0.816 C50.4853522,1.02 44.7853931,2.04 39.289004,3.672 L39.289004,3.672 Z" fill="#F9CB14"></path>
                    </g>
                </g>
            </g>
        </g>
    </g>
</svg>