<?xml version="1.0" encoding="UTF-8" standalone="no"?>
<svg width="241px" height="310px" viewBox="0 0 241 310" version="1.1" xmlns="http://www.w3.org/2000/svg" xmlns:xlink="http://www.w3.org/1999/xlink">
    <!-- Generator: Sketch 3.8.2 (29753) - http://www.bohemiancoding.com/sketch -->
    <title>Group</title>
    <desc>Created with Sketch.</desc>
    <defs></defs>
    <g id="Page-1" stroke="none" stroke-width="1" fill="none" fill-rule="evenodd">
        <g id="Desktop-Copy" transform="translate(-727.000000, -2392.000000)">
            <g id="Group" transform="translate(836.532982, 2540.886776) rotate(-13.000000) translate(-836.532982, -2540.886776) translate(722.032982, 2389.886776)">
                <ellipse id="Oval" fill="#B06DCC" cx="114.456693" cy="98.1952096" rx="97.4330709" ry="97.291018"></ellipse>
                <g transform="translate(52.519685, 69.718563)" id="Shape">
                    <path d="M123.330709,31.1892216 C122.787402,14.5520958 109.385827,1.17005988 92.7244094,0.446706587 C81.8582677,-0.0958083832 72.0787402,4.78682635 65.9212598,12.7437126 C63.9291339,15.2754491 60.1259843,15.2754491 57.9527559,12.7437126 C52.3385827,5.69101796 44.007874,0.989221557 34.4094488,0.62754491 C15.9370079,-0.276646707 0.543307087,14.3712575 0.543307087,32.6359281 C0.543307087,40.2311377 3.07874016,47.102994 7.60629921,52.5281437 C9.05511811,54.5173653 11.5905512,55.4215569 14.1259843,54.8790419 C19.5590551,53.9748503 26.0787402,53.251497 32.7795276,53.251497 C39.6614173,53.251497 46,53.794012 51.4330709,54.8790419 C53.7874016,55.2407186 56.3228346,54.3365269 57.9527559,52.5281437 C57.9527559,52.5281437 57.9527559,52.5281437 57.9527559,52.3473054 C59.9448819,49.8155689 63.7480315,49.8155689 65.9212598,52.3473054 C65.9212598,52.3473054 65.9212598,52.3473054 65.9212598,52.5281437 C67.5511811,54.5173653 69.9055118,55.4215569 72.4409449,54.8790419 C77.8740157,53.9748503 84.2125984,53.251497 91.0944882,53.251497 C97.976378,53.251497 104.314961,53.794012 109.748031,54.8790419 C112.283465,55.2407186 114.637795,54.3365269 116.267717,52.3473054 C120.976378,46.560479 123.511811,39.1461078 123.330709,31.1892216 L123.330709,31.1892216 Z" fill="#EFEDEC"></path>
                    <g transform="translate(19.110236, 15.275449)">
                        <path d="M13.6692913,0 L13.6692913,0 C8.23622047,0 3.70866142,3.43592814 1.8976378,8.31856287 C0.992125984,10.8502994 0.448818898,13.9245509 0.448818898,16.9988024 C0.448818898,20.0730539 0.992125984,22.9664671 1.8976378,25.6790419 C3.52755906,30.5616766 8.23622047,33.9976048 13.488189,33.9976048 L13.488189,33.9976048 L13.488189,33.9976048 C18.7401575,33.9976048 23.4488189,30.5616766 25.0787402,25.6790419 C25.984252,23.1473054 26.5275591,20.0730539 26.5275591,16.9988024 C26.5275591,13.9245509 25.984252,11.0311377 25.0787402,8.31856287 C23.6299213,3.43592814 19.1023622,0.180838323 13.6692913,0 L13.6692913,0 L13.6692913,0 Z" fill="#784793"></path>
                        <path d="M13.6692913,11.754491 L13.6692913,11.754491 C12.0393701,11.754491 10.5905512,12.839521 10.0472441,14.4670659 C9.68503937,15.3712575 9.68503937,16.2754491 9.68503937,17.1796407 C9.68503937,18.0838323 9.86614173,19.1688623 10.0472441,19.8922156 C10.5905512,21.5197605 12.0393701,22.6047904 13.6692913,22.6047904 L13.6692913,22.6047904 L13.6692913,22.6047904 C15.2992126,22.6047904 16.7480315,21.5197605 17.2913386,19.8922156 C17.6535433,18.988024 17.6535433,18.0838323 17.6535433,17.1796407 C17.6535433,16.2754491 17.4724409,15.1904192 17.2913386,14.4670659 C16.9291339,12.839521 15.2992126,11.754491 13.6692913,11.754491 L13.6692913,11.754491 L13.6692913,11.754491 Z" fill="#301A3F"></path>
                        <path d="M16.5669291,10.4886228 L16.5669291,10.4886228 C15.480315,10.4886228 14.5748031,11.211976 14.3937008,12.1161677 C14.2125984,12.6586826 14.2125984,13.2011976 14.2125984,13.7437126 C14.2125984,14.2862275 14.3937008,14.8287425 14.3937008,15.3712575 C14.7559055,16.2754491 15.6614173,16.9988024 16.5669291,16.9988024 L16.5669291,16.9988024 L16.5669291,16.9988024 C17.6535433,16.9988024 18.5590551,16.2754491 18.7401575,15.3712575 C18.9212598,14.8287425 18.9212598,14.2862275 18.9212598,13.7437126 C18.9212598,13.2011976 18.7401575,12.6586826 18.7401575,12.1161677 C18.5590551,11.211976 17.6535433,10.4886228 16.5669291,10.4886228 L16.5669291,10.4886228 L16.5669291,10.4886228 Z" fill="#EFEDEC"></path>
                        <path d="M71.984252,0 L71.984252,0 C66.5511811,0 62.023622,3.43592814 60.2125984,8.31856287 C59.3070866,10.8502994 58.7637795,13.9245509 58.7637795,16.9988024 C58.7637795,20.0730539 59.3070866,22.9664671 60.2125984,25.6790419 C61.8425197,30.5616766 66.5511811,33.9976048 71.8031496,33.9976048 L71.8031496,33.9976048 L71.8031496,33.9976048 C77.0551181,33.9976048 81.7637795,30.5616766 83.3937008,25.6790419 C84.2992126,23.1473054 84.8425197,20.0730539 84.8425197,16.9988024 C84.8425197,13.9245509 84.2992126,11.0311377 83.3937008,8.31856287 C82.1259843,3.43592814 77.4173228,0.180838323 71.984252,0 L71.984252,0 L71.984252,0 Z" fill="#784793"></path>
                        <path d="M71.984252,11.754491 L71.984252,11.754491 C70.3543307,11.754491 68.9055118,12.839521 68.3622047,14.4670659 C68,15.3712575 68,16.2754491 68,17.1796407 C68,18.0838323 68.1811024,19.1688623 68.3622047,19.8922156 C68.9055118,21.5197605 70.3543307,22.6047904 71.984252,22.6047904 L71.984252,22.6047904 L71.984252,22.6047904 C73.6141732,22.6047904 75.0629921,21.5197605 75.6062992,19.8922156 C75.9685039,18.988024 75.9685039,18.0838323 75.9685039,17.1796407 C75.9685039,16.2754491 75.7874016,15.1904192 75.6062992,14.4670659 C75.2440945,12.839521 73.7952756,11.754491 71.984252,11.754491 L71.984252,11.754491 L71.984252,11.754491 Z" fill="#301A3F"></path>
                        <path d="M74.8818898,10.4886228 L74.8818898,10.4886228 C73.7952756,10.4886228 72.8897638,11.211976 72.7086614,12.1161677 C72.5275591,12.6586826 72.5275591,13.2011976 72.5275591,13.7437126 C72.5275591,14.2862275 72.7086614,14.8287425 72.7086614,15.3712575 C73.0708661,16.2754491 73.976378,16.9988024 74.8818898,16.9988024 L74.8818898,16.9988024 L74.8818898,16.9988024 C75.9685039,16.9988024 76.8740157,16.2754491 77.0551181,15.3712575 C77.2362205,14.8287425 77.2362205,14.2862275 77.2362205,13.7437126 C77.2362205,13.2011976 77.0551181,12.6586826 77.0551181,12.1161677 C76.8740157,11.211976 75.9685039,10.4886228 74.8818898,10.4886228 L74.8818898,10.4886228 L74.8818898,10.4886228 Z" fill="#EFEDEC"></path>
                    </g>
                </g>
                <path d="M223.299213,234.366467 C203.92126,241.780838 181.283465,238.706587 164.440945,224.420359 C160.637795,221.165269 157.377953,217.005988 154.480315,213.027545 L141.622047,227.856287 L134.015748,227.856287 L134.015748,179.02994 L90.5511811,179.02994 L90.5511811,227.856287 L87.4724409,227.856287 L74.6141732,213.027545 C71.7165354,217.005988 68.4566929,220.803593 64.6535433,224.058683 C47.6299213,238.34491 24.992126,241.419162 5.79527559,234.185629 C1.99212598,232.738922 -1.26771654,237.25988 1.26771654,240.334132 C1.26771654,240.334132 1.26771654,240.51497 1.4488189,240.51497 C22.2755906,265.108982 58.8582677,268.54491 83.8503937,248.291018 C82.2204724,268.364072 70.4488189,285.543713 53.7874016,294.766467 C50.1653543,296.755689 51.6141732,302 55.5984252,302 L55.7795276,302 C87.6535433,302 113.551181,276.682635 114.637795,245.94012 L114.818898,245.94012 C115.905512,276.682635 141.80315,302 173.677165,302 L173.858268,302 C177.84252,302 179.291339,296.755689 175.669291,294.766467 C158.826772,285.362874 147.055118,268.183234 145.606299,248.11018 C170.417323,268.54491 207.362205,265.28982 228.188976,240.695808 C228.188976,240.695808 228.188976,240.695808 228.370079,240.51497 C230.362205,237.440719 227.102362,232.91976 223.299213,234.366467 L223.299213,234.366467 Z" id="Shape" fill="#975CB7"></path>
                <path d="M162.811024,195.847904 C162.811024,187.891018 163.897638,180.476647 165.708661,172.881437 L117.354331,172.881437 C115.543307,180.476647 114.456693,187.891018 114.456693,195.847904 C114.456693,247.205988 156.110236,288.798802 207.543307,288.798802 L207.724409,288.798802 C214.062992,288.798802 216.23622,280.299401 210.622047,277.044311 C182.188976,261.311377 162.811024,230.749701 162.811024,195.847904 L162.811024,195.847904 Z" id="Shape" fill="#B06DCC"></path>
                <path d="M211.527559,276.863473 C210.622047,277.586826 209.354331,278.491018 207.905512,278.491018 L207.724409,278.491018 C158.102362,278.491018 117.354331,239.791617 114.818898,190.784431 C114.818898,192.411976 114.637795,193.497006 114.637795,195.124551 C114.637795,246.482635 156.291339,287.532934 207.724409,287.532934 L207.905512,287.532934 C214.062992,287.532934 216.23622,280.299401 211.527559,276.863473 L211.527559,276.863473 Z" id="Shape" fill="#A267C1"></path>
                <path d="M66.1023622,195.847904 C66.1023622,187.891018 65.015748,180.476647 63.2047244,172.881437 L111.559055,172.881437 C113.370079,180.476647 114.456693,187.891018 114.456693,195.847904 C114.456693,247.205988 72.8031496,288.798802 21.3700787,288.798802 L21.1889764,288.798802 C14.8503937,288.798802 12.6771654,280.299401 18.2913386,277.044311 C46.7244094,261.311377 66.1023622,230.749701 66.1023622,195.847904 L66.1023622,195.847904 Z" id="Shape" fill="#B06DCC"></path>
                <path d="M17.2047244,276.863473 C18.1102362,277.586826 19.3779528,278.491018 20.8267717,278.491018 L21.007874,278.491018 C70.6299213,278.491018 111.377953,239.791617 113.913386,190.784431 C113.913386,192.411976 114.094488,193.497006 114.094488,195.124551 C114.094488,246.482635 72.4409449,287.532934 21.007874,287.532934 L20.8267717,287.532934 C14.6692913,287.532934 12.496063,280.299401 17.2047244,276.863473 L17.2047244,276.863473 Z" id="Shape" fill="#A267C1"></path>
                <rect id="Rectangle-path" fill="#B06DCC" x="103.590551" y="175.232335" width="22.0944882" height="15.5520958"></rect>
            </g>
        </g>
    </g>
</svg>