<?xml version="1.0" encoding="UTF-8" standalone="no"?>
<svg width="345px" height="157px" viewBox="0 0 345 157" version="1.1" xmlns="http://www.w3.org/2000/svg" xmlns:xlink="http://www.w3.org/1999/xlink">
    <!-- Generator: Sketch 3.8.2 (29753) - http://www.bohemiancoding.com/sketch -->
    <title>Group</title>
    <desc>Created with Sketch.</desc>
    <defs></defs>
    <g id="Page-1" stroke="none" stroke-width="1" fill="none" fill-rule="evenodd">
        <g id="Desktop-Copy" transform="translate(-637.000000, -2032.000000)">
            <g id="Group" transform="translate(637.000000, 2032.000000)">
                <path d="M231.378065,128.847887 C231.378065,128.847887 291.375484,144.425352 342.641935,150.211268 C345.776129,150.656338 345.328387,155.107042 342.418065,155.107042 C320.254839,154.661972 288.465161,151.991549 245.258065,143.312676 C147.202581,123.729577 231.378065,128.847887 231.378065,128.847887 L231.378065,128.847887 Z" id="Shape" fill="#345F69"></path>
                <path d="M343.76129,152.659155 C321.598065,152.214085 289.808387,149.543662 246.60129,140.864789 C216.37871,134.856338 203.394194,131.073239 200.26,128.847887 C193.096129,130.183099 198.692903,133.966197 245.034194,143.090141 C288.24129,151.769014 320.030968,154.439437 342.194194,154.884507 C343.76129,154.884507 344.656774,153.549296 344.656774,152.43662 C344.432903,152.659155 344.209032,152.659155 343.76129,152.659155 L343.76129,152.659155 Z" id="Shape" fill="#010202" opacity="0.05"></path>
                <path d="M197.573548,98.3605634 C197.573548,152.659155 78.2503226,152.659155 78.2503226,98.3605634 C78.2503226,44.0619718 89.22,0 112.054839,0 C134.665806,0 197.573548,44.0619718 197.573548,98.3605634 L197.573548,98.3605634 Z" id="Shape" fill="#1D4B51"></path>
                <path d="M197.573548,98.3605634 C197.573548,152.659155 78.2503226,152.659155 78.2503226,98.3605634 C78.2503226,44.0619718 138.023871,0 160.634839,0 C183.469677,0 197.573548,44.0619718 197.573548,98.3605634 L197.573548,98.3605634 Z" id="Shape" fill="#E2EAB7"></path>
                <path d="M118.994839,93.0197183 C153.470968,93.0197183 247.496774,130.850704 247.496774,139.307042 C247.496774,147.76338 182.350323,161.783099 123.92,155.107042 C65.4896774,148.430986 -1.89548387,120.83662 0.343225806,113.938028 C2.80580645,106.816901 53.4006452,93.0197183 118.994839,93.0197183 L118.994839,93.0197183 Z" id="Shape" fill="#E2EAB7"></path>
                <path d="M73.9967742,95.0225352 C31.4612903,99.2507042 2.13419355,108.374648 0.343225806,113.715493 C0.119354839,114.383099 0.567096774,115.050704 1.23870968,115.940845 C8.17870968,109.709859 45.5651613,101.476056 73.9967742,95.0225352 L73.9967742,95.0225352 Z" id="Shape" fill="#345F69"></path>
                <path d="M157.052903,19.5830986 C179.216129,19.5830986 193.32,61.4197183 193.991613,113.715493 C196.230323,109.264789 197.573548,104.146479 197.573548,98.3605634 C197.573548,44.0619718 183.245806,0 160.634839,0 C138.471613,0 81.3845161,41.8366197 78.2503226,94.1323944 C91.9064516,51.1830986 137.8,19.5830986 157.052903,19.5830986 L157.052903,19.5830986 Z" id="Shape" fill="#345F69"></path>
                <ellipse id="Oval" fill="#345F69" cx="45.5651613" cy="104.146479" rx="17.6858065" ry="11.1267606"></ellipse>
                <path d="M46.2367742,96.5802817 C34.5954839,96.5802817 28.9987097,101.698592 28.9987097,107.707042 C28.9987097,113.938028 37.0580645,118.833803 47.1322581,118.833803 C52.9529032,118.833803 58.5496774,119.056338 61.46,114.383099 C64.3703226,109.932394 57.8780645,96.5802817 46.2367742,96.5802817 L46.2367742,96.5802817 Z" id="Shape" fill="#EBF6FB"></path>
                <ellipse id="Oval" fill="#1D4B51" cx="37.9535484" cy="107.707042" rx="5.59677419" ry="7.56619718"></ellipse>
                <ellipse id="Oval" fill="#EBF6FB" cx="35.4909677" cy="104.146479" rx="2.91032258" ry="4.0056338"></ellipse>
                <path d="M49.8187097,138.194366 C53.4006452,139.307042 56.9825806,140.419718 60.5645161,141.532394 C63.2509677,139.529577 65.0419355,136.414085 65.0419355,132.853521 C65.0419355,128.625352 62.3554839,124.842254 58.5496774,123.061972 C59.2212903,124.397183 59.4451613,125.732394 59.4451613,127.290141 C59.4451613,132.853521 55.1916129,137.304225 49.8187097,138.194366 L49.8187097,138.194366 Z" id="Shape" fill="#1D4B51"></path>
                <path d="M59.2212903,125.95493 L59.2212903,127.290141 C59.2212903,132.630986 54.9677419,137.08169 49.5948387,138.194366 C51.8335484,138.861972 54.0722581,139.529577 56.3109677,140.197183 C58.9974194,137.971831 60.7883871,134.856338 60.7883871,131.295775 C60.7883871,129.515493 60.3406452,127.735211 59.2212903,125.95493 L59.2212903,125.95493 Z" id="Shape" fill="#EBF6FB"></path>
                <path d="M241.676129,143.980282 C245.258065,142.2 247.272903,140.642254 247.272903,139.084507 C247.272903,134.188732 216.37871,119.723944 183.693548,108.152113 C204.96129,119.278873 227.124516,133.076056 241.676129,143.980282 L241.676129,143.980282 Z" id="Shape" fill="#345F69"></path>
                <path d="M232.497419,128.625352 C217.721935,136.859155 162.873548,146.205634 112.726452,140.642254 C72.2058065,135.969014 27.4316129,121.504225 4.37290323,110.377465 C2.13419355,111.712676 0.567096774,112.825352 0.343225806,113.938028 C-2.11935484,121.059155 65.4896774,148.653521 123.92,155.107042 C182.350323,161.783099 247.496774,147.76338 247.496774,139.307042 C247.496774,137.08169 241.676129,133.298592 232.497419,128.625352 L232.497419,128.625352 Z" id="Shape" fill="#010202" opacity="0.05"></path>
                <ellipse id="Oval" fill="#010202" opacity="0.05" cx="128.62129" cy="48.9577465" rx="7.6116129" ry="7.56619718"></ellipse>
                <ellipse id="Oval" fill="#010202" opacity="0.05" cx="168.694194" cy="50.7380282" rx="9.17870968" ry="9.12394366"></ellipse>
                <ellipse id="Oval" fill="#010202" opacity="0.05" cx="153.247097" cy="34.0478873" rx="6.49225806" ry="6.45352113"></ellipse>
                <ellipse id="Oval" fill="#010202" opacity="0.05" cx="146.754839" cy="55.4112676" rx="6.49225806" ry="6.45352113"></ellipse>
                <ellipse id="Oval" fill="#010202" opacity="0.05" cx="163.545161" cy="71.2112676" rx="6.49225806" ry="6.45352113"></ellipse>
                <ellipse id="Oval" fill="#010202" opacity="0.05" cx="121.009677" cy="66.0929577" rx="6.49225806" ry="6.45352113"></ellipse>
            </g>
        </g>
    </g>
</svg>