<?xml version="1.0" encoding="UTF-8" standalone="no"?>
<svg width="110px" height="71px" viewBox="0 0 110 71" version="1.1" xmlns="http://www.w3.org/2000/svg" xmlns:xlink="http://www.w3.org/1999/xlink">
    <!-- Generator: Sketch 3.8.2 (29753) - http://www.bohemiancoding.com/sketch -->
    <title>Group</title>
    <desc>Created with Sketch.</desc>
    <defs></defs>
    <g id="Page-1" stroke="none" stroke-width="1" fill="none" fill-rule="evenodd">
        <g id="wally_characters" transform="translate(-269.000000, -360.000000)">
            <g id="Capa_1">
                <g id="Group" transform="translate(269.000000, 360.000000)">
                    <path d="M107,62.6 C104.7,63.2 102.2,63.5 99.6,63.5 C92,63.5 85.3,60.6 81.2,56.2 C81.9,54.4 82.3,52.4 82.3,50.3 C82.3,38.1 70,26.4 54.9,26.4 C39.8,26.4 27.5,38.2 27.5,50.3 C27.5,52.4 27.9,54.4 28.6,56.2 C24.5,60.6 17.7,63.5 10.2,63.5 C7.6,63.5 5.2,63.2 2.8,62.6 C0.7,62 -0.6,64.9 1.2,66.1 C5.2,68.8 10.4,70.4 16.1,70.4 C23.3,70.4 29.7,67.8 33.9,63.7 C38.9,67.9 46.4,70.4 54.8,70.4 C63.2,70.4 70.7,68 75.7,63.7 C79.9,67.8 86.3,70.4 93.5,70.4 C99.2,70.4 104.4,68.8 108.4,66.1 C110.4,64.8 109.2,62 107,62.6 L107,62.6 Z" id="Shape" fill="#494949"></path>
                    <g transform="translate(22.000000, 0.000000)" id="Shape">
                        <g transform="translate(4.000000, 11.000000)" fill="#494949">
                            <path d="M10.7,0.8 C4.1,4.1 0,9.1 0,14.7 L0,14.7 C0,15.9 1.2,16.5 1.9,15.6 C3.4,13.7 5.6,11.9 8.4,10.5 C8.5,7 9.3,3.7 10.7,0.8 L10.7,0.8 Z"></path>
                            <path d="M47.2,0.8 C48.6,3.6 49.4,6.9 49.5,10.6 C52.3,12 54.5,13.8 56,15.7 C56.7,16.6 58,16 58,14.8 L58,14.8 C58,9.1 53.8,4.1 47.2,0.8 L47.2,0.8 Z"></path>
                        </g>
                        <path d="M58.3,22.4 C58.3,35.6 47,48.3 33,48.3 C19,48.3 7.7,35.6 7.7,22.4 C7.7,9.2 19,0.6 33,0.6 C46.9,0.6 58.3,9.2 58.3,22.4 L58.3,22.4 Z" fill="#5B5959"></path>
                        <path d="M22.2,32.6 C22.2,16.3 32.1,5.1 45,3 C41.4,1.5 37.3,0.6 33,0.6 C19,0.6 7.7,9.2 7.7,22.4 C7.7,32.8 14.8,43 24.7,46.8 C23.1,42.3 22.2,37.5 22.2,32.6 L22.2,32.6 Z" fill="#FFFFFF" opacity="0.15"></path>
                        <path d="M45.4,22.5 C38.9,22.5 33.5,27.4 32.9,33.6 C32.3,27.4 26.9,22.5 20.4,22.5 C15.2,22.5 10.7,25.6 8.8,30 C11.1,37.2 16.7,43.5 23.7,46.5 C25.3,46.1 26.8,45.3 28,44.4 C30.9,42.2 34.7,42.2 37.6,44.4 C38.9,45.4 40.4,46.1 42,46.5 C49.1,43.5 54.6,37.3 56.9,30.1 C55.1,25.6 50.7,22.5 45.4,22.5 L45.4,22.5 Z" fill="#918260"></path>
                        <g transform="translate(42.000000, 12.000000)">
                            <path d="M4.2,1 C2.9,2.3 5.3,2.8 6.3,4.9 C7.6,7.4 8.8,8.1 10,6.9 C11.3,5.6 12,3.5 10.3,1.9 C8.6,0.3 5.4,-0.2 4.2,1 L4.2,1 Z" fill="#918260"></path>
                            <path d="M1.1,1.3 C-0.5,2.9 2.6,3.7 4,6.4 C5.8,9.7 7.4,10.7 9,9.1 C10.6,7.5 11.4,4.8 9.2,2.6 C7,0.5 2.7,-0.3 1.1,1.3 L1.1,1.3 Z" fill="#333333"></path>
                        </g>
                        <path d="M37.8,28.4 C37.8,25.1 34.4,26 30.9,25.8 C29.3,25.7 28,26.9 28,28.5 C28,30.2 28.9,31.6 30.2,32.5 C31,33 31.5,33.9 31.5,34.9 L31.5,34.9 C31.5,37.6 32.1,39.8 32.9,39.8 C33.7,39.8 34.3,37.6 34.3,34.9 L34.3,34.9 C34.3,34 34.7,33.1 35.5,32.6 C36.9,31.6 37.8,30.1 37.8,28.4 L37.8,28.4 Z" fill="#333333"></path>
                        <g transform="translate(12.000000, 12.000000)">
                            <path d="M7.5,1 C8.8,2.3 6.4,2.8 5.4,4.9 C4.1,7.4 2.9,8.1 1.7,6.9 C0.4,5.6 -0.3,3.5 1.4,1.9 C3,0.3 6.3,-0.2 7.5,1 L7.5,1 Z" fill="#918260"></path>
                            <path d="M10.6,1.3 C12.2,2.9 9.1,3.7 7.7,6.4 C5.9,9.7 4.3,10.7 2.7,9.1 C1.1,7.5 0.3,4.8 2.5,2.6 C4.7,0.5 9,-0.3 10.6,1.3 L10.6,1.3 Z" fill="#333333"></path>
                        </g>
                        <path d="M21.1,14.8 C21.7,14.8 22.2,14.9 22.8,15 C23.2,14.5 23.3,14 22.7,13.3 C21.1,11.7 16.8,12.5 14.6,14.7 C13,16.3 13,18.2 13.8,19.7 C14.8,16.9 17.7,14.8 21.1,14.8 L21.1,14.8 Z" fill="#FFFFFF" opacity="0.05"></path>
                        <path d="M44.8,16.8 C45.9,15.3 47.3,14 48.9,13.1 C46.8,12.2 44.3,12.1 43.1,13.2 C41.8,14.6 43.3,15.3 44.8,16.8 L44.8,16.8 Z" fill="#FFFFFF" opacity="0.05"></path>
                        <g transform="translate(0.000000, 28.000000)" fill="#494949">
                            <g>
                                <path d="M0.7,6.9 C0.6,6.9 0.5,6.9 0.4,6.8 C0.2,6.6 0.2,6.4 0.4,6.2 C6.9,-0.3 16.4,-1.4 21.6,3.8 C21.8,4 21.8,4.2 21.6,4.4 C21.4,4.6 21.2,4.6 21,4.4 C16.1,-0.5 7.1,0.6 1,6.8 C0.9,6.9 0.8,6.9 0.7,6.9 L0.7,6.9 Z"></path>
                                <path d="M3,13.2 C2.9,13.2 2.8,13.2 2.7,13.1 C2.5,12.9 2.5,12.7 2.7,12.5 C5.5,9.6 8.9,7.7 12.2,6.9 C15.6,6.2 18.5,6.8 20.4,8.7 C20.6,8.9 20.6,9.1 20.4,9.3 C20.2,9.5 20,9.5 19.8,9.3 C18.1,7.6 15.5,7.1 12.4,7.7 C9.2,8.4 6,10.3 3.3,13 C3.2,13.1 3.1,13.2 3,13.2 L3,13.2 Z"></path>
                                <path d="M2.4,9.9 C2.3,9.9 2.2,9.9 2.1,9.8 C1.9,9.6 1.9,9.4 2.1,9.2 C4.6,6.6 7.6,4.8 10.5,4.1 C13.5,3.3 16,3.8 17.6,5.4 C17.8,5.6 17.8,5.8 17.6,6 C17.4,6.2 17.2,6.2 17,6 C15.6,4.6 13.4,4.2 10.7,4.9 C8,5.6 5.1,7.3 2.7,9.8 C2.6,9.9 2.5,9.9 2.4,9.9 L2.4,9.9 Z"></path>
                            </g>
                            <g transform="translate(44.000000, 0.000000)">
                                <path d="M21.2,6.9 C21.3,6.9 21.4,6.9 21.5,6.8 C21.7,6.6 21.7,6.4 21.5,6.2 C15,-0.3 5.5,-1.4 0.3,3.8 C0.1,4 0.1,4.2 0.3,4.4 C0.5,4.6 0.7,4.6 0.9,4.4 C5.8,-0.5 14.8,0.6 20.9,6.8 C21,6.9 21.1,6.9 21.2,6.9 L21.2,6.9 Z"></path>
                                <path d="M18.9,13.2 C19,13.2 19.1,13.2 19.2,13.1 C19.4,12.9 19.4,12.7 19.2,12.5 C16.4,9.6 13,7.7 9.7,6.9 C6.3,6.2 3.4,6.8 1.5,8.7 C1.3,8.9 1.3,9.1 1.5,9.3 C1.7,9.5 1.9,9.5 2.1,9.3 C3.8,7.6 6.4,7.1 9.5,7.7 C12.7,8.4 15.9,10.3 18.6,13 C18.7,13.1 18.8,13.2 18.9,13.2 L18.9,13.2 Z"></path>
                                <path d="M19.5,9.9 C19.6,9.9 19.7,9.9 19.8,9.8 C20,9.6 20,9.4 19.8,9.2 C17.3,6.6 14.3,4.8 11.4,4.1 C8.4,3.3 5.9,3.8 4.3,5.4 C4.1,5.6 4.1,5.8 4.3,6 C4.5,6.2 4.7,6.2 4.9,6 C6.3,4.6 8.5,4.2 11.2,4.9 C13.9,5.6 16.8,7.3 19.2,9.8 C19.3,9.9 19.4,9.9 19.5,9.9 L19.5,9.9 Z"></path>
                            </g>
                        </g>
                    </g>
                    <path d="M37.4,66 C42.2,68.8 48.3,70.4 55,70.4 C61.7,70.4 67.8,68.8 72.6,66 C69.4,62.7 62.8,60.4 55,60.4 C47.2,60.4 40.5,62.7 37.4,66 L37.4,66 Z" id="Shape" fill="#665B46"></path>
                </g>
            </g>
        </g>
    </g>
</svg>