<?xml version="1.0" encoding="UTF-8" standalone="no"?>
<svg width="140px" height="66px" viewBox="0 0 140 66" version="1.1" xmlns="http://www.w3.org/2000/svg" xmlns:xlink="http://www.w3.org/1999/xlink">
    <!-- Generator: Sketch 3.8.2 (29753) - http://www.bohemiancoding.com/sketch -->
    <title>Group</title>
    <desc>Created with Sketch.</desc>
    <defs></defs>
    <g id="Page-1" stroke="none" stroke-width="1" fill="none" fill-rule="evenodd">
        <g id="wally_characters" transform="translate(-268.000000, -238.000000)">
            <g id="Capa_1">
                <g id="Group" transform="translate(268.000000, 238.000000)">
                    <g transform="translate(61.000000, 25.000000)" id="Shape">
                        <path d="M23.5,14.8 C18.9,18.1 13,14.9 10.2,7.5 C9.2,4.9 6.3,-1.6 2.7,2 C-0.9,5.6 0.3,13.9 5.9,18.7 C11.5,23.4 19.1,23.7 22.9,19.2 C23.8,18.1 24.5,16.8 24.8,15.4 C24.9,14.5 24.2,14.2 23.5,14.8 L23.5,14.8 L23.5,14.8 Z" fill="#3D3D3D"></path>
                        <path d="M23.5,14.8 L23.5,14.8 C18.9,18.1 13,14.9 10.2,7.5 C9.3,4.9 6.4,-1.5 2.8,1.8 C2.1,5.8 3.8,11.2 7.9,14.6 C13.4,19.3 20.9,19.6 24.7,15.2 C24.8,14.5 24.2,14.3 23.5,14.8 L23.5,14.8 Z" fill="#A7AFAF"></path>
                    </g>
                    <g transform="translate(88.000000, 22.000000)" id="Shape">
                        <path d="M0.9,5 C4.4,20.2 23.6,28.6 35.5,29.9 C58.1,32.4 52.7,5.8 36.8,12.3 C20.9,18.8 -2.6,-10.3 0.9,5 L0.9,5 Z" fill="#3D3D3D"></path>
                        <path d="M1.1,5.9 C9.3,10.7 23,20.9 33.7,16.5 C43,12.7 49,19.2 48.8,25.7 C53.7,19.1 47.7,7.7 36.7,12.2 C20.8,18.7 -2.6,-10.3 0.8,4.9 C0.9,5.3 1,5.6 1.1,5.9 L1.1,5.9 Z" fill="#A7AFAF"></path>
                    </g>
                    <g transform="translate(87.000000, 20.000000)" id="Shape">
                        <path d="M0.5,5.1 C-0.1,23.3 19.2,38.4 32.2,43.4 C57,52.9 58.8,21.2 38.9,23.9 C19,26.6 1.1,-13.1 0.5,5.1 L0.5,5.1 Z" fill="#4A494A"></path>
                        <path d="M0.5,6.3 C8.3,14.1 20.9,29.7 34.2,27.9 C45.8,26.3 50.7,35.5 48.6,42.7 C56.1,36.7 52.7,22 38.9,23.9 C19,26.6 1.1,-13.2 0.5,5.1 L0.5,6.3 L0.5,6.3 Z" fill="#D6E0DF"></path>
                    </g>
                    <g id="Shape">
                        <path d="M41.5,6.7 C47.2,11.9 50.3,17 57.7,18.5 C61.2,19.2 61.2,32.6 54.9,32 C48.6,31.3 42.9,24.9 34.3,26.8 C26.8,28.4 41.5,6.7 41.5,6.7 L41.5,6.7 Z" fill="#818D8C"></path>
                        <path d="M45.1,14.3 C45.1,22.2 38.5,27.8 26.2,27.8 C19.2,27.8 13.6,24.1 5.5,21.5 C0.8,20 0.5,13.5 0.5,11.4 C0.5,6.5 10.5,0.9 22.8,0.9 C35.1,0.9 45.1,4.9 45.1,14.3 L45.1,14.3 Z" fill="#A7AFAF"></path>
                        <path d="M27.6,9.8 C24.8,18.6 11.9,19.8 10.7,14.9 C9.5,10 13.3,6.8 18.7,5.4 C24.1,4 29.1,4.9 27.6,9.8 L27.6,9.8 Z" fill="#D6E0DF"></path>
                        <path d="M26.2,9.4 C24.5,17 13.7,19 12.3,14.9 C10.9,10.8 13.9,7.9 18.4,6.3 C22.8,4.8 27.1,5.2 26.2,9.4 L26.2,9.4 Z" fill="#08090A"></path>
                        <path d="M13.1,9.7 C13.8,11 15.2,11.9 16.7,11.9 C19,11.9 20.8,10 20.8,7.8 C20.8,7.1 20.6,6.4 20.3,5.9 C19.6,6 18.9,6.2 18.2,6.5 C16.1,7.1 14.2,8.2 13.1,9.7 L13.1,9.7 Z" fill="#FFFFFF"></path>
                        <g transform="translate(0.000000, 1.000000)" fill="#4A494A">
                            <path d="M33.3,6.9 L31.2,7.4 C31,7.5 30.8,7.7 30.8,7.9 L30.6,10 C30.6,10.2 30.7,10.4 30.8,10.5 L35.8,14.8 C35.9,14.9 36.1,15 36.3,14.9 L37.7,14.5 C38,14.4 38.2,14.1 38.1,13.8 L37.1,9.3 C37.1,9.2 37,9 36.8,8.9 L33.7,6.9 C33.6,6.9 33.4,6.8 33.3,6.9 L33.3,6.9 Z"></path>
                            <path d="M26.8,13.1 L25.8,13.8 C25.4,14.1 25.3,14.6 25.6,15 L28.9,18.8 C29.2,19.1 29.7,19.2 30,18.9 L31.9,17.4 C32.3,17.1 32.3,16.4 31.9,16.1 L27.7,13 C27.5,12.9 27.1,12.9 26.8,13.1 L26.8,13.1 Z"></path>
                            <path d="M22.6,17.5 L17.7,18.2 C17.1,18.3 16.9,19.1 17.5,19.4 L23,22.6 C23.2,22.7 23.5,22.7 23.7,22.6 L25.6,21.3 C25.9,21.1 26,20.6 25.7,20.3 L23.3,17.7 C23.1,17.5 22.8,17.5 22.6,17.5 L22.6,17.5 Z"></path>
                            <path d="M34.4,17.3 L32.1,19.9 C31.9,20.2 31.8,20.6 32,20.9 L33.2,22.9 C33.4,23.2 33.7,23.3 34,23.3 L36,23.1 C36.2,23.1 36.4,23 36.5,22.8 L37.7,21.4 C37.9,21.1 38,20.7 37.7,20.4 L35.6,17.4 C35.4,16.9 34.7,16.9 34.4,17.3 L34.4,17.3 Z"></path>
                            <path d="M40,10.1 L42.9,11 C43.1,11.1 43.3,11.3 43.3,11.5 L43.7,15.5 C43.7,15.7 43.6,16 43.4,16.1 L42.9,16.4 C42.7,16.5 42.5,16.5 42.3,16.3 L40.3,14.7 C40.2,14.6 40.1,14.5 40.1,14.4 L39.3,10.8 C39.2,10.3 39.6,9.9 40,10.1 L40,10.1 Z"></path>
                            <path d="M28.6,22.7 L27,22.2 C26.8,22.1 26.5,22.2 26.4,22.3 L25,23.5 C24.7,23.8 24.7,24.2 25,24.5 L26,25.4 C26.2,25.5 26.4,25.6 26.6,25.5 L28.9,25 C29.3,24.9 29.5,24.5 29.4,24.2 L29.1,23.1 C29,22.9 28.8,22.8 28.6,22.7 L28.6,22.7 Z"></path>
                            <path d="M37.3,5.1 L37.4,5.2 L39.7,6.4 C40,6.5 40.3,6.4 40.4,6 L40.5,4.6 L40.5,4.4 C39.1,3.4 37.4,2.5 35.5,1.8 L35.3,1.9 C35,2 35,2.4 35.2,2.6 L37.3,5.1 L37.3,5.1 Z"></path>
                            <path d="M30.8,5.4 L33.3,1.4 C33.3,1.3 33.4,1.3 33.4,1.2 C30.5,0.4 27.2,2.84217094e-14 23.7,2.84217094e-14 L23.4,0.2 C23.1,0.4 23.1,0.9 23.4,1.1 L30,5.6 C30.3,5.7 30.7,5.7 30.8,5.4 L30.8,5.4 Z"></path>
                            <path d="M21.2,2 C21.7,1.7 21.5,0.9 20.9,0.8 C20.9,0.8 13,1.5 9,4.6 C5.2,7.7 2.3,10.9 2.3,10.9 C2.2,10.9 2.2,11 2.1,11 L0.4,11.1 C0.4,12 0.5,13.2 0.8,14.5 L4,15.3 C4.2,15.4 4.4,15.3 4.6,15.1 C4.6,15.1 6.7,11.1 9.6,7.7 C12.5,4.3 21.2,2 21.2,2 L21.2,2 Z"></path>
                        </g>
                    </g>
                    <g transform="translate(50.000000, 27.000000)" id="Shape">
                        <path d="M35.2,21.8 C28.1,26.9 19,21.9 14.8,10.6 C13.3,6.6 8.8,-3.4 3.3,2.1 C-2.2,7.6 -0.4,20.5 8.2,27.7 C16.8,34.9 28.4,35.3 34.3,28.5 C35.7,26.8 36.7,24.8 37.2,22.7 C37.4,21.4 36.3,20.9 35.2,21.8 C35.2,21.7 35.2,21.8 35.2,21.8 L35.2,21.8 Z" fill="#4A494A"></path>
                        <path d="M35.2,21.7 C35.2,21.7 35.2,21.8 35.2,21.7 C28.1,26.8 19,21.8 14.8,10.5 C13.3,6.6 8.9,-3.3 3.5,1.8 C2.4,8 5.1,16.2 11.3,21.5 C19.8,28.7 31.3,29.1 37.2,22.5 C37.3,21.4 36.3,21 35.2,21.7 L35.2,21.7 Z" fill="#D6E0DF"></path>
                    </g>
                    <g transform="translate(48.000000, 14.000000)" id="Shape">
                        <path d="M77.3,17.3 C73.4,24.8 57.8,31.9 37.1,29.4 C16.4,26.9 0.2,14.1 0.7,10.3 C1.8,1 26.5,-1 41.6,0.5 C58.1,2.1 81.1,9.8 77.3,17.3 L77.3,17.3 Z" fill="#616160"></path>
                        <path d="M74.7,10.9 C67.7,16.7 56.2,23.5 40.6,22.1 C13.7,19.6 11.9,11.7 9.7,2.7 C4.6,4.3 1,6.8 0.5,10.2 C1.27675648e-15,14 16.2,26.8 36.9,29.3 C57.6,31.8 73.3,24.7 77.1,17.2 C78.4,15.1 77.3,13 74.7,10.9 L74.7,10.9 Z" fill="#3D3D3D"></path>
                        <path d="M38.2,27.2 C20.8,25.3 6.5,14.9 1.1,8.5 C0.8,9.1 0.6,9.6 0.6,10.3 C0.1,14.1 16.3,26.9 37,29.4 C57.7,31.9 73.4,24.8 77.2,17.3 C77.3,17.1 77.4,16.8 77.5,16.6 C70.1,22.9 55.7,29.1 38.2,27.2 L38.2,27.2 Z" fill="#D6E0DF"></path>
                    </g>
                    <path d="M100.8,16.3 L99.1,22.4 C98.8,23.4 99.4,24.4 100.4,24.7 L102.7,25.3 C103.9,25.6 105,24.7 105,23.5 L105,22.5 C105,22.2 105.1,21.9 105.2,21.6 L107.2,17.9 C105.2,17.4 103,16.8 100.8,16.3 L100.8,16.3 Z" id="Shape" fill="#3D3D3D"></path>
                    <path d="M90.8,14.6 L89.6,23.2 C89.5,23.7 89.7,24.3 90.1,24.7 L92.3,27.1 C93.1,28 94.6,27.9 95.3,26.8 L96.9,24.1 C97,23.9 97.1,23.7 97.1,23.5 L98.3,15.9 C95.7,15.3 93.2,14.9 90.8,14.6 L90.8,14.6 Z" id="Shape" fill="#3D3D3D"></path>
                    <path d="M87.8,22.7 L89.1,15.1 L89.1,14.4 C87.6,14.3 86,14.1 84.3,14.1 L80.3,22.3 C80,22.8 80.1,23.5 80.4,24 L81,25 C81.5,25.8 82.5,26.2 83.4,25.7 L86.8,24.1 C87.3,23.8 87.7,23.3 87.8,22.7 L87.8,22.7 Z" id="Shape" fill="#3D3D3D"></path>
                    <path d="M69.7,14.5 L70.7,17.5 C70.8,17.9 70.8,18.2 70.7,18.6 L70.4,19.6 C70.1,20.7 70.9,21.9 72.1,21.9 L76.2,22.1 C76.9,22.1 77.6,21.8 77.9,21.1 L81.1,15.1 C81.3,14.8 81.3,14.4 81.3,14.1 C77.7,13.9 73.6,14.1 69.7,14.5 L69.7,14.5 Z" id="Shape" fill="#3D3D3D"></path>
                    <path d="M108.9,31.2 C113.8,29.2 117.9,26.6 121.4,23.9 C118.5,21.9 114.3,20.1 109.6,18.6 L107.5,21.9 C107.3,22.2 107.2,22.5 107.2,22.9 L107.2,26.9 C107.2,27.2 107.3,27.4 107.4,27.7 L108.9,31.2 L108.9,31.2 Z" id="Shape" fill="#3D3D3D"></path>
                    <path d="M106.3,32.2 L104.4,28.9 C104.2,28.5 103.8,28.2 103.4,28.1 L99.5,26.9 C98.7,26.6 97.8,27 97.3,27.8 L95.8,30.5 C95.6,30.8 95.6,31.1 95.6,31.4 L95.6,34.6 C99.4,34.2 103,33.3 106.3,32.2 L106.3,32.2 Z" id="Shape" fill="#3D3D3D"></path>
                    <path d="M87.3,34.6 C89.3,34.8 91.2,34.8 93.1,34.7 L92.5,31.1 C92.4,30.6 92.2,30.2 91.8,29.9 L88.5,27.5 C87.9,27 87,27 86.3,27.5 L83.2,29.7 C82.9,29.9 82.7,30.2 82.6,30.5 L81.2,34 C83.1,34.2 85.2,34.4 87.3,34.6 L87.3,34.6 Z" id="Shape" fill="#3D3D3D"></path>
                    <path d="M78.2,33.3 L79,29.9 C79.1,29.6 79.1,29.2 79,28.9 L78,26.1 C77.7,25.4 77,24.8 76.3,24.8 L70.9,24.8 C70.5,24.8 70,25 69.7,25.2 L66,28.4 L65.7,28.7 C68.9,30.7 73,32.2 78.2,33.3 L78.2,33.3 Z" id="Shape" fill="#3D3D3D"></path>
                    <path d="M64.4,25.7 L66.8,23.6 C67,23.4 67.1,23.3 67.2,23.1 L69.1,19.4 C69.3,19 69.4,18.5 69.2,18.1 L68.3,14.8 C64.9,15.2 61.7,15.8 58.9,16.6 C60,19.6 61.6,22.8 64.4,25.7 L64.4,25.7 Z" id="Shape" fill="#3D3D3D"></path>
                </g>
            </g>
        </g>
    </g>
</svg>