<?xml version="1.0" encoding="UTF-8" standalone="no"?>
<svg width="119px" height="147px" viewBox="0 0 119 147" version="1.1" xmlns="http://www.w3.org/2000/svg" xmlns:xlink="http://www.w3.org/1999/xlink">
    <!-- Generator: Sketch 3.8.2 (29753) - http://www.bohemiancoding.com/sketch -->
    <title>Group</title>
    <desc>Created with Sketch.</desc>
    <defs></defs>
    <g id="Page-1" stroke="none" stroke-width="1" fill="none" fill-rule="evenodd">
        <g id="Desktop-Copy" transform="translate(-822.000000, -309.000000)">
            <g id="Group" transform="translate(822.000000, 309.000000)">
                <g transform="translate(7.444948, 51.320948)" id="Shape">
                    <path d="M80.0976907,64.0087212 C86.4258969,64.0087212 94.1190103,48.5327248 96.4765773,41.2280545 C97.5933196,38.0090472 100.074969,37.6376233 100.447216,41.2280545 C101.067629,47.1708371 93.1263505,67.3515364 80.0976907,67.3515364" fill="#332708"></path>
                    <path d="M18.9250309,27.7329856 C30.0924536,27.7329856 22.3993402,87.1608118 19.5454433,90.0083952 C16.6915464,92.8559785 3.53880412,92.7321706 0.808989691,90.0083952 C-1.79674227,87.2846198 7.75760825,27.7329856 18.9250309,27.7329856 L18.9250309,27.7329856 Z" fill="#F2C255"></path>
                    <path d="M18.9250309,27.7329856 C17.9323711,27.7329856 17.0637938,28.2282175 16.071134,28.9710653 C25.0050722,34.2948081 17.8082887,88.0274676 15.0784742,90.751243 C14.5821443,91.2464749 13.961732,91.6178988 13.0931546,91.8655148 C15.9470515,91.6178988 18.428701,90.998859 19.5454433,89.8845872 C22.3993402,87.1608118 30.2165361,27.7329856 18.9250309,27.7329856 L18.9250309,27.7329856 Z" fill="#332708" opacity="0.25"></path>
                    <path d="M42.3766186,0.495231885 C44.1137732,9.03798191 49.2011546,40.2375907 74.3898969,55.5897791 C99.5786392,70.9419676 66.572701,82.332301 58.7555052,82.332301 C39.1504742,82.332301 16.071134,58.5611705 16.071134,28.9710653 C16.071134,-0.619039857 42.3766186,0.495231885 42.3766186,0.495231885 L42.3766186,0.495231885 Z" fill="#F2C255"></path>
                    <path d="M42.6247835,1.60950363 C38.033732,7.7999022 35.3039175,15.5998044 35.3039175,24.0187464 C35.3039175,44.3232538 51.0623918,60.7897139 70.5433402,60.7897139 C73.893567,60.7897139 77.1197113,60.2944821 80.0976907,59.4278263 C78.608701,58.1897465 76.7474639,56.9516668 74.5139794,55.5897791 C50.1938144,40.8566306 44.6101031,11.3903334 42.6247835,1.60950363 L42.6247835,1.60950363 Z" fill="#332708"></path>
                    <path d="M32.822268,32.3138805 C24.8809897,22.9044747 22.5234227,90.2560111 25.6254845,93.3512104 C28.7275464,96.4464097 42.9970309,96.1987938 45.9750103,93.3512104 C48.8289072,90.5036271 52.179134,55.4659712 32.822268,32.3138805 L32.822268,32.3138805 Z" fill="#F2C255"></path>
                    <path d="M41.7562062,46.7994132 C47.464,67.4753444 44.1137732,88.2750836 41.2598763,95.332138 C43.3692784,94.960714 45.2305155,94.3416742 45.9750103,93.4750184 C48.3325773,91.1226669 50.9383093,67.7229603 41.7562062,46.7994132 L41.7562062,46.7994132 Z" fill="#332708" opacity="0.25"></path>
                    <path d="M74.3898969,55.4659712 C58.2591753,45.6851414 50.4419794,29.4662972 46.3472577,16.7140761 C44.4860206,36.8947755 44.7341856,61.4087538 69.6747629,79.4847176 C80.7181031,75.3990546 92.3818557,66.3610727 74.3898969,55.4659712 L74.3898969,55.4659712 Z" fill="#000000" opacity="0.25"></path>
                    <path d="M83.6960825,62.2754096 C66.0763711,47.0470291 58.7555052,52.7421958 56.6461031,57.4468987 C54.536701,62.1516016 52.7995464,89.3893553 55.6534433,91.3702829 C58.5073402,93.3512104 74.2658144,92.9797865 75.7548041,90.627435 C77.2437938,88.3988916 77.2437938,84.9322684 77.2437938,84.9322684 C77.2437938,84.9322684 90.1483711,67.7229603 83.6960825,62.2754096 L83.6960825,62.2754096 Z" fill="#F2C255"></path>
                    <path d="M69.9229278,64.751569 C69.9229278,64.751569 75.6307216,74.5323988 77.3678763,84.9322684 C77.3678763,84.9322684 79.4772784,82.084685 81.5866804,78.3704459 C75.3825567,68.2181922 69.9229278,64.751569 69.9229278,64.751569 L69.9229278,64.751569 Z" fill="#332708" opacity="0.25"></path>
                </g>
                <g transform="translate(18.612371, 66.177905)" id="Shape">
                    <path d="M5.02779381,20.9235472 L5.02779381,20.9235472 C1.67756701,19.9330834 -0.307752577,16.4664602 0.684907216,13.2474529 C0.684907216,13.2474529 7.5094433,-0.495231885 10.8596701,0.371423914 L10.8596701,0.371423914 C14.2098969,1.36188769 13.5894845,13.4950689 12.8449897,16.5902682 C12.1004948,19.6854674 8.37802062,21.9140109 5.02779381,20.9235472 L5.02779381,20.9235472 Z" fill="#C1270E"></path>
                    <path d="M9.86701031,20.3045073 C3.29063918,19.3140435 2.54614433,8.91417394 4.77962887,6.19039857 L4.77962887,6.19039857 C2.54614433,9.65702177 0.684907216,13.2474529 0.684907216,13.2474529 C-0.307752577,16.5902682 1.67756701,20.0568914 5.02779381,20.9235472 L5.02779381,20.9235472 C6.76494845,21.418779 8.50210309,21.0473551 9.86701031,20.3045073 L9.86701031,20.3045073 Z" fill="#FF9292" opacity="0.1"></path>
                    <path d="M9.24659794,7.7999022 C8.12985567,12.1331812 5.89637113,16.3426522 5.89637113,16.3426522 C5.89637113,16.3426522 6.14453608,16.8378841 6.51678351,16.5902682 C6.76494845,16.3426522 9.12251546,12.1331812 9.24659794,7.7999022 L9.24659794,7.7999022 Z" fill="#332708" opacity="0.1"></path>
                    <path d="M9.12251546,7.67609422 C8.0057732,12.0093732 5.77228866,16.2188442 5.77228866,16.2188442 C5.77228866,16.2188442 6.02045361,16.7140761 6.39270103,16.4664602 C6.76494845,16.2188442 8.99843299,12.0093732 9.12251546,7.67609422 L9.12251546,7.67609422 Z" fill="#FF9292" opacity="0.5"></path>
                    <path d="M12.8449897,8.54275002 C8.50210309,7.18086234 10.6115052,18.0759638 6.14453608,21.1711631 C9.12251546,21.418779 12.1004948,19.4378515 12.8449897,16.5902682 C13.2172371,15.2283805 13.4654021,11.8855653 13.4654021,8.666558 C13.2172371,8.666558 12.9690722,8.54275002 12.8449897,8.54275002 L12.8449897,8.54275002 Z" fill="#332708" opacity="0.1"></path>
                </g>
                <g>
                    <path d="M10.3633402,31.1402488 L15.4507216,72.7397272 C15.6988866,75.5873105 17.5601237,77.939662 20.1658557,78.9301257 L20.1658557,78.9301257 C33.070433,83.8824446 47.7121649,80.7872453 57.6387629,71.0064156 L57.6387629,71.0064156 C59.6240825,69.025488 60.3685773,66.0540967 59.5,63.4541293 L47.3399175,23.4641546 C45.7268454,18.6356437 42.2525361,14.6737886 37.785567,12.4452451 L37.785567,12.4452451 C29.8442887,8.48339004 20.2899381,10.5881256 14.7062268,17.397564 L14.7062268,17.397564 C11.356,21.2356111 9.86701031,26.1879299 10.3633402,31.1402488 L10.3633402,31.1402488 Z" id="Shape" fill="#F2C255"></path>
                    <path d="M48.7048247,64.1969772 C50.069732,70.6349917 45.9750103,76.8253902 39.5227216,78.1872779 C33.070433,79.5491656 26.8663093,75.5873105 25.5014021,69.025488 C24.2605773,62.7112815 47.464,57.8827706 48.7048247,64.1969772 L48.7048247,64.1969772 Z" id="Shape" fill="#332708"></path>
                    <ellipse id="Oval" fill="#332708" cx="41.1357938" cy="28.4164734" rx="3.47430928" ry="3.4666232"></ellipse>
                    <ellipse id="Oval" fill="#332708" cx="17.9323711" cy="33.3687923" rx="3.47430928" ry="3.4666232"></ellipse>
                    <path d="M59.5,63.4541293 L47.3399175,23.4641546 C45.7268454,18.6356437 42.2525361,14.6737886 37.785567,12.4452451 L37.785567,12.4452451 C36.7929072,11.9500132 35.8002474,11.5785893 34.8075876,11.2071654 C38.033732,13.5595169 40.5153814,16.9023321 41.8802887,20.7403792 L54.0403711,60.730354 C54.9089485,63.3303214 54.1644536,66.3017127 52.179134,68.2826402 L52.179134,68.2826402 C42.9970309,77.3206221 29.8442887,80.5396294 17.5601237,77.0730062 C18.3046186,77.815854 19.1731959,78.4348939 20.2899381,78.8063178 L20.2899381,78.8063178 C33.1945155,83.7586366 47.8362474,80.6634373 57.7628454,70.8826076 L57.7628454,70.8826076 C59.6240825,69.025488 60.3685773,66.1779047 59.5,63.4541293 L59.5,63.4541293 Z" id="Shape" fill="#332708" opacity="0.1"></path>
                    <path d="M44.4860206,0.807295813 C41.1357938,-0.802207814 37.1651546,0.683487842 34.9316701,4.27391901 C32.3259381,8.60719801 30.3406186,18.8832596 30.3406186,18.8832596 L40.6394639,18.3880277 L41.3839588,13.3119009 C45.2305155,14.6737886 54.2885361,17.273756 54.1644536,15.5404444 C54.1644536,12.940477 47.9603299,2.41679944 44.4860206,0.807295813 L44.4860206,0.807295813 Z" id="Shape" fill="#F2C255"></path>
                    <path d="M3.78696907,9.47385381 C6.26861856,6.62627047 10.4874227,6.37865452 13.961732,8.73100598 C18.0564536,11.5785893 24.0124124,20.2451473 24.0124124,20.2451473 L14.3339794,23.9593865 L11.6041649,19.6261075 C8.62618557,22.3498828 1.42940206,28.4164734 0.808989691,26.8069698 C-0.0595876289,24.3308104 1.18123711,12.3214372 3.78696907,9.47385381 L3.78696907,9.47385381 Z" id="Shape" fill="#F2C255"></path>
                    <path d="M54.2885361,15.5404444 C54.1644536,12.940477 47.9603299,2.41679944 44.4860206,0.807295813 C44.2378557,0.683487842 44.1137732,0.683487842 43.8656082,0.559679871 C46.8435876,3.28345524 49.5734021,8.35958207 50.5660619,10.9595495 C51.4346392,13.3119009 52.7995464,15.0452125 52.7995464,16.0356763 C53.7922062,16.1594843 54.2885361,15.9118683 54.2885361,15.5404444 L54.2885361,15.5404444 Z" id="Shape" fill="#332708" opacity="0.25"></path>
                    <path d="M36.7929072,10.8357415 C35.8002474,10.3405096 34.1871753,15.5404444 36.4206598,18.6356437 C38.6541443,21.730843 47.7121649,24.4546183 47.7121649,24.4546183 L47.464,23.4641546 C46.3472577,19.9975314 44.2378557,17.0261401 41.5080412,14.7975966 L41.7562062,13.3119009 C39.5227216,12.5690531 37.785567,11.3309734 36.7929072,10.8357415 L36.7929072,10.8357415 Z" id="Shape" fill="#332708" opacity="0.05"></path>
                    <path d="M20.786268,20.2451473 C19.4213608,17.149948 18.428701,16.1594843 15.4507216,14.4261727 C14.5821443,16.2832922 11.6041649,19.5022995 11.6041649,19.5022995 L12.3486598,20.7403792 C10.7355876,23.9593865 9.99109278,27.5498176 10.3633402,31.1402488 L10.6115052,33.2449843 C14.9543918,29.7783611 21.9030103,23.0927307 20.786268,20.2451473 L20.786268,20.2451473 Z" id="Shape" fill="#332708" opacity="0.05"></path>
                </g>
                <path d="M102.060289,86.9776439 C102.060289,86.9776439 102.060289,87.1014519 102.060289,86.9776439 C101.936206,87.1014519 101.936206,87.1014519 101.936206,87.2252598 C101.936206,87.3490678 101.812124,87.3490678 101.812124,87.4728758 C101.688041,87.5966837 101.688041,87.7204917 101.563959,87.8442997 C101.439876,88.0919156 101.315794,88.3395316 101.067629,88.7109555 C100.943546,88.8347635 100.943546,89.0823794 100.819464,89.2061874 C100.695381,89.3299953 100.695381,89.5776113 100.571299,89.7014193 C100.447216,89.8252272 100.447216,90.0728432 100.323134,90.1966511 C100.199052,90.3204591 100.199052,90.5680751 100.074969,90.691883 C99.9508866,90.815691 99.9508866,91.0633069 99.9508866,91.1871149 C99.9508866,91.3109229 99.8268041,91.4347309 99.8268041,91.6823468 L99.8268041,91.9299627 L99.8268041,92.0537707 C99.8268041,92.0537707 99.8268041,92.0537707 99.8268041,92.1775787 C99.8268041,92.1775787 99.8268041,92.1775787 99.8268041,92.3013867 C99.8268041,92.3013867 99.8268041,92.3013867 99.8268041,92.4251946 L99.8268041,92.5490026 L99.8268041,92.6728106 L99.8268041,92.7966185 L99.8268041,92.9204265 C99.8268041,92.9204265 99.8268041,92.9204265 99.7027216,92.9204265 L99.5786392,92.7966185 L99.4545567,92.6728106 L99.3304742,92.5490026 C99.3304742,92.4251946 99.2063918,92.4251946 99.2063918,92.3013867 C99.2063918,92.1775787 99.2063918,92.1775787 99.0823093,92.0537707 L99.0823093,91.8061548 L99.0823093,91.5585388 L99.0823093,90.939499 C99.0823093,90.691883 99.2063918,90.4442671 99.2063918,90.3204591 C99.3304742,90.0728432 99.3304742,89.8252272 99.4545567,89.7014193 C99.5786392,89.4538033 99.7027216,89.3299953 99.8268041,89.0823794 C99.9508866,88.8347635 100.074969,88.7109555 100.199052,88.5871475 C100.323134,88.4633395 100.447216,88.3395316 100.695381,88.2157236 C100.819464,88.0919156 101.067629,87.9681077 101.191711,87.9681077 C101.315794,87.9681077 101.315794,87.8442997 101.439876,87.8442997 C101.563959,87.8442997 101.563959,87.8442997 101.688041,87.7204917 C101.812124,87.7204917 101.936206,87.5966837 102.060289,87.5966837 C101.812124,86.9776439 101.936206,86.9776439 102.060289,86.9776439 L102.060289,86.9776439 L102.060289,86.9776439 Z" id="Shape" fill="#332708"></path>
                <path d="M95.4839175,86.9776439 L95.4839175,86.9776439 C95.4839175,87.1014519 95.3598351,87.1014519 95.3598351,87.2252598 C95.3598351,87.3490678 95.2357526,87.3490678 95.2357526,87.4728758 C95.2357526,87.5966837 95.1116701,87.5966837 95.1116701,87.7204917 C94.9875876,87.9681077 94.8635052,88.2157236 94.7394227,88.4633395 C94.6153402,88.5871475 94.6153402,88.7109555 94.4912577,88.8347635 C94.3671753,88.9585714 94.3671753,89.0823794 94.2430928,89.2061874 C94.1190103,89.3299953 94.1190103,89.4538033 94.1190103,89.5776113 C94.1190103,89.7014193 93.9949278,89.8252272 93.9949278,89.9490352 C93.9949278,90.0728432 93.8708454,90.1966511 93.8708454,90.3204591 C93.8708454,90.4442671 93.7467629,90.5680751 93.7467629,90.691883 L93.7467629,90.815691 C93.7467629,90.815691 93.7467629,90.815691 93.7467629,90.939499 C93.7467629,90.939499 93.7467629,90.939499 93.7467629,91.0633069 C93.7467629,91.0633069 93.7467629,91.0633069 93.7467629,91.1871149 C93.7467629,91.1871149 93.7467629,91.1871149 93.7467629,91.3109229 L93.7467629,91.4347309 L93.7467629,91.5585388 C93.7467629,91.5585388 93.7467629,91.5585388 93.7467629,91.6823468 L93.7467629,91.8061548 L93.7467629,91.8061548 L93.6226804,91.6823468 C93.6226804,91.6823468 93.6226804,91.5585388 93.4985979,91.5585388 C93.4985979,91.5585388 93.4985979,91.4347309 93.3745155,91.4347309 C93.3745155,91.4347309 93.3745155,91.3109229 93.250433,91.3109229 C93.250433,91.3109229 93.250433,91.1871149 93.1263505,91.0633069 L93.1263505,90.815691 L93.1263505,90.5680751 L93.1263505,90.0728432 C93.1263505,89.9490352 93.1263505,89.7014193 93.250433,89.5776113 C93.250433,89.4538033 93.3745155,89.2061874 93.4985979,89.0823794 C93.6226804,88.9585714 93.6226804,88.7109555 93.7467629,88.5871475 C93.8708454,88.4633395 93.9949278,88.3395316 94.1190103,88.2157236 C94.2430928,88.0919156 94.3671753,87.9681077 94.4912577,87.8442997 C94.6153402,87.7204917 94.7394227,87.7204917 94.8635052,87.5966837 C94.9875876,87.5966837 94.9875876,87.5966837 94.9875876,87.4728758 C94.9875876,87.4728758 95.1116701,87.4728758 95.1116701,87.3490678 C95.2357526,87.3490678 95.3598351,87.3490678 95.3598351,87.2252598 C95.3598351,86.9776439 95.3598351,86.9776439 95.4839175,86.9776439 L95.4839175,86.9776439 L95.4839175,86.9776439 Z" id="Shape" fill="#332708"></path>
                <path d="M111.862804,97.1298975 L111.862804,97.1298975 C111.986887,97.0060896 111.986887,97.0060896 111.986887,96.8822816 C111.986887,96.7584736 112.110969,96.7584736 112.110969,96.6346657 C112.110969,96.5108577 112.235052,96.3870497 112.235052,96.2632417 C112.359134,96.0156258 112.483216,95.7680099 112.607299,95.5203939 C112.731381,95.3965859 112.731381,95.272778 112.855464,95.14897 C112.979546,95.025162 112.979546,94.9013541 113.103629,94.6537381 C113.227711,94.5299301 113.227711,94.4061222 113.351794,94.1585062 C113.475876,94.0346983 113.475876,93.9108903 113.475876,93.7870823 C113.475876,93.6632743 113.599959,93.5394664 113.599959,93.4156584 C113.599959,93.2918504 113.724041,93.1680425 113.724041,93.0442345 L113.724041,92.9204265 C113.724041,92.9204265 113.724041,92.9204265 113.724041,92.7966185 C113.724041,92.7966185 113.724041,92.7966185 113.724041,92.6728106 C113.724041,92.6728106 113.724041,92.6728106 113.724041,92.5490026 C113.724041,92.5490026 113.724041,92.5490026 113.724041,92.4251946 L113.724041,92.3013867 L113.724041,92.1775787 L113.724041,92.0537707 L113.724041,91.9299627 L113.724041,91.9299627 L113.848124,92.0537707 C113.848124,92.0537707 113.848124,92.1775787 113.972206,92.1775787 L114.096289,92.3013867 C114.096289,92.3013867 114.096289,92.4251946 114.220371,92.4251946 C114.220371,92.5490026 114.220371,92.5490026 114.344454,92.6728106 L114.344454,92.9204265 L114.344454,93.1680425 L114.344454,93.7870823 C114.344454,94.0346983 114.344454,94.1585062 114.220371,94.4061222 C114.220371,94.6537381 114.096289,94.7775461 113.972206,95.025162 C113.848124,95.14897 113.848124,95.3965859 113.724041,95.5203939 C113.599959,95.6442019 113.475876,95.8918178 113.351794,96.0156258 C113.227711,96.1394338 113.103629,96.2632417 112.979546,96.3870497 C112.855464,96.5108577 112.731381,96.6346657 112.607299,96.6346657 C112.483216,96.6346657 112.483216,96.7584736 112.359134,96.7584736 C112.235052,96.7584736 112.235052,96.7584736 112.110969,96.8822816 C111.986887,96.8822816 111.862804,97.0060896 111.738722,97.0060896 C112.110969,97.1298975 111.986887,97.1298975 111.862804,97.1298975 L111.862804,97.1298975 L111.862804,97.1298975 Z" id="Shape" fill="#332708"></path>
                <path d="M116.453856,100.596521 C116.453856,100.596521 116.577938,100.720329 116.453856,100.596521 L116.577938,100.596521 C116.577938,100.472713 116.702021,100.472713 116.702021,100.348905 C116.702021,100.225097 116.826103,100.225097 116.826103,100.101289 C116.950186,99.8536729 117.074268,99.606057 117.198351,99.358441 C117.198351,99.2346331 117.322433,99.1108251 117.446515,98.9870171 C117.446515,98.8632091 117.570598,98.7394012 117.570598,98.6155932 C117.570598,98.4917852 117.69468,98.3679773 117.69468,98.2441693 C117.69468,98.1203613 117.818763,97.9965533 117.818763,97.8727454 C117.818763,97.7489374 117.942845,97.6251294 117.942845,97.5013215 C117.942845,97.3775135 118.066928,97.2537055 118.066928,97.1298975 L118.066928,97.0060896 C118.066928,97.0060896 118.066928,97.0060896 118.066928,96.8822816 C118.066928,96.8822816 118.066928,96.8822816 118.066928,96.7584736 C118.066928,96.7584736 118.066928,96.7584736 118.066928,96.6346657 C118.066928,96.6346657 118.066928,96.6346657 118.066928,96.5108577 L118.066928,96.3870497 L118.066928,96.2632417 C118.066928,96.2632417 118.066928,96.2632417 118.066928,96.1394338 L118.066928,96.0156258 L118.066928,96.0156258 L118.19101,96.1394338 C118.19101,96.1394338 118.19101,96.2632417 118.315093,96.2632417 C118.315093,96.2632417 118.315093,96.3870497 118.439175,96.3870497 C118.439175,96.3870497 118.439175,96.5108577 118.563258,96.5108577 C118.563258,96.5108577 118.563258,96.6346657 118.68734,96.7584736 L118.68734,97.0060896 L118.68734,97.2537055 L118.68734,97.7489374 C118.68734,97.8727454 118.68734,98.1203613 118.563258,98.2441693 C118.563258,98.3679773 118.439175,98.6155932 118.439175,98.7394012 C118.315093,98.8632091 118.315093,99.1108251 118.19101,99.2346331 C118.066928,99.358441 117.942845,99.482249 117.818763,99.606057 C117.69468,99.7298649 117.570598,99.8536729 117.446515,99.9774809 C117.322433,100.101289 117.198351,100.101289 117.074268,100.225097 C116.950186,100.225097 116.950186,100.348905 116.950186,100.348905 C116.950186,100.348905 116.826103,100.348905 116.826103,100.472713 L116.577938,100.472713 C116.702021,100.720329 116.577938,100.596521 116.453856,100.596521 L116.453856,100.596521 L116.453856,100.596521 Z" id="Shape" fill="#332708"></path>
            </g>
        </g>
    </g>
</svg>