<?xml version="1.0" encoding="UTF-8" standalone="no"?>
<svg width="111px" height="84px" viewBox="0 0 111 84" version="1.1" xmlns="http://www.w3.org/2000/svg" xmlns:xlink="http://www.w3.org/1999/xlink">
    <!-- Generator: Sketch 3.8.2 (29753) - http://www.bohemiancoding.com/sketch -->
    <title>Group</title>
    <desc>Created with Sketch.</desc>
    <defs></defs>
    <g id="Page-1" stroke="none" stroke-width="1" fill="none" fill-rule="evenodd">
        <g id="wally_characters" transform="translate(-428.000000, -319.000000)">
            <g id="Capa_1">
                <g id="Group" transform="translate(428.000000, 317.000000)">
                    <path d="M83.7,49.7 C83.7,49.7 92.4,44.3 95.5,36.8 C98.4,29.7 105.5,33.8 108.4,41.8 C111.3,49.8 111.1,54.2 108.8,64 C106.8,72.8 100.8,77 100.7,70.7 C100.6,63.2 90.2,65 90.2,65" id="Shape" fill="#86AAB5"></path>
                    <path d="M108.4,41.8 C105.7,34.5 99.6,30.4 96.3,35.2 C99.4,35 103.2,38.6 105.1,43.9 C108,51.9 107.8,56.3 105.5,66.1 C104.7,69.4 103.4,72 102.1,73.7 C104,74.1 107.4,70.2 108.8,64 C111.1,54.3 111.3,49.8 108.4,41.8 L108.4,41.8 Z" id="Shape" fill="#FFFFFF" opacity="0.25"></path>
                    <path d="M90.3,44.3 C87,47.7 83.7,49.7 83.7,49.7 L90.2,65 C90.2,65 100.5,63.3 100.7,70.6 C101.2,72 102.1,70.7 102.1,67.1 C102.2,63.7 105.2,38.1 90.3,44.3 L90.3,44.3 Z" id="Shape" fill="#000000" opacity="0.1"></path>
                    <path d="M25.4,39 C25.4,39 -7.8,58 2.3,74.4 C12.4,90.7 40.2,86.4 56.9,79.3 C73.5,72.2 94.9,67.7 94.9,62 C94.9,56.2 95.3,45.4 81,43.8 C66.7,42.2 53.5,32.2 25.4,39 L25.4,39 Z" id="Shape" fill="#86AAB5"></path>
                    <path d="M94.8,61.7 C87.2,65.3 74,68.8 62.9,73.6 C46.3,80.7 18.4,85 8.3,68.7 C3.8,61.3 8,53.4 14.1,46.9 C5.6,54 -3.8,64.6 2.2,74.4 C12.3,90.7 40.1,86.4 56.8,79.3 C73.4,72.2 94.8,67.7 94.8,62 L94.8,61.7 L94.8,61.7 Z" id="Shape" fill="#000000" opacity="0.1"></path>
                    <ellipse id="Oval" fill="#FFFFFF" transform="translate(36.577820, 67.133660) rotate(27.205630) translate(-36.577820, -67.133660) " cx="36.57782" cy="67.13366" rx="11.4003659" ry="12.0003852"></ellipse>
                    <path d="M47.2,62.1 C47.1,63.9 46.7,65.7 45.8,67.4 C42.8,73.3 35.8,75.7 30.2,72.9 C27.8,71.6 26,69.6 25,67.1 C24.9,71.4 27.1,75.6 31,77.6 C36.6,80.5 43.6,78 46.6,72.1 C48.4,68.9 48.5,65.3 47.2,62.1 L47.2,62.1 Z" id="Shape" fill="#000000" opacity="0.1"></path>
                    <path d="M14.2,54.2 C10,58.4 3.5,58.6 3.5,58.6 C3.5,58.6 3.7,52.1 7.9,47.9 C12.1,43.7 18.6,43.5 18.6,43.5 C18.6,43.5 18.4,50 14.2,54.2 L14.2,54.2 Z" id="Shape" fill="#FFFFFF"></path>
                    <path d="M18.5,44.5 C18,46.8 16.8,50 14.4,52.4 C10.6,56.2 5,56.8 3.7,56.9 C3.5,57.9 3.5,58.6 3.5,58.6 C3.5,58.6 10,58.4 14.2,54.2 C17.4,51 18.3,46.4 18.5,44.5 L18.5,44.5 Z" id="Shape" fill="#000000" opacity="0.1"></path>
                    <circle id="Oval" fill="#2C2028" cx="31.7" cy="60.9" r="1.6"></circle>
                    <circle id="Oval" fill="#2C2028" cx="12" cy="49.2" r="1.6"></circle>
                    <path d="M93.8,64.2 C94.1,59 92.8,54 88.6,50.2 C82.9,45.1 22.1,42.3 20.3,42.2 L20.3,42.2 C21.6,42.5 63.6,52.5 71.3,73.8 C81.4,70.4 90.7,67.4 93.8,64.2 L93.8,64.2 Z" id="Shape" fill="#000000" opacity="0.1"></path>
                    <path d="M14.7,31.8 C14.3,33.3 13.1,44.5 45.6,52.1 C82.5,60.7 87.9,51.4 88.6,50.3 C89.2,49.2 87.8,47.2 85.9,48.3 C84.1,49.4 68.5,55.7 47.7,49.7 C25.2,43.2 20.2,39.1 17.7,32.2 C16.9,29.8 15.1,30.3 14.7,31.8 L14.7,31.8 Z" id="Shape" fill="#FAAE16"></path>
                    <path d="M85.9,48.3 C84.1,49.4 68.5,55.7 47.7,49.7 C25.2,43.2 20.2,39.1 17.7,32.2 C17.1,30.4 15.8,30.3 15.1,31.1 C15.4,34.7 19.1,43.6 46.1,49.9 C77.9,57.3 86.3,51.5 88.5,48.9 C88,48.1 87,47.5 85.9,48.3 L85.9,48.3 Z" id="Shape" fill="#FFFFFF" opacity="0.25"></path>
                    <path d="M17.7,32.1 C20.1,39 25.2,43.1 47.7,49.6 C67.4,55.3 82.5,50 85.5,48.4 C76.4,17.8 44.5,22.7 30.2,27 C21.7,29.5 18.7,31.1 17.7,31.9 L17.7,32.1 L17.7,32.1 Z" id="Shape" fill="#FAAE16"></path>
                    <path d="M17.7,32.1 C20.1,39 25.2,43.1 47.7,49.6 C67.4,55.3 82.5,50 85.5,48.4 C76.4,17.8 44.5,22.7 30.2,27 C21.7,29.5 18.7,31.1 17.7,31.9 L17.7,32.1 L17.7,32.1 Z" id="Shape" fill="#FAAE16"></path>
                    <path d="M36,36.3 C47.6,32.9 70.6,29 83.8,43.7 C73,18.3 43.8,23 30.2,27 C21.7,29.5 18.7,31.1 17.7,31.9 L17.7,32 C18.9,35.3 20.6,37.9 24.4,40.5 C26.1,39.6 29.3,38.2 36,36.3 L36,36.3 Z" id="Shape" fill="#FFFFFF" opacity="0.25"></path>
                    <path d="M17.8,32.3 C19.9,31.4 25.8,29.5 30.8,31.2 C43.4,35.3 70.2,20.7 83.2,42.5 C71.9,18.6 43.5,23.1 30.2,27.1 C21.7,29.6 18.7,31.2 17.7,32 L17.7,32.1 C17.8,32.2 17.8,32.2 17.8,32.3 L17.8,32.3 Z" id="Shape" fill="#FFFFFF" opacity="0.25"></path>
                    <path d="M52.5,45 C33,47.3 23.3,35.6 20.2,30.5 C18.8,31.1 18,31.6 17.6,31.9 L17.6,32 C20,38.9 25.1,43 47.6,49.5 C67.3,55.2 82.4,49.9 85.4,48.3 C85,47 84.6,45.7 84.1,44.6 C78.6,46.7 70.4,42.9 52.5,45 L52.5,45 Z" id="Shape" fill="#000000" opacity="0.35"></path>
                    <path d="M71.2,30.7 C74.4,35.2 65.2,35.8 51.5,30.6 C51.5,30.6 43.6,23.7 28.9,23.1 L35.8,4.1 C35.8,4.1 57.5,11 71.2,30.7 L71.2,30.7 Z" id="Shape" fill="#FAAE16"></path>
                    <path d="M34,11.9 C34,11.9 52.6,17.8 66.2,34.3 C70.9,34.6 73,33.3 71.2,30.7 C57.5,10.9 35.8,4 35.8,4 L28.9,23 C29.2,23 29.6,23 29.9,23.1 L34,11.9 L34,11.9 Z" id="Shape" fill="#FFFFFF" opacity="0.25"></path>
                    <path d="M71.2,30.7 C70.9,30.2 70.5,29.7 70.1,29.2 C71.1,32.7 62.3,32.7 49.8,27.9 C49.8,27.9 42.8,21.8 29.7,20.5 L28.8,22.9 C43.6,23.6 51.4,30.4 51.4,30.4 C65.2,35.9 74.4,35.3 71.2,30.7 L71.2,30.7 Z" id="Shape" fill="#000000" opacity="0.35"></path>
                    <ellipse id="Oval" fill="#CB832A" transform="translate(31.410160, 13.129640) rotate(13.002347) translate(-31.410160, -13.129640) " cx="31.41016" cy="13.12964" rx="8.80035358" ry="11.100446"></ellipse>
                    <ellipse id="Oval" fill="#BFBFBF" transform="translate(31.325730, 13.097710) rotate(12.996764) translate(-31.325730, -13.097710) " cx="31.32573" cy="13.09771" rx="8.50015032" ry="10.6001875"></ellipse>
                    <ellipse id="Oval" fill="#EBEBEB" transform="translate(31.221980, 12.999380) rotate(12.996764) translate(-31.221980, -12.999380) " cx="31.22198" cy="12.99938" rx="8.30014678" ry="10.3001822"></ellipse>
                    <ellipse id="Oval" fill="#BFBFBF" transform="translate(31.034490, 12.903660) rotate(12.996764) translate(-31.034490, -12.903660) " cx="31.03449" cy="12.90366" rx="8.00014148" ry="10.0001768"></ellipse>
                    <ellipse id="Oval" fill="#FFFFFF" transform="translate(31.229580, 13.001980) rotate(12.996764) translate(-31.229580, -13.001980) " cx="31.22958" cy="13.00198" rx="7.70013617" ry="9.70017154"></ellipse>
                    <path d="M45.9,50.8 C17.1,44.1 14.8,34.5 14.9,31.4 C14.8,31.5 14.8,31.7 14.7,31.8 C14.3,33.3 13.1,44.5 45.6,52.1 C82.5,60.7 87.9,51.4 88.6,50.3 C88.8,50 88.8,49.7 88.7,49.3 C87.4,51.2 80.4,58.8 45.9,50.8 L45.9,50.8 Z" id="Shape" fill="#000000" opacity="0.35"></path>
                    <path d="M69.5,37.8 C66.8,37.4 43,34.1 35.2,41.6 C33.7,43.3 31.9,41.6 34.2,39.8 C36.5,38 47,31.2 70,36.5 C72.3,37 72.2,38.2 69.5,37.8 L69.5,37.8 Z" id="Shape" fill="#FAAE16"></path>
                    <path d="M69.5,37.8 C66.8,37.4 43,34.1 35.2,41.6 C33.7,43.3 31.9,41.6 34.2,39.8 C36.5,38 47,31.2 70,36.5 C72.3,37 72.2,38.2 69.5,37.8 L69.5,37.8 Z" id="Shape" fill="#EA9D21"></path>
                    <path d="M34.3,40.8 C39.9,34.9 54.9,34.8 63.1,35.2 C44.9,32.6 36.2,38.2 34.1,39.8 C33.3,40.4 33,41.1 33,41.5 C33.4,41.5 33.9,41.3 34.3,40.8 L34.3,40.8 Z" id="Shape" fill="#FFFFFF" opacity="0.25"></path>
                    <path d="M69.5,37.8 C70.5,37.9 71.2,37.9 71.5,37.7 C71.2,37.6 70.9,37.5 70.5,37.4 C47.6,32.1 37,38.9 34.7,40.7 C34,41.3 33.7,41.8 33.6,42.3 C34,42.4 34.6,42.3 35.2,41.7 C43,34.2 66.8,37.5 69.5,37.8 L69.5,37.8 Z" id="Shape" fill="#000000" opacity="0.1"></path>
                </g>
            </g>
        </g>
    </g>
</svg>