<?xml version="1.0" encoding="UTF-8" standalone="no"?>
<svg width="317px" height="224px" viewBox="0 0 317 224" version="1.1" xmlns="http://www.w3.org/2000/svg" xmlns:xlink="http://www.w3.org/1999/xlink">
    <!-- Generator: Sketch 3.8.2 (29753) - http://www.bohemiancoding.com/sketch -->
    <title>Group</title>
    <desc>Created with Sketch.</desc>
    <defs></defs>
    <g id="Page-1" stroke="none" stroke-width="1" fill="none" fill-rule="evenodd">
        <g id="Desktop-Copy" transform="translate(-637.000000, -1587.000000)">
            <g id="Group" transform="translate(637.000000, 1587.000000)">
                <path d="M148.203885,79.8516027 C133.586802,45.8191531 99.9335183,53.6466165 88.5457909,27.1013059 C75.6283688,45.3086664 75.2884366,80.1919272 88.715757,113.373565 C53.8727105,103.674317 27.5279679,129.198655 0.163428924,120.690542 C-0.346469319,140.769687 23.1088498,162.89078 58.9716929,174.121488 C81.0672834,181.09814 103.502806,182.459438 121.519211,179.056193 C136.136294,176.333597 150.073512,178.886031 160.271477,186.37317 C166.050324,190.627226 202.423065,213.428967 207.352081,217.853186 C219.419673,228.573407 239.135739,211.38702 239.135739,211.38702 C239.135739,211.38702 194.604625,193.349822 174.378662,178.205382 C168.089917,173.440839 164.180697,167.825485 161.801172,161.699644 C159.081714,154.893154 158.231884,146.895528 158.911748,138.72774 C160.441443,121.371191 156.872155,100.271072 148.203885,79.8516027 L148.203885,79.8516027 Z" id="Shape" fill="#4D4E87"></path>
                <g transform="translate(161.631206, 0.000000)">
                    <path d="M30.9338267,73.7257618 C29.404132,73.215275 28.5543016,71.6838148 28.8942337,70.1523546 L28.8942337,69.9821923 L28.8942337,69.4717056 C29.0641998,68.4507321 29.5740981,67.4297586 30.4239285,66.9192719 C33.9932162,64.7071626 36.5427074,60.7934309 37.2225717,56.1990503 L37.2225717,55.8587258 C41.6416898,53.8167788 44.8710453,49.5627226 45.7208757,44.1175307 C46.9106383,35.9497428 41.4717237,28.4626039 33.8232501,27.4416304 C26.0048104,26.4206569 18.866235,32.0360111 17.8464385,40.203799 L17.8464385,40.5441235 C13.4273204,42.5860704 10.1979648,46.8401266 9.34813444,52.2853186 L9.34813444,52.7958053 C9.17816836,53.8167788 8.66827012,54.8377523 7.81843972,55.348239 C4.24915202,57.5603482 1.69966081,61.4740799 1.01979648,66.0684606 C0.169966081,71.853977 2.71945729,77.299169 6.96860931,80.3620894 C8.32833796,81.3830629 8.66827012,83.2548476 7.9884058,84.6161456 C6.45871107,87.6790661 5.2689485,91.082311 4.75905026,94.8258805 C2.88942337,108.43886 10.0279988,120.690542 20.9058279,122.222002 C31.613691,123.753463 41.981622,113.884052 43.8512488,100.271072 C45.2109775,88.1895528 39.7720629,77.1290067 30.9338267,73.7257618 L30.9338267,73.7257618 Z" id="Shape" fill="#F4AEBB"></path>
                    <path d="M149.060253,92.2734468 C149.570151,88.7000396 148.890287,85.2967946 147.190626,82.5741987 C146.510762,81.2129007 146.340796,79.6814404 147.02066,78.1499802 C147.530558,76.9588445 147.87049,75.5975465 148.210422,74.0660863 C148.550355,71.6838148 148.380389,69.4717056 147.700524,67.4297586 C147.360592,66.4087851 147.360592,65.2176494 147.87049,64.1966759 C148.380389,63.0055402 148.720321,61.8144044 148.890287,60.4531065 C150.080049,52.2853186 144.641135,44.7981797 136.992661,43.7772062 C129.174221,42.7562327 122.035646,48.3715869 121.01585,56.5393748 C120.675917,58.9216462 120.845883,61.1337554 121.525748,63.1757024 C121.86568,64.1966759 121.86568,65.3878116 121.355782,66.4087851 C120.845883,67.5999209 120.505951,68.7910566 120.335985,70.1523546 C119.826087,73.7257618 120.505951,76.9588445 122.205612,79.8516027 C122.885476,81.2129007 123.055442,82.7443609 122.375578,84.1056589 L122.375578,84.1056589 C121.695714,85.8072814 119.996053,86.9984171 118.126426,87.1685793 C106.568733,87.6790661 96.880666,95.846854 95.3509713,106.9074 C93.6513105,119.499406 103.169411,131.410764 116.766698,133.282548 C130.363984,135.154333 142.771508,126.476059 144.641135,113.884052 C144.981067,110.991294 144.811101,108.098536 144.131237,105.205778 C143.621338,103.504155 144.131237,101.802533 145.320999,100.611397 C147.02066,98.3992877 148.550355,95.5065295 149.060253,92.2734468 L149.060253,92.2734468 Z" id="Shape" fill="#F4AEBB"></path>
                    <path d="M137.332593,53.986941 C136.142831,49.5627226 136.482763,44.9683419 137.842492,40.5441235 C138.012458,39.8634745 138.35239,39.0126632 138.35239,38.161852 C140.391983,23.3577364 135.293,10.4254056 86.342769,3.44875346 C37.2225717,-3.35773645 28.8942337,7.70280966 26.8546408,22.5069252 C26.6846747,23.3577364 26.6846747,24.0383854 26.6846747,24.8891967 C26.8546408,29.4835774 25.8348443,34.0779581 23.6252852,37.9916898 C18.0164046,47.6909379 13.9372186,58.9216462 12.2375578,71.1733281 C6.28874499,113.373565 9.17816836,148.767313 65.0970089,156.594776 C120.845883,164.42224 133.253407,131.070439 139.20222,88.8702018 C140.901881,76.7886822 140.052051,64.8773249 137.332593,53.986941 L137.332593,53.986941 Z" id="Shape" fill="#E798AA"></path>
                    <path d="M149.060253,128.007519 C144.641135,126.476059 139.882084,128.85833 138.35239,133.282548 C136.312797,139.238227 132.063645,143.492283 125.604934,146.214879 C112.007647,151.830233 93.4813444,148.597151 89.9120567,147.065691 C89.2321924,146.555204 88.0424298,146.214879 87.1925994,146.044717 C86.0028369,143.151959 85.1530065,139.918876 85.6629047,136.685793 C85.6629047,136.685793 85.6629047,136.685793 85.6629047,136.515631 C86.8526673,128.518006 88.0424298,122.05184 69.6860931,119.499406 C51.3297564,116.946973 50.8198582,123.5833 49.8000617,131.580926 L49.8000617,131.751088 C49.4601295,134.473684 48.9502313,137.026118 47.4205365,139.068065 C41.4717237,139.578552 32.8034536,144.683419 30.2539624,146.385042 C24.1351835,150.128611 15.6368794,156.424614 9.17816836,165.273051 C1.01979648,176.503759 -1.35972865,188.755441 2.20955905,200.836961 C3.22935553,204.070044 5.94881283,206.282153 9.17816836,206.792639 C10.3679309,206.962802 11.5576935,206.792639 12.7474561,206.452315 C17.1665742,205.091017 19.7160654,200.326474 18.3563367,195.902256 C16.4867098,189.946577 17.3365402,183.990898 20.9058279,178.03522 C23.4553191,173.781163 27.0246068,170.037594 30.9338267,166.804511 C30.2539624,170.207756 29.7440641,173.951326 29.2341659,177.694895 C26.0048104,200.666799 41.4717237,221.766917 56.0888067,223.808864 C70.7058896,225.850811 91.4417515,209.685398 94.671107,186.713494 C95.6909035,179.056193 96.5407339,172.079541 96.0308356,165.613376 C97.3905643,165.783538 98.5803269,165.9537 99.4301573,165.9537 C106.568733,166.634349 117.276596,166.634349 127.644527,163.401266 C140.901881,159.317372 150.080049,150.80926 154.329201,138.897903 C155.68893,134.473684 153.309405,129.709141 149.060253,128.007519 L149.060253,128.007519 Z" id="Shape" fill="#E7C599"></path>
                    <path d="M85.4929386,136.515631 L85.4929386,136.515631 C86.0028369,132.431737 86.6827012,128.85833 84.9830404,125.965572 C76.1448042,129.368817 66.2867715,130.730115 56.2587727,129.368817 C54.2191798,129.028492 52.1795868,128.688168 50.1399938,128.177681 C49.9700278,129.198655 49.8000617,130.38979 49.6300956,131.410764 L49.6300956,131.580926 C49.4601295,132.601899 49.2901634,133.622873 49.1201973,134.473684 C54.0492137,136.685793 59.1481961,138.217254 64.7570768,138.897903 C71.8956522,139.918876 78.8642615,139.578552 85.4929386,138.047091 C85.3229726,137.536605 85.4929386,137.026118 85.4929386,136.515631 L85.4929386,136.515631 Z" id="Shape" fill="#D7B387"></path>
                    <path d="M94.5011409,186.543332 C95.6909035,178.375544 96.5407339,170.718243 95.8608696,164.081915 C89.0622263,155.743965 78.6942954,149.618124 66.6267037,147.916502 C54.5591119,146.214879 42.8314524,149.2778 33.9932162,155.573803 C31.613691,161.699644 30.4239285,169.356945 29.2341659,177.524733 C26.0048104,200.496636 41.4717237,221.596755 56.0888067,223.638702 C70.3659574,225.680649 91.2717854,209.515235 94.5011409,186.543332 L94.5011409,186.543332 Z" id="Shape" fill="#4D4E87"></path>
                    <path d="M85.4929386,207.983775 C90.0820228,202.028097 93.3113784,194.71112 94.5011409,186.543332 C95.0110392,183.310249 95.3509713,180.247329 95.6909035,177.354571 C86.0028369,174.802137 75.1250077,172.590028 63.3973481,171.058567 C51.6696886,169.356945 40.6218933,168.506134 30.5938945,168.335972 C30.0839963,171.22873 29.5740981,174.29165 29.2341659,177.524733 C28.0444033,185.692521 29.404132,193.690146 31.9536232,200.666799 C40.2819611,203.729719 49.4601295,205.941828 58.1283996,207.132964 C66.7966698,208.3241 76.4847364,208.664424 85.4929386,207.983775 L85.4929386,207.983775 Z" id="Shape" fill="#3B3B75"></path>
                    <g transform="translate(18.696269, 5.328641)">
                        <ellipse id="Oval" fill="#F4D4A1" cx="57.6185014" cy="71.8003656" rx="57.6185014" ry="57.685002"></ellipse>
                        <path d="M109.798088,47.4671642 C101.809682,30.4509394 85.6629047,17.5186086 65.6069072,14.7960126 C57.2785692,13.6048769 48.9502313,14.2855258 41.4717237,16.6677973 C39.6020968,21.262178 42.4915202,28.2388302 52.8594511,38.1082405 C66.9666358,51.8913826 93.4813444,53.4228428 109.798088,47.4671642 L109.798088,47.4671642 Z" id="Shape" fill="#E9C79A"></path>
                        <path d="M96.3707678,29.2598036 C104.359174,40.8308365 108.268393,55.1244653 106.058834,70.0987431 C101.639716,101.578759 72.5755165,123.699851 41.1317916,119.275633 C29.0641998,117.57401 18.5263028,112.298981 10.1979648,104.811842 C19.036201,117.57401 32.9734197,126.762772 49.6300956,128.974881 C81.0738205,133.399099 110.13802,111.278007 114.557138,79.7979912 C117.276596,60.2293327 109.968054,41.5114855 96.3707678,29.2598036 L96.3707678,29.2598036 Z" id="Shape" fill="#E9C79A"></path>
                        <g transform="translate(10.197965, 39.299376)">
                            <g>
                                <path d="M23.4553191,38.9671547 C8.32833796,36.9252078 2.54949121,26.3751484 3.22935553,21.6106055 C3.90921986,16.8460625 9.17816836,5.44519193 26.6846747,7.4871389 C36.7126735,8.67827463 43.8512488,17.3565493 42.4915202,27.0557974 C41.1317916,36.7550455 30.5938945,39.9881282 23.4553191,38.9671547 L23.4553191,38.9671547 Z" id="Shape" fill="#FFFFFF"></path>
                                <ellipse id="Oval" fill="#915B14" transform="translate(24.676712, 22.793233) rotate(7.908897) translate(-24.676712, -22.793233) " cx="24.6767124" cy="22.7932331" rx="9.17827855" ry="12.4219932"></ellipse>
                                <path d="M22.2655566,6.97665216 C20.2259636,7.1468144 15.1269812,5.95567867 10.8778292,6.97665216 C10.8778292,6.63632766 11.0477953,6.46616541 11.2177613,6.12584092 C11.7276596,4.76454294 12.7474561,3.9137317 13.7672525,3.23308271 C12.2375578,3.06292046 10.537897,3.9137317 9.85803269,5.44519193 C9.51810052,6.12584092 9.51810052,6.80648991 9.51810052,7.31697665 C9.00820228,7.4871389 8.32833796,7.8274634 7.81843972,8.16778789 C7.47850755,8.33795014 7.30854147,8.50811239 6.96860931,8.84843688 C6.79864323,7.99762564 6.79864323,6.97665216 6.96860931,6.12584092 C7.30854147,3.9137317 8.32833796,1.87178472 9.6880666,0.510486743 C7.13857539,0.850811239 4.92901634,3.06292046 4.58908418,5.78551642 C4.4191181,7.4871389 4.75905026,9.01859913 5.60888067,10.2097349 C4.75905026,11.2307083 4.24915202,12.4218441 3.90921986,13.6129798 C3.39932162,13.2726553 2.88942337,12.7621686 2.54949121,12.2516818 C1.69966081,11.0605461 1.18976257,9.86941037 1.18976257,8.67827463 C0.339932162,10.0395726 0.339932162,11.9113573 1.35972865,13.2726553 C2.03959297,13.9533043 2.71945729,14.4637911 3.5692877,14.6339533 C2.71945729,17.867036 3.22935553,20.7597942 3.22935553,20.7597942 C5.43891459,15.4847645 7.64847364,7.99762564 22.2655566,7.1468144 C22.6054887,7.31697665 22.4355227,6.97665216 22.2655566,6.97665216 L22.2655566,6.97665216 Z" id="Shape" fill="#F4AEBB"></path>
                                <ellipse id="Oval" fill="#FFFFFF" transform="translate(19.572699, 16.170603) rotate(7.908897) translate(-19.572699, -16.170603) " cx="19.572699" cy="16.1706035" rx="4.92907552" ry="6.63640733"></ellipse>
                            </g>
                            <g transform="translate(52.689485, 11.911357)">
                                <path d="M15.9768116,33.3518006 C31.1037928,35.3937475 39.4321307,26.8856351 40.1119951,22.1210922 C40.7918594,17.3565493 38.7522664,4.93470518 21.2457601,2.21210922 C11.2177613,0.680648991 2.03959297,6.97665216 0.679864323,16.6759003 C-0.509898242,26.3751484 8.8382362,32.3308271 15.9768116,33.3518006 L15.9768116,33.3518006 Z" id="Shape" fill="#FFFFFF"></path>
                                <ellipse id="Oval" fill="#915B14" transform="translate(19.137620, 17.521811) rotate(187.908897) translate(-19.137620, -17.521811) " cx="19.1376198" cy="17.5218108" rx="9.17827855" ry="12.4219932"></ellipse>
                                <path d="M25.8348443,2.89275821 C27.7044712,3.5734072 32.9734197,3.9137317 36.7126735,6.12584092 L36.7126735,5.27502968 C36.5427074,3.9137317 35.862843,2.72259596 35.0130126,1.70162248 C36.5427074,1.87178472 37.902436,3.23308271 38.2423682,4.93470518 C38.4123343,5.61535417 38.2423682,6.29600317 38.0724021,6.80648991 C38.5823003,7.1468144 39.0921986,7.65730115 39.4321307,8.16778789 C39.6020968,8.50811239 39.7720629,8.67827463 39.942029,9.01859913 C40.2819611,8.16778789 40.4519272,7.31697665 40.6218933,6.46616541 C40.9618255,4.25405619 40.4519272,2.04194697 39.6020968,0.340324495 C41.981622,1.36129798 43.5113167,4.08389395 43.0014184,6.80648991 C42.8314524,8.50811239 41.981622,9.86941037 40.7918594,10.8903839 C41.3017576,12.0815196 41.4717237,13.4428176 41.4717237,14.6339533 C41.981622,14.4637911 42.6614863,14.1234666 43.1713845,13.7831421 C44.3611471,12.9323308 45.0410114,11.9113573 45.5509097,10.7202216 C46.0608079,12.2516818 45.5509097,13.9533043 44.191181,14.9742778 C43.3413506,15.4847645 42.4915202,15.825089 41.6416898,15.6549268 C41.4717237,19.0581717 40.2819611,21.7807677 40.2819611,21.7807677 C39.6020968,15.9952513 39.4321307,8.33795014 25.6648782,3.40324495 C25.4949121,3.23308271 25.6648782,2.72259596 25.8348443,2.89275821 L25.8348443,2.89275821 Z" id="Shape" fill="#F4AEBB"></path>
                                <ellipse id="Oval" fill="#FFFFFF" transform="translate(12.922062, 10.554535) rotate(187.908897) translate(-12.922062, -10.554535) " cx="12.9220622" cy="10.5545346" rx="4.92907552" ry="6.63640733"></ellipse>
                            </g>
                        </g>
                        <path d="M117.446562,21.4323402 C123.055442,42.3622967 69.516127,51.7212203 46.5707061,29.6001281 C-1.52969473,-16.8541655 111.837681,0.502383779 117.446562,21.4323402 L117.446562,21.4323402 Z" id="Shape" fill="#F4AEBB"></path>
                        <ellipse id="Oval" fill="#F4D4A1" transform="translate(29.096646, 82.008246) rotate(7.908897) translate(-29.096646, -82.008246) " cx="29.0966463" cy="82.0082457" rx="20.0562383" ry="8.16788594"></ellipse>
                        <ellipse id="Oval" fill="#F4D4A1" transform="translate(77.712894, 89.658757) rotate(7.908897) translate(-77.712894, -89.658757) " cx="77.7128943" cy="89.6587573" rx="20.0562383" ry="8.16788594"></ellipse>
                        <ellipse id="Oval" fill="#F4AEBB" opacity="0.25" transform="translate(26.898832, 81.836671) rotate(7.908897) translate(-26.898832, -81.836671) " cx="26.8988319" cy="81.8366711" rx="13.9373859" ry="5.4452573"></ellipse>
                        <ellipse id="Oval" fill="#F4AEBB" opacity="0.25" transform="translate(84.688081, 91.019307) rotate(7.908897) translate(-84.688081, -91.019307) " cx="84.6880813" cy="91.0193066" rx="13.9373859" ry="5.4452573"></ellipse>
                        <path d="M88.2123959,105.322328 C88.2123959,105.322328 88.0424298,105.492491 87.7024977,105.832815 C87.3625655,106.17314 86.8526673,106.683626 86.172803,107.364275 C85.4929386,108.044924 84.4731422,108.725573 83.4533457,109.576385 C82.4335492,110.427196 81.0738205,111.278007 79.7140919,112.128818 C78.3543632,112.97963 76.8246685,113.830441 75.1250077,114.51109 C73.4253469,115.191739 71.55572,115.872388 69.6860931,116.382874 C65.7768733,117.403848 61.5277212,118.084497 57.2785692,117.914335 C53.0294172,117.744172 48.7802652,117.063523 45.0410114,115.702225 C41.3017576,114.51109 41.6416898,113.490116 45.3809436,114.51109 C47.2505705,115.021576 49.1201973,115.361901 51.1597903,115.702225 C53.1993833,115.872388 55.2389763,116.04255 57.2785692,116.04255 C61.3577552,116.04255 65.4369411,115.191739 69.0062288,114.000603 C70.8758557,113.319954 72.4055504,112.639305 74.1052112,111.958656 C75.634906,111.107845 76.9946346,110.427196 78.3543632,109.576385 C79.5441258,108.725573 80.7338884,107.874762 81.5837188,107.023951 C82.6035153,106.17314 83.2833796,105.492491 83.7932778,104.982004 C84.4731422,104.471517 84.8130743,103.790868 85.1530065,103.450544 C85.4929386,103.110219 85.6629047,102.940057 85.6629047,102.940057 C86.342769,102.089246 87.7024977,102.089246 88.382362,102.769895 C89.0622263,103.110219 89.0622263,104.471517 88.2123959,105.322328 L88.2123959,105.322328 L88.2123959,105.322328 Z" id="Shape" fill="#915B14"></path>
                    </g>
                    <g opacity="0.05" transform="translate(32.293555, 13.297190)" id="Shape" fill="#000000">
                        <path d="M28.8942337,0.191135734 C28.8942337,0.191135734 32.1235893,0.191135734 32.4635214,0.361297982 C32.8034536,0.53146023 33.1433858,0.871784725 33.3133518,1.04194697 C33.4833179,1.38227147 33.653284,1.72259596 33.653284,2.06292046 C33.653284,2.40324495 33.4833179,2.9137317 33.1433858,3.25405619 L27.5345051,10.7411951 C27.364539,10.9113573 27.364539,10.9113573 27.364539,11.0815196 C27.364539,11.2516818 27.1945729,11.4218441 27.1945729,11.4218441 L27.1945729,11.7621686 L27.1945729,12.1024931 L29.404132,22.8227147 L29.404132,23.8436882 C29.2341659,24.1840127 29.0641998,24.5243372 28.8942337,24.6944994 C28.7242677,24.8646617 28.3843355,25.2049861 28.0444033,25.3751484 C27.7044712,25.5453106 27.364539,25.7154729 27.0246068,25.7154729 L26.8546408,25.7154729 L26.6846747,25.7154729 L26.5147086,25.7154729 L26.3447425,25.7154729 L18.0164046,24.3541749 L17.8464385,24.3541749 L17.6764724,24.3541749 L17.5065063,24.3541749 L17.3365402,24.3541749 L16.9966081,24.3541749 C16.826642,24.3541749 16.826642,24.3541749 16.6566759,24.5243372 C16.4867098,24.6944994 16.4867098,24.5243372 16.3167438,24.6944994 C16.1467777,24.6944994 16.1467777,24.8646617 15.9768116,24.8646617 L4.75905026,31.5009893 C4.58908418,31.5009893 4.58908418,31.6711516 4.4191181,31.6711516 C4.24915202,31.6711516 4.24915202,31.8413138 4.07918594,31.8413138 L3.73925378,31.8413138 L3.39932162,31.8413138 C3.05938945,31.8413138 2.71945729,31.8413138 2.54949121,31.6711516 C2.20955905,31.6711516 2.03959297,31.5009893 1.69966081,31.3308271 C1.52969473,31.1606648 1.35972865,30.9905026 1.18976257,30.6501781 C1.01979648,30.4800158 1.01979648,30.1396913 1.01979648,29.7993668 L0.849830404,21.8017412 C0.169966081,21.8017412 28.8942337,0.191135734 28.8942337,0.191135734 L28.8942337,0.191135734 Z"></path>
                    </g>
                    <path d="M41.4717237,0.215670756 C41.3017576,0.215670756 40.9618255,0.215670756 40.7918594,0.385833004 C40.6218933,0.385833004 40.2819611,0.555995251 40.1119951,0.726157499 C39.942029,0.896319747 39.7720629,1.06648199 39.6020968,1.23664424 C39.4321307,1.40680649 39.2621647,1.57696874 39.2621647,1.91729323 L34.5031144,13.1480016 C34.5031144,13.3181638 34.3331483,13.4883261 34.3331483,13.6584883 C34.1631822,13.8286506 34.1631822,13.9988128 33.9932162,13.9988128 C33.8232501,14.1689751 33.653284,14.1689751 33.4833179,14.3391373 C33.3133518,14.5092996 33.1433858,14.5092996 32.9734197,14.6794618 L20.7358619,19.4440047 C20.2259636,19.614167 19.8860315,19.9544915 19.5460993,20.294816 C19.2061671,20.6351405 19.036201,20.975465 19.036201,21.3157895 C19.036201,21.656114 19.036201,21.9964385 19.2061671,22.336763 C19.3761332,22.6770875 19.5460993,23.017412 20.0559975,23.1875742 L30.5938945,29.1432529 C30.7638606,29.3134151 30.9338267,29.3134151 30.9338267,29.4835774 C31.1037928,29.6537396 31.1037928,29.6537396 31.2737589,29.8239019 C31.2737589,29.9940641 31.4437249,30.1642264 31.4437249,30.3343886 L31.4437249,30.8448753 L31.613691,38.842501 C31.613691,39.1828255 31.613691,39.3529877 31.7836571,39.6933122 C31.9536232,39.8634745 32.1235893,40.203799 32.2935553,40.3739612 C32.4635214,40.5441235 32.8034536,40.7142857 33.1433858,40.7142857 C33.4833179,40.7142857 33.8232501,40.884448 33.9932162,40.884448 L34.3331483,40.884448 L34.6730805,40.884448 C34.8430466,40.884448 34.8430466,40.884448 35.0130126,40.7142857 C35.1829787,40.7142857 35.1829787,40.5441235 35.3529448,40.5441235 L46.5707061,33.9077958 C46.7406722,33.9077958 46.7406722,33.7376336 46.9106383,33.7376336 C47.0806044,33.7376336 47.0806044,33.5674713 47.2505705,33.5674713 C47.4205365,33.5674713 47.4205365,33.5674713 47.5905026,33.3973091 L47.9304348,33.3973091 L48.1004009,33.3973091 L48.2703669,33.3973091 L48.440333,33.3973091 L48.6102991,33.3973091 L56.9386371,34.758607 L57.1086031,34.758607 L57.2785692,34.758607 L57.4485353,34.758607 L57.6185014,34.758607 C57.9584335,34.758607 58.2983657,34.5884448 58.6382979,34.4182825 C58.97823,34.2481203 59.3181622,34.0779581 59.4881283,33.7376336 C59.6580944,33.5674713 59.9980265,33.2271468 59.9980265,32.8868223 C60.1679926,32.5464978 60.1679926,32.2061733 59.9980265,31.8658488 L57.7884675,21.1456272 L57.7884675,20.8053027 L57.7884675,20.4649782 C57.7884675,20.294816 57.9584335,20.1246537 57.9584335,20.1246537 C57.9584335,19.9544915 58.1283996,19.7843292 58.1283996,19.7843292 L63.7372803,12.2971903 C64.0772125,11.9568658 64.2471785,11.4463791 64.2471785,11.1060546 C64.2471785,10.7657301 64.2471785,10.4254056 63.9072464,10.0850811 C63.7372803,9.74475663 63.3973481,9.57459438 63.057416,9.40443213 C62.7174838,9.23426989 62.2075856,9.06410764 61.6976873,9.23426989 L61.6976873,9.23426989 L61.6976873,9.23426989 L61.6976873,9.23426989 L61.6976873,9.23426989 L50.8198582,10.9358924 L50.8198582,10.9358924 L50.8198582,10.9358924 L50.8198582,10.9358924 L50.8198582,10.9358924 L50.1399938,10.9358924 C49.9700278,10.9358924 49.6300956,10.7657301 49.4601295,10.7657301 C49.2901634,10.5955679 49.1201973,10.5955679 48.9502313,10.4254056 C48.7802652,10.2552434 48.6102991,10.0850811 48.6102991,9.91491888 L43.8512488,1.57696874 C43.6812828,1.40680649 43.6812828,1.23664424 43.5113167,1.06648199 C43.3413506,0.896319747 43.1713845,0.896319747 43.0014184,0.726157499 C42.8314524,0.726157499 42.6614863,0.555995251 42.3215541,0.555995251 C41.981622,0.215670756 41.6416898,0.215670756 41.4717237,0.215670756" id="Shape" fill="#F8CB17"></path>
                    <path d="M63.2273821,9.23426989 C62.8874499,9.06410764 62.3775516,8.89394539 61.8676534,9.06410764 L61.8676534,9.06410764 L61.8676534,9.06410764 L61.8676534,9.06410764 L61.8676534,9.06410764 L50.9898242,10.7657301 L50.9898242,10.7657301 L50.9898242,10.7657301 L50.9898242,10.7657301 L50.9898242,10.7657301 L50.3099599,10.7657301 C50.1399938,10.7657301 49.8000617,10.5955679 49.6300956,10.5955679 C49.4601295,10.4254056 49.2901634,10.4254056 49.1201973,10.2552434 C48.9502313,10.0850811 48.7802652,9.91491888 48.7802652,9.74475663 L48.6102991,9.40443213 C41.3017576,13.3181638 36.3727413,20.8053027 36.3727413,29.3134151 C36.3727413,32.5464978 37.0526056,35.6094183 38.2423682,38.3320142 L46.5707061,33.3973091 C46.7406722,33.3973091 46.7406722,33.2271468 46.9106383,33.2271468 C47.0806044,33.2271468 47.0806044,33.0569846 47.2505705,33.0569846 C47.4205365,33.0569846 47.4205365,33.0569846 47.5905026,32.8868223 L47.9304348,32.8868223 L48.1004009,32.8868223 L48.2703669,32.8868223 L48.440333,32.8868223 L48.6102991,32.8868223 L56.9386371,34.2481203 L57.1086031,34.2481203 L57.2785692,34.2481203 L57.4485353,34.2481203 L57.6185014,34.2481203 C57.9584335,34.2481203 58.2983657,34.0779581 58.6382979,33.9077958 C58.97823,33.7376336 59.3181622,33.5674713 59.4881283,33.2271468 C59.6580944,33.0569846 59.9980265,32.7166601 59.9980265,32.3763356 C60.1679926,32.0360111 60.1679926,31.6956866 59.9980265,31.3553621 L57.7884675,20.6351405 L57.7884675,20.294816 L57.7884675,19.9544915 C57.7884675,19.7843292 57.9584335,19.614167 57.9584335,19.614167 C57.9584335,19.4440047 58.1283996,19.2738425 58.1283996,19.2738425 L63.7372803,11.7867036 C64.0772125,11.4463791 64.2471785,10.9358924 64.2471785,10.5955679 C64.2471785,10.2552434 64.2471785,9.91491888 63.9072464,9.57459438 C63.9072464,9.57459438 63.7372803,9.40443213 63.2273821,9.23426989 L63.2273821,9.23426989 Z" id="Shape" fill="#FFDE77"></path>
                </g>
            </g>
        </g>
    </g>
</svg>