<?xml version="1.0" encoding="UTF-8" standalone="no"?>
<svg width="106px" height="117px" viewBox="0 0 106 117" version="1.1" xmlns="http://www.w3.org/2000/svg" xmlns:xlink="http://www.w3.org/1999/xlink">
    <!-- Generator: Sketch 3.8.2 (29753) - http://www.bohemiancoding.com/sketch -->
    <title>Group</title>
    <desc>Created with Sketch.</desc>
    <defs></defs>
    <g id="Page-1" stroke="none" stroke-width="1" fill="none" fill-rule="evenodd">
        <g id="wally_characters" transform="translate(-285.000000, -93.000000)">
            <g id="Capa_1">
                <g id="Group">
                    <g transform="translate(285.000000, 93.000000)">
                        <g transform="translate(0.000000, 95.000000)" id="Shape">
                            <path d="M104,6 C104,10.3 100.9,15.7 70,19.7 C37.3,23.9 0.5,19.7 0.2,11.8 C-5.96744876e-15,6.4 22.6,0.2 54,0.2 C85.5,0.1 104,-0.7 104,6 L104,6 Z" fill="#85B7DA"></path>
                            <path d="M101.2,5.4 C101.2,9.3 98.4,15.4 69.2,18.8 C38.4,22.4 2.5,18 2.4,12.2 C2.4,10.3 14,0.4 53.6,1 C83.2,1.5 101.2,-0.6 101.2,5.4 L101.2,5.4 Z" fill="#C2DDE9"></path>
                        </g>
                        <g transform="translate(1.000000, 0.000000)">
                            <g transform="translate(61.000000, 16.000000)" id="Shape">
                                <path d="M0.3,8.9 L5.1,0.2 C5.2,0.1 5.3,5.60662627e-15 5.5,0.1 C5.6,0.2 5.7,0.3 5.6,0.5 L1.1,8.9 C1,9 0.2,9.1 0.3,8.9 L0.3,8.9 Z" fill="#ADADAD"></path>
                                <path d="M5.2,0.1 L5.1,0.2 L0.3,8.9 L0.3,8.9 C0.4,8.9 0.5,8.9 0.5,8.8 L5.2,0.1 L5.2,0.1 Z" fill="#F5F5F4"></path>
                                <g opacity="0.05" fill="#000000">
                                    <path d="M1,8.9 L5.5,0.5 C5.6,0.4 5.5,0.2 5.4,0.1 L5.4,0.1 L0.5,9 C0.7,9 1,9 1,8.9 L1,8.9 Z"></path>
                                </g>
                            </g>
                            <g transform="translate(72.000000, 25.000000)" id="Shape">
                                <path d="M0.2,9.1 L5,0.4 C5.1,0.3 5.2,0.2 5.4,0.3 C5.5,0.4 5.6,0.5 5.5,0.7 L1,9.1 C0.9,9.1 0.1,9.2 0.2,9.1 L0.2,9.1 Z" fill="#ADADAD"></path>
                                <path d="M5.1,0.3 L5,0.4 L0.2,9.1 L0.2,9.1 C0.3,9.1 0.4,9.1 0.4,9 L5.1,0.3 L5.1,0.3 Z" fill="#F5F5F4"></path>
                                <g opacity="0.05" fill="#000000">
                                    <path d="M0.9,9 L5.4,0.6 C5.5,0.5 5.4,0.3 5.3,0.2 L5.3,0.2 L0.4,9.1 C0.6,9.1 0.9,9.1 0.9,9 L0.9,9 Z"></path>
                                </g>
                            </g>
                            <path d="M34.9,53.8 C25.4,53.5 17.7,52.5 14.4,50.7 C10.3,56.8 7.9,61.6 6.7,64.4 C9.8,62.7 17.3,68.6 33.2,71 C33.1,67 33.9,60.3 34.9,53.8 L34.9,53.8 Z" id="Shape" fill="#E4E6E5"></path>
                            <path d="M96.9,40.3 C96.3,45.3 84.7,50.2 62.7,52.6 C53.3,53.6 43.5,54 35,53.8 C34,60.3 33.2,67 33.3,70.9 C44,72.5 60.6,75.7 80.1,70.7 C90.4,68.1 97.2,59.9 98.2,57.4 C98.5,52.8 97.1,43 96.9,40.3 L96.9,40.3 Z" id="Shape" fill="#C2C3C4"></path>
                            <path d="M103.9,54.8 C103.6,54.2 102.4,53.5 98.2,54 L98.2,55 C101.1,54.8 102,55.4 102.1,56.3 C99.4,59.7 93.5,67.7 80.6,74.1 C53.8,87.4 0.7,46.8 0.7,75.1 C0.7,103.4 19.4,112.3 53,111.6 C83,110.9 104,97.4 104,69.1 C104,59.7 104.4,55.6 103.9,54.8 L103.9,54.8 Z" id="Shape" fill="#A57400"></path>
                            <path d="M98.2,55.1 L98.2,57.5 C97.2,60 90.3,68.1 80.1,70.8 C64.6,74.8 51.1,73.6 40.8,72.1 C54.9,76.2 69.9,79.5 80.6,74.2 C93.6,67.8 99.5,59.7 102.1,56.4 C102,55.5 101.1,54.9 98.2,55.1 L98.2,55.1 Z" id="Shape" fill="#916401"></path>
                            <path d="M97.5,39.6 C96.9,34.4 70.9,31.9 47.6,34.4 C24.3,36.9 12.1,43.4 12.7,48.7 C13.3,53.9 39.4,55.2 62.7,52.7 C85.9,50.1 98,44.8 97.5,39.6 L97.5,39.6 Z" id="Shape" fill="#DBDEDE"></path>
                            <path d="M95.2,39.1 C93.4,35.5 75.3,32.8 52.1,35.3 C28.8,37.8 14.6,42.2 14.8,48 C14.9,52.9 39.5,54.1 62.7,51.6 C85.9,49.1 97.5,43.9 95.2,39.1 L95.2,39.1 Z" id="Shape" fill="#A57400"></path>
                            <path d="M52.7,37.9 C72.5,35.7 88.9,37.5 95.5,40.4 C95.5,40 95.4,39.5 95.2,39.1 C93.4,35.5 75.3,32.8 52.1,35.3 C28.8,37.8 14.6,42.2 14.8,48 C14.8,48.2 14.8,48.3 14.9,48.5 C19.3,43.7 32.9,40.1 52.7,37.9 L52.7,37.9 Z" id="Shape" fill="#BDBDBD"></path>
                            <g opacity="0.1" transform="translate(40.000000, 56.000000)" id="Shape" fill="#000000">
                                <path d="M37.9,15.2 C37.5,15.3 37.1,15.4 36.7,15.5 C36.5,15.5 36.3,15.6 36.1,15.6 C35.7,15.7 35.3,15.8 34.9,15.8 C34.8,15.8 34.6,15.9 34.4,15.9 C33.9,16 33.3,16.1 32.8,16.2 L32.6,16.2 C32.1,16.3 31.7,16.3 31.2,16.4 C31,16.4 30.9,16.5 30.7,16.5 C30.3,16.6 30,16.6 29.6,16.6 C29.4,16.6 29.2,16.6 29.1,16.7 C28.7,16.7 28.3,16.8 27.9,16.8 L27.5,16.8 C27,16.9 26.5,16.9 26,16.9 L25.7,16.9 C25.3,16.9 24.9,17 24.5,17 L24,17 C23.7,17 23.3,17 23,17.1 L22.5,17.1 L21.3,17.1 L21,17.1 L19.6,17.1 L19.2,17.1 L18.2,17.1 L17.7,17.1 L16.8,17.1 L16.3,17.1 L15.1,17.1 L14.8,17.1 L13.5,17.1 L13,17.1 L12.2,17.1 L11.6,17.1 C11.3,17.1 11.1,17.1 10.8,17 L10.3,17 C9.9,17 9.6,16.9 9.2,16.9 C9,16.9 8.8,16.9 8.6,16.8 C8.3,16.8 8.1,16.8 7.8,16.7 C7.6,16.7 7.4,16.7 7.2,16.6 C7,16.6 6.8,16.6 6.6,16.5 C6.4,16.5 6.2,16.5 6,16.4 C5.8,16.4 5.6,16.4 5.4,16.3 C5.2,16.3 5,16.3 4.7,16.2 L4.6,16.2 C4,16.1 3.5,16.1 2.9,16 L2.6,16 C2.3,16 2.1,15.9 1.8,15.9 L1.5,15.9 C1.2,15.9 0.9,15.8 0.7,15.8 C4,16.8 7.3,17.7 10.7,18.4 C17.5,18.7 24.8,18.2 32.2,17.1 C54,13.8 59.6,1.7 58.3,0.4 L58.3,0.5 L58.3,0.7 L58.3,1.1 C57.3,3.6 50.4,11.7 40.2,14.4 C39.6,14.5 39.1,14.7 38.5,14.8 C38.2,15.2 38.1,15.2 37.9,15.2 L37.9,15.2 Z"></path>
                            </g>
                            <path d="M12.9,52.9 C12.9,52.9 9.3,55.7 33,56.7 C33,56.7 32.3,61.1 32,63.7 C32,63.7 10.7,61.6 9.9,57.8 C9.7,56.1 12.9,52.9 12.9,52.9 L12.9,52.9 Z" id="Shape" fill="#75B0D8"></path>
                            <g opacity="0.1" transform="translate(10.000000, 56.000000)" id="Shape" fill="#000000">
                                <path d="M22.2,6.9 C4.8,4.8 -0.2,2.7 0.2,0.7 C0.1,1.1 0,1.4 0,1.7 C0.8,5.5 22.1,7.6 22.1,7.6 C22.1,7.4 22.1,7.1 22.2,6.9 L22.2,6.9 Z"></path>
                            </g>
                            <path d="M104.1,60.2 C104.2,57 104.2,55.3 103.9,54.9 C103.6,54.3 102.4,53.6 98.2,54.1 L98.2,55.1 C101.1,54.9 102,55.5 102.1,56.4 C99.4,59.8 93.5,67.8 80.6,74.2 C54.5,87.2 3.7,49.1 0.9,73 C5,68.7 4.7,66.6 14.5,69.1 C24.6,71.7 59.6,81.7 74.2,79.6 C88.7,77.5 95.9,68.5 104.1,60.2 L104.1,60.2 Z" id="Shape" fill="#C18E3C"></path>
                            <g opacity="0.05" transform="translate(9.000000, 64.000000)" id="Shape" fill="#000000">
                                <path d="M2.3,0.9 C1.5,3.2 -5.5,25.8 13.8,44.3 C13.8,44.3 13.8,44.3 13.7,44.3 C14,44.4 14.3,44.5 14.6,44.6 C-3.4,26.3 2.6,4.6 3.7,1 C3.2,0.9 2.8,0.9 2.3,0.9 L2.3,0.9 Z"></path>
                            </g>
                            <g opacity="0.1" transform="translate(0.000000, 60.000000)" id="Shape" fill="#000000">
                                <path d="M74.1,19.6 C59.5,21.7 24.5,11.7 14.4,9.1 C4.7,6.6 4.9,8.7 0.8,13 C0.8,12.7 0.9,12.4 0.9,12.2 C0.7,12.8 0.6,13.4 0.5,14 C4.6,9.7 4.3,7.6 14.1,10.1 C24.2,12.7 64.4,24.9 79,22.8 C93.6,20.7 95.5,9.5 103.8,1.2 L103.8,0.4 C95.7,8.6 88.6,17.5 74.1,19.6 L74.1,19.6 Z"></path>
                            </g>
                            <g opacity="0.1" transform="translate(1.000000, 53.000000)" id="Shape" fill="#F5F5F4">
                                <path d="M79.6,21.1 C54.9,33.4 7.9,-0.2 0.7,16.7 C4,13 4.4,11.4 13.5,13.7 C23.6,16.3 58.6,26.3 73.2,24.2 C87.8,22.1 95,13.1 103.2,4.8 L103.2,3.4 C103.2,2.5 103.1,2 103,1.8 C102.8,1.5 102.3,1.1 101.2,0.9 C101.2,0.9 101.2,0.9 101.2,1 C99.1,0.9 96.6,0.8 100.2,2.3 C100.9,2.5 101.1,2.9 101.2,3.4 C98.4,6.7 92.5,14.7 79.6,21.1 L79.6,21.1 Z"></path>
                            </g>
                            <path d="M89.6,48.3 C89.6,48.3 89.9,48.1 89.6,48 C87.8,46.9 74.5,38.4 67.2,35.6 C59.3,32.6 51.4,33.7 47.5,34.2 C22.8,36.9 9.8,43.8 10.4,49.4 C11,55 38.8,56.3 63.5,53.6 C74.6,52.3 83.4,50.5 89.6,48.3 L89.6,48.3 Z" id="Shape" fill="#ADADAD"></path>
                            <path d="M89.6,48 C89.6,48 75.1,38.3 67.2,35.2 C59.3,32.2 51.4,33.3 47.5,33.8 C22.8,36.5 9.8,43.4 10.4,49 C11,54.6 38.8,55.9 63.5,53.2 C74.6,51.9 83.4,50.1 89.6,48 L89.6,48 Z" id="Shape" fill="#F2F2F1"></path>
                            <path d="M88.2,47.6 C88.2,47.6 74.2,38.2 66.6,35.3 C59,32.4 51.4,33.5 47.6,33.9 C23.7,36.5 11.2,43.2 11.8,48.5 C12.4,53.9 39.2,55.2 63.1,52.6 C73.8,51.4 82.3,49.7 88.2,47.6 L88.2,47.6 Z" id="Shape" fill="#F2F2F1"></path>
                            <path d="M74.1,104.4 C59.5,106.5 24.5,96.5 14.4,93.9 C8.5,92.4 6.3,92.5 4.6,93.8 C4.7,94 4.8,94.2 4.9,94.4 C6.6,93.5 8.9,93.5 14.2,94.8 C24.3,97.4 60.4,108 75,105.9 C85.2,104.4 91.3,99.3 96.8,93.5 C97.5,92.5 98.2,91.4 98.9,90.3 C92.4,96.8 85.6,102.7 74.1,104.4 L74.1,104.4 Z" id="Shape" fill="#000000" opacity="0.1"></path>
                            <g opacity="0.1" transform="translate(2.000000, 78.000000)" id="Shape" fill="#000000">
                                <path d="M72.1,18.7 C57.5,20.8 22.5,10.8 12.4,8.2 C4.1,6.1 3.1,7.3 0.4,10.3 C0.5,10.5 0.5,10.7 0.6,10.9 C3,8.2 4.3,7.2 12.2,9.2 C22.3,11.8 58.4,22.4 73,20.3 C87.1,18.3 93.2,9.3 101,1.2 C101.1,0.9 101.1,0.5 101.2,0.2 C93.3,8.3 86.2,16.7 72.1,18.7 L72.1,18.7 Z"></path>
                            </g>
                            <g opacity="0.1" transform="translate(1.000000, 69.000000)" id="Shape" fill="#000000">
                                <path d="M73.1,20 C58.5,22.1 23.5,12.1 13.4,9.5 C3.9,7.1 3.9,9 0.1,13.1 C0.1,13.3 0.2,13.6 0.2,13.8 C3.7,9.9 3.9,8.2 13.2,10.6 C23.3,13.2 59.4,23.8 74,21.7 C88.6,19.6 94.6,10 102.9,1.7 L102.9,0.9 C94.7,9 87.6,17.9 73.1,20 L73.1,20 Z"></path>
                            </g>
                            <path d="M11.3,64.7 C11.3,64.7 2.4,88.8 22.8,108.3 C22.8,108.3 -8.3,105.1 5.4,62.7 C5.4,62.7 5.6,62 6.5,62.2 C7.4,62.5 10.2,63.4 10.8,63.7 C11.5,64 11.3,64.7 11.3,64.7 L11.3,64.7 Z" id="Shape" fill="#775100"></path>
                            <path d="M41,64.1 C42.8,64.1 44.2,62.6 44.1,60.9 C44.1,59.2 42.6,57.8 40.9,57.8 C39.1,57.8 37.7,59.3 37.8,61 C37.9,62.8 39.3,64.2 41,64.1" id="Shape" fill="#75B0D8"></path>
                            <path d="M55.5,64.5 C57.3,64.5 58.7,63.1 58.7,61.4 C58.7,59.7 57.3,58.2 55.5,58.2 C53.7,58.2 52.3,59.6 52.3,61.3 C52.3,63.1 53.8,64.5 55.5,64.5" id="Shape" fill="#75B0D8"></path>
                            <path d="M71.5,62.8 C73.2,62.6 74.4,61 74.2,59.3 C74,57.6 72.4,56.4 70.7,56.6 C69,56.8 67.8,58.4 68,60.1 C68.2,61.8 69.7,63 71.5,62.8" id="Shape" fill="#75B0D8"></path>
                            <path d="M85.2,59.2 C86.7,58.9 87.7,57.3 87.6,55.6 C87.4,53.9 86,52.7 84.5,53 C83,53.3 82,54.9 82.2,56.6 C82.3,58.3 83.7,59.5 85.2,59.2" id="Shape" fill="#75B0D8"></path>
                            <g opacity="0.05" transform="translate(82.000000, 52.000000)" id="Shape" fill="#000000">
                                <path d="M2.2,1.5 C3.7,1.2 5.1,2.4 5.3,4.1 C5.4,4.7 5.3,5.2 5.1,5.7 C5.5,5.1 5.6,4.3 5.5,3.5 C5.3,1.8 3.9,0.6 2.4,0.9 C1.4,1.1 0.6,1.9 0.2,2.9 C0.7,2.2 1.4,1.7 2.2,1.5 L2.2,1.5 Z"></path>
                            </g>
                            <path d="M94.5,48.2 C93.2,48.5 92.3,50.1 92.5,51.8 C92.7,53.5 94,54.7 95.3,54.4 C96.6,54.1 97.5,52.5 97.3,50.8 C97,49.2 95.8,48 94.5,48.2" id="Shape" fill="#75B0D8"></path>
                            <g opacity="0.05" transform="translate(92.000000, 48.000000)" id="Shape" fill="#000000">
                                <path d="M2.1,0.9 C3.4,0.6 4.7,1.8 4.9,3.5 C5,4.2 4.9,4.8 4.7,5.3 C5.1,4.6 5.4,3.7 5.2,2.8 C5,1.1 3.7,-0.1 2.4,0.2 C1.6,0.4 0.9,1 0.6,2 C1,1.4 1.5,1 2.1,0.9 L2.1,0.9 Z"></path>
                            </g>
                            <g opacity="0.05" transform="translate(20.000000, 48.000000)" id="Shape" fill="#000000">
                                <path d="M68.6,0.7 C62.5,2.7 54.1,4.4 43.5,5.5 C28,7.2 11.3,7.3 0.8,5.8 C12.9,11.4 40.3,22.4 65.1,21 C72.6,17.5 77.4,11.6 78.3,9.5 L78.3,8.7 C75.4,5.3 70.9,2.2 68.6,0.7 L68.6,0.7 Z"></path>
                            </g>
                            <g opacity="0.05" transform="translate(37.000000, 57.000000)" id="Shape" fill="#000000">
                                <path d="M1.9,6.4 C1.5,5.9 1.2,5.2 1.2,4.5 C1.2,2.8 2.6,1.3 4.3,1.3 C5.1,1.3 5.8,1.6 6.4,2.1 C5.8,1.4 4.9,0.9 3.9,1 C2.1,1 0.7,2.5 0.8,4.2 C0.8,5 1.3,5.8 1.9,6.4 L1.9,6.4 Z"></path>
                            </g>
                            <g opacity="0.05" transform="translate(52.000000, 58.000000)" id="Shape" fill="#000000">
                                <path d="M0.5,4.4 C0.5,4.2 0.4,4 0.4,3.8 C0.4,2.1 1.9,0.7 3.6,0.7 C5,0.7 6.2,1.6 6.6,2.8 C6.3,1.4 5,0.3 3.5,0.3 C1.7,0.3 0.3,1.7 0.3,3.4 C0.3,3.7 0.4,4.1 0.5,4.4 L0.5,4.4 Z"></path>
                            </g>
                            <g opacity="0.05" transform="translate(67.000000, 56.000000)" id="Shape" fill="#000000">
                                <path d="M3.7,1.1 C5.4,0.9 7,2.1 7.2,3.8 L7.2,3.9 L7.2,3.2 C7,1.5 5.4,0.3 3.7,0.5 C2,0.7 0.8,2.2 1,3.9 C1.1,2.5 2.2,1.3 3.7,1.1 L3.7,1.1 Z"></path>
                            </g>
                            <path d="M36.2,38.9 C29.5,38.7 24.1,38 21.8,36.7 C18.9,41 17.2,44.3 16.4,46.3 C16.5,48.7 22.8,50.9 35,50.9 C35,48.2 35.5,43.4 36.2,38.9 L36.2,38.9 Z" id="Shape" fill="#E4E6E5"></path>
                            <path d="M62.3,24.7 C57.3,24.2 51.2,24.6 45.1,25.3 C28.8,27.1 20.2,31.7 20.6,35.3 C21,39 39.3,39.9 55.7,38.1 C67.2,36.8 76.7,34.4 80.1,31.9 C79.1,30.9 71.8,27.4 62.3,24.7 L62.3,24.7 Z" id="Shape" fill="#DBDEDE"></path>
                            <path d="M77.7,33.2 C76.6,33.7 75.3,34.2 73.8,34.6 C71,36 66.1,37.1 55.7,38.2 C49.1,38.9 42.2,39.2 36.3,39 C35.6,43.6 35,48.1 35.1,50.8 C44.2,51.1 74.1,50.1 85.3,45.1 C82.7,39.7 80,35.8 77.7,33.2 L77.7,33.2 Z" id="Shape" fill="#C2C3C4"></path>
                            <path d="M61.2,25.1 C57.8,25.1 53.6,25.4 48.3,25.9 C32,27.7 22,30.8 22.1,34.8 C22.2,38.2 39.4,39.1 55.7,37.3 C66.2,36.2 72.4,34.6 75.1,33.3 C73.4,31.3 67.2,26 61.2,25.1 L61.2,25.1 Z" id="Shape" fill="#A57400"></path>
                            <path d="M20.8,38.2 C20.8,38.2 18.3,40.2 34.9,40.9 C34.9,40.9 34.4,44 34.2,45.8 C34.2,45.8 19.2,44.3 18.7,41.7 C18.5,40.5 20.8,38.2 20.8,38.2 L20.8,38.2 Z" id="Shape" fill="#75B0D8"></path>
                            <g opacity="0.1" transform="translate(18.000000, 40.000000)" id="Shape" fill="#000000">
                                <path d="M16.3,5.2 C4.1,3.7 0.6,2.2 0.8,0.9 C0.7,1.2 0.7,1.4 0.7,1.6 C1.2,4.3 16.2,5.7 16.2,5.7 C16.3,5.6 16.3,5.4 16.3,5.2 L16.3,5.2 Z"></path>
                            </g>
                            <path d="M41.9,46.8 C43.1,46.8 44.1,45.8 44.1,44.5 C44.1,43.3 43.1,42.3 41.8,42.3 C40.6,42.3 39.6,43.3 39.6,44.6 C39.6,45.9 40.7,46.8 41.9,46.8" id="Shape" fill="#75B0D8"></path>
                            <path d="M55.3,43.8 C55.3,42.6 54.3,41.6 53.1,41.6 C51.9,41.6 50.9,42.6 50.9,43.9 C50.9,45.1 51.9,46.1 53.1,46.1 C54.3,46.1 55.3,45.1 55.3,43.8" id="Shape" fill="#75B0D8"></path>
                            <path d="M65.4,44.6 C66.6,44.4 67.5,43.3 67.3,42.1 C67.2,40.9 66.1,40 64.9,40.2 C63.7,40.4 62.8,41.5 63,42.7 C63.1,43.9 64.2,44.7 65.4,44.6" id="Shape" fill="#75B0D8"></path>
                            <path d="M76.5,41.9 C77.5,41.7 78.3,40.6 78.1,39.4 C78,38.2 77,37.4 75.9,37.6 C74.9,37.8 74.1,38.9 74.3,40.1 C74.5,41.2 75.4,42.1 76.5,41.9" id="Shape" fill="#75B0D8"></path>
                            <g opacity="0.05" transform="translate(74.000000, 37.000000)" id="Shape" fill="#000000">
                                <path d="M1.8,0.9 C2.9,0.7 3.8,1.5 4,2.7 C4,3.1 4,3.5 3.9,3.8 C4.2,3.4 4.3,2.8 4.2,2.3 C4.1,1.1 3.1,0.3 2,0.5 C1.3,0.6 0.7,1.2 0.5,1.9 C0.8,1.4 1.2,1 1.8,0.9 L1.8,0.9 Z"></path>
                            </g>
                            <g opacity="0.05" transform="translate(39.000000, 42.000000)" id="Shape" fill="#000000">
                                <path d="M1.4,4.3 C1.1,3.9 0.9,3.5 0.9,2.9 C0.9,1.7 1.9,0.7 3.1,0.6 C3.7,0.6 4.2,0.8 4.6,1.1 C4.2,0.6 3.6,0.3 2.8,0.3 C1.6,0.3 0.6,1.3 0.6,2.6 C0.6,3.3 0.9,3.9 1.4,4.3 L1.4,4.3 Z"></path>
                            </g>
                            <g opacity="0.05" transform="translate(50.000000, 41.000000)" id="Shape" fill="#000000">
                                <path d="M1,3.6 L1,3.2 C1,2 2,1 3.3,1 C4.3,1 5.1,1.6 5.4,2.5 C5.2,1.5 4.3,0.7 3.2,0.7 C2,0.7 0.9,1.7 0.9,2.9 C0.8,3.1 0.9,3.3 1,3.6 L1,3.6 Z"></path>
                            </g>
                            <g opacity="0.05" transform="translate(62.000000, 40.000000)" id="Shape" fill="#000000">
                                <path d="M2.9,0.6 C4.1,0.4 5.2,1.3 5.3,2.5 C5.3,2.5 5.3,2.5 5.3,2.6 L5.3,2.1 C5.2,0.9 4.1,-6.88338275e-15 2.9,0.2 C1.7,0.4 0.9,1.4 1,2.6 C1.1,1.6 1.9,0.7 2.9,0.6 L2.9,0.6 Z"></path>
                            </g>
                            <path d="M78.5,31.9 C76.8,29.9 67.2,26 61.2,25.1 L60.1,25.1 C59,26.4 58.4,27.5 61.2,27.7 C63.8,27.9 68.1,29.3 75.1,33.3 C75.8,33 78.5,31.9 78.5,31.9 L78.5,31.9 Z" id="Shape" fill="#A2A0A0"></path>
                            <path d="M73.7,34.5 C73.7,34.5 63.9,27.9 58.5,25.9 C53.2,23.8 47.8,24.6 45.1,24.9 C28.4,26.7 19.6,31.4 20,35.2 C20.4,39 39.2,39.9 56,38 C63.5,37.2 69.5,36 73.7,34.5 L73.7,34.5 Z" id="Shape" fill="#F2F2F1"></path>
                            <path d="M61.2,25.1 C57.8,25.1 53.6,25.4 48.3,25.9 C33.4,27.5 23.7,30.2 22.3,33.8 C26.1,30.8 35.2,28.6 48,27.2 C48.7,27.1 54.8,27.4 61.3,27.7 C61.4,26.6 61.6,26.3 61.2,25.1 L61.2,25.1 Z" id="Shape" fill="#BDBDBD"></path>
                            <path d="M74.6,35 C74.6,35 74.8,34.9 74.6,34.8 C73.3,34 64,28.1 58.9,26.1 C53.4,24 47.8,24.8 45.1,25.1 C27.7,27 18.6,31.9 19.1,35.8 C19.5,39.7 39,40.6 56.4,38.7 C64.1,37.8 70.2,36.5 74.6,35 L74.6,35 Z" id="Shape" fill="#ADADAD"></path>
                            <path d="M74.6,34.8 C74.6,34.8 64.4,28 58.9,25.8 C53.4,23.7 47.8,24.5 45.1,24.8 C27.7,26.7 18.6,31.6 19.1,35.5 C19.5,39.4 39,40.3 56.4,38.4 C64.1,37.6 70.2,36.3 74.6,34.8 L74.6,34.8 Z" id="Shape" fill="#F2F2F1"></path>
                            <g opacity="0.05" transform="translate(32.000000, 31.000000)" id="Shape" fill="#000000">
                                <g>
                                    <path d="M50,10.5 C49.5,9.3 48.9,8.2 48.3,7.2 C44.6,4.5 39.8,1.4 38.7,0.6 C34.4,2 28.5,3.2 21.1,4 C14.3,4.7 7.2,5 1,4.9 C0.8,6 0.7,7 0.5,8.1 C8,10.9 17.9,14 27.6,15.1 C36.4,14.2 45,12.8 50,10.5 L50,10.5 Z"></path>
                                </g>
                            </g>
                            <path d="M37.2,27.8 C32.7,27.7 29,27.2 27.5,26.3 C25.5,29.2 24.4,31.5 23.8,32.8 C23.8,34.4 28.1,35.9 36.4,35.9 C36.3,34.1 36.7,30.9 37.2,27.8 L37.2,27.8 Z" id="Shape" fill="#E4E6E5"></path>
                            <path d="M65.2,24 C64.5,24.3 63.6,24.7 62.5,25 C60.6,26 57.3,26.7 50.3,27.4 C45.8,27.9 41.2,28.1 37.1,28 C36.6,31.1 36.2,34.1 36.3,36 C42.5,36.2 62.7,35.6 70.3,32.1 C68.6,28.4 66.8,25.7 65.2,24 L65.2,24 Z" id="Shape" fill="#C2C3C4"></path>
                            <path d="M26.7,27.4 C26.7,27.4 25,28.7 36.3,29.2 C36.3,29.2 35.9,31.3 35.8,32.5 C35.8,32.5 25.7,31.5 25.3,29.7 C25.2,28.9 26.7,27.4 26.7,27.4 L26.7,27.4 Z" id="Shape" fill="#75B0D8"></path>
                            <g opacity="0.1" transform="translate(25.000000, 29.000000)" id="Shape" fill="#000000">
                                <path d="M10.9,3.1 C2.6,2.1 0.3,1.1 0.4,0.2 C0.3,0.4 0.3,0.6 0.3,0.7 C0.7,2.5 10.8,3.5 10.8,3.5 C10.8,3.4 10.9,3.3 10.9,3.1 L10.9,3.1 Z"></path>
                            </g>
                            <g transform="translate(44.000000, 29.000000)" id="Shape">
                                <path d="M2.1,4.7 C3.2,4.7 4.1,3.8 4.1,2.6 C4.1,1.5 3.2,0.6 2,0.6 C0.9,0.6 0,1.5 0,2.6 C0.1,3.8 1,4.7 2.1,4.7" fill="#75B0D8"></path>
                                <g opacity="0.05" fill="#000000">
                                    <path d="M0.8,4.2 C0.5,3.9 0.3,3.4 0.3,3 C0.3,1.9 1.2,1 2.3,1 C2.8,1 3.3,1.2 3.6,1.5 C3.2,1 2.6,0.8 2,0.8 C0.9,0.8 0,1.7 0,2.8 C0.1,3.3 0.4,3.8 0.8,4.2 L0.8,4.2 Z"></path>
                                </g>
                            </g>
                            <g transform="translate(58.000000, 28.000000)" id="Shape">
                                <path d="M2.4,4.2 C3.5,4.1 4.3,3 4.1,1.9 C4,0.8 3,-3.77475828e-15 1.9,0.2 C0.8,0.3 -2.0206059e-14,1.3 0.2,2.4 C0.3,3.5 1.3,4.3 2.4,4.2" fill="#75B0D8"></path>
                                <g opacity="0.05" fill="#000000">
                                    <path d="M1.9,0.6 C3,0.5 4,1.2 4.1,2.3 C4.1,2.3 4.1,2.3 4.1,2.4 L4.1,2 C4,0.9 3,0.1 1.9,0.3 C0.8,0.4 0.1,1.4 0.1,2.5 C0.2,1.5 0.9,0.7 1.9,0.6 L1.9,0.6 Z"></path>
                                </g>
                            </g>
                            <g opacity="0.05" transform="translate(62.000000, 45.000000)" id="Shape" fill="#000000">
                                <path d="M23.2,0.2 L23.2,0.2 C18.3,2.4 9.7,3.9 0.8,4.8 C0.8,4.8 5.5,7.5 9.4,7.2 C16.8,6.1 22.9,4.7 27.5,3.1 C27.6,3 25.8,1.8 23.2,0.2 L23.2,0.2 Z"></path>
                            </g>
                            <path d="M54.9,18.8 C51.5,18.5 47.3,18.8 43.2,19.2 C32.1,20.4 26.3,23.5 26.6,26 C26.9,28.5 39.3,29.1 50.4,27.9 C58.2,27.1 64.6,25.4 66.9,23.7 C66.2,23 61.3,20.6 54.9,18.8 L54.9,18.8 Z" id="Shape" fill="#DBDEDE"></path>
                            <path d="M54.1,19 C51.8,19 48.9,19.2 45.3,19.6 C34.2,20.8 28.2,22.9 28.2,25.6 C28.2,27 37.1,27.8 50.3,27 C57.5,26.6 61.7,25.5 63.5,24.6 C62.4,23.3 58.2,19.7 54.1,19 L54.1,19 Z" id="Shape" fill="#A57400"></path>
                            <path d="M65.9,23.7 C64.7,22.4 58.2,19.7 54.1,19.1 L53.4,19.1 C52.6,20 52.2,20.7 54.2,20.9 C55.9,21 58.9,22 63.6,24.7 C64,24.4 65.9,23.7 65.9,23.7 L65.9,23.7 Z" id="Shape" fill="#A2A0A0"></path>
                            <path d="M54.1,19 C51.8,19 48.9,19.2 45.3,19.6 C35.2,20.7 29.3,22.5 28.4,24.9 C31,22.9 41.6,20.5 54.2,20.8 C54.2,20.1 54.3,19.9 54.1,19 L54.1,19 Z" id="Shape" fill="#BDBDBD"></path>
                            <g opacity="0.05" transform="translate(16.000000, 45.000000)" id="Shape" fill="#000000">
                                <g>
                                    <path d="M19,5.9 C7.2,5.9 0.9,3.6 0.4,1.3 L0.3,1.7 C0.4,4.1 6.7,6.3 19,6.3 C28.1,6.6 58.4,5.6 69.5,0.5 L69.1,0.3 C58,5.2 28.1,6.2 19,5.9 L19,5.9 Z"></path>
                                </g>
                            </g>
                            <g opacity="0.05" transform="translate(23.000000, 32.000000)" id="Shape" fill="#000000">
                                <g>
                                    <path d="M13.2,4 C5.3,4 1.1,2.4 0.7,0.9 L0.7,1.2 C0.7,2.8 5,4.3 13.2,4.3 C19.3,4.5 40.1,3.7 47.6,0.3 C47.5,0.2 47.5,0.2 47.3,0.2 C39.8,3.4 19.3,4.2 13.2,4 L13.2,4 Z"></path>
                                </g>
                            </g>
                            <g opacity="0.05" transform="translate(37.000000, 24.000000)" id="Shape" fill="#000000">
                                <path d="M28.1,0.6 C25,1.9 19.6,3.1 13.4,3.8 C8.9,4.3 4.3,4.5 0.2,4.4 L0.2,4.4 C0.2,4.4 9.9,6.1 21.4,4.4 C25.8,3.8 29.6,1.5 29.6,1.5 L28.7,0.4 C28.6,0.5 28.4,0.5 28.1,0.6 L28.1,0.6 Z"></path>
                            </g>
                            <g opacity="0.05" transform="translate(35.000000, 23.000000)" id="Oval" fill="#000000">
                                <ellipse cx="4.9" cy="1.9" rx="4.4" ry="1"></ellipse>
                            </g>
                            <g opacity="0.05" transform="translate(53.000000, 18.000000)" id="Oval" fill="#000000">
                                <ellipse cx="1.3" cy="0.9" rx="0.5" ry="0.2"></ellipse>
                            </g>
                            <g transform="translate(36.000000, 11.000000)" id="Shape">
                                <path d="M0.9,13.8 L8.4,2.4 C9,1.3 9.9,0.5 11,1.1 C12.1,1.7 11.7,2.9 11.1,4 L6.9,13.6 C6.8,14.1 0.6,14.5 0.9,13.8 L0.9,13.8 Z" fill="#ADADAD"></path>
                                <path d="M9,2.1 C8.9,2 8.7,2.4 8.6,2.5 L1,14 L1,14.1 C1.2,14 1.2,14.1 1.2,14 L9,2.1 L9,2.1 Z" fill="#F5F5F4"></path>
                                <g opacity="0.05" transform="translate(2.000000, 1.000000)" fill="#000000">
                                    <path d="M5,12.7 L9.3,2.8 C9.9,1.7 10.1,0.8 9,0.2 L8.9,0.2 L0.1,13.2 C1.1,13.1 4.9,12.9 5,12.7 L5,12.7 Z"></path>
                                </g>
                            </g>
                            <g transform="translate(53.000000, 10.000000)" id="Shape">
                                <path d="M1,8.9 L5.8,0.2 C5.9,0.1 6,5.60662627e-15 6.2,0.1 C6.3,0.2 6.4,0.3 6.3,0.5 L1.8,8.9 C1.6,8.9 0.9,9 1,8.9 L1,8.9 Z" fill="#ADADAD"></path>
                                <path d="M5.9,0.1 C5.8,0.1 5.8,0.1 5.9,0.1 L1,8.9 L1,8.9 C1.1,8.9 1.2,8.9 1.2,8.8 L5.9,0.1 L5.9,0.1 Z" fill="#F5F5F4"></path>
                                <g opacity="0.05" transform="translate(1.000000, 0.000000)" fill="#000000">
                                    <path d="M0.7,8.8 L5.2,0.4 C5.3,0.3 5.2,0.1 5.1,-1.42108547e-14 L5.1,-1.42108547e-14 L0.2,8.9 C0.4,8.9 0.6,8.9 0.7,8.8 L0.7,8.8 Z"></path>
                                </g>
                            </g>
                            <g opacity="0.05" transform="translate(66.000000, 23.000000)" id="Shape" fill="#000000">
                                <path></path>
                            </g>
                            <g transform="translate(65.000000, 13.000000)" id="Shape">
                                <path d="M1,10.7 L6.4,0.7 C6.5,0.6 6.7,0.5 6.8,0.6 C6.9,0.7 7,0.9 6.9,1 L1.7,10.6 C1.7,10.7 0.9,10.8 1,10.7 L1,10.7 Z" fill="#ADADAD"></path>
                                <path d="M6.5,0.6 L6.4,0.7 L1,10.7 L1,10.7 C1.1,10.7 1.2,10.7 1.2,10.6 L6.5,0.6 L6.5,0.6 Z" fill="#F5F5F4"></path>
                                <g opacity="0.05" transform="translate(1.000000, 0.000000)" fill="#000000">
                                    <path d="M0.8,10.6 L6,1 C6.1,0.9 6,0.7 5.9,0.6 L5.9,0.6 L0.3,10.8 C0.5,10.7 0.7,10.7 0.8,10.6 L0.8,10.6 Z"></path>
                                </g>
                            </g>
                            <g opacity="0.05" transform="translate(78.000000, 31.000000)" id="Shape" fill="#000000">
                                <path></path>
                            </g>
                            <g transform="translate(78.000000, 21.000000)" id="Shape">
                                <path d="M0.8,10.9 L6.2,0.9 C6.3,0.8 6.5,0.7 6.6,0.8 C6.7,0.9 6.8,1.1 6.7,1.2 L1.5,10.8 C1.5,10.9 0.7,11 0.8,10.9 L0.8,10.9 Z" fill="#ADADAD"></path>
                                <path d="M6.4,0.8 L6.3,0.9 L0.9,10.9 L0.9,10.9 C1,10.9 1.1,10.8 1.1,10.8 L6.4,0.8 L6.4,0.8 Z" fill="#F5F5F4"></path>
                                <g opacity="0.05" transform="translate(1.000000, 0.000000)" fill="#000000">
                                    <path d="M0.6,10.8 L5.8,1.2 C5.9,1.1 5.8,0.9 5.7,0.8 L5.7,0.8 L0.1,11 C0.3,10.9 0.6,10.9 0.6,10.8 L0.6,10.8 Z"></path>
                                </g>
                            </g>
                            <g opacity="0.05" transform="translate(95.000000, 42.000000)" id="Shape" fill="#000000">
                                <path></path>
                            </g>
                            <g transform="translate(95.000000, 32.000000)" id="Shape">
                                <path d="M0.2,10.3 L5.6,0.3 C5.7,0.2 5.9,0.1 6,0.2 C6.1,0.3 6.2,0.5 6.1,0.6 L0.9,10.2 C1,10.3 0.2,10.4 0.2,10.3 L0.2,10.3 Z" fill="#ADADAD"></path>
                                <path d="M5.8,0.2 L5.7,0.3 L0.3,10.3 L0.3,10.3 C0.4,10.3 0.5,10.2 0.5,10.2 L5.8,0.2 L5.8,0.2 Z" fill="#F5F5F4"></path>
                                <g opacity="0.05" fill="#000000">
                                    <path d="M1,10.2 L6.2,0.6 C6.3,0.5 6.2,0.3 6.1,0.2 L6.1,0.2 L0.5,10.4 C0.7,10.3 1,10.3 1,10.2 L1,10.2 Z"></path>
                                </g>
                            </g>
                            <path d="M53.5,14 C53.5,15.2 50.2,16.5 46,16.5 C41.9,16.5 38.5,15.1 38.5,14 C38.5,12.8 41.8,12.4 46,12.4 C50.2,12.4 53.5,12.9 53.5,14 L53.5,14 Z" id="Shape" fill="#7F807F"></path>
                            <path d="M53.5,14 C53.5,15.2 50.2,16.1 46,16.1 C41.9,16.1 38.5,15.2 38.5,14 C38.5,12.9 41.8,11.9 46,11.9 C50.2,11.9 53.5,12.9 53.5,14 L53.5,14 Z" id="Shape" fill="#DBDEDE"></path>
                            <g opacity="0.05" transform="translate(44.000000, 13.000000)" id="Shape" fill="#000000">
                                <path d="M0.6,0.8 C0.6,1.1 4.6,2.3 6.3,2.7 C8.2,2.3 9.5,1.7 9.5,1 L9.5,0.8 C7.5,0.5 3.8,0.2 2.9,0.2 C1.6,0.2 0.6,0.5 0.6,0.8 L0.6,0.8 Z"></path>
                            </g>
                            <g transform="translate(44.000000, 0.000000)" id="Shape">
                                <path d="M0.6,13.8 L6.3,2 C6.9,0.9 8.3,0.5 9.4,1.1 C10.5,1.7 10.9,3 10.3,4.1 L4.2,13.6 C3.9,14 0.3,14.4 0.6,13.8 L0.6,13.8 Z" fill="#ADADAD"></path>
                                <path d="M7.1,1.3 C6.7,1.5 6.8,1.8 6.6,2.1 L0.8,13.8 L0.8,13.9 C1,13.8 1.1,13.5 1.2,13.4 L7.1,1.3 L7.1,1.3 Z" fill="#F5F5F4"></path>
                                <g opacity="0.05" transform="translate(1.000000, 1.000000)" fill="#000000">
                                    <path d="M3.2,12.6 L9.3,3.2 C9.9,2.1 9.5,0.7 8.4,0.1 L8.3,0.1 L0.9,13.1 C1.8,13.1 3,12.9 3.2,12.6 L3.2,12.6 Z"></path>
                                </g>
                            </g>
                        </g>
                    </g>
                </g>
            </g>
        </g>
    </g>
</svg>