<?xml version="1.0" encoding="UTF-8" standalone="no"?>
<svg width="132px" height="94px" viewBox="0 0 132 94" version="1.1" xmlns="http://www.w3.org/2000/svg" xmlns:xlink="http://www.w3.org/1999/xlink">
    <!-- Generator: Sketch 3.8.2 (29753) - http://www.bohemiancoding.com/sketch -->
    <title>Group</title>
    <desc>Created with Sketch.</desc>
    <defs></defs>
    <g id="Page-1" stroke="none" stroke-width="1" fill="none" fill-rule="evenodd">
        <g id="Desktop-Copy" transform="translate(-79.000000, -363.000000)">
            <g id="Group" transform="translate(79.000000, 363.000000)">
                <g transform="translate(17.000000, 63.000000)" id="Shape">
                    <path d="M11.6,29.2 C13,27.8 13.4,25.8 12.7,24 C11.4,20.6 12.2,16.6 15,13.8 C17.8,11 21.7,10.3 25.2,11.5 C27,12.2 29.1,11.8 30.4,10.4 L30.5,10.3 C33.1,7.7 32.1,3.4 28.7,2.1 C21.7,-0.5 13.5,1 7.9,6.6 C2.3,12.2 0.8,20.4 3.4,27.4 C4.6,30.9 8.9,31.9 11.6,29.2 L11.6,29.2 L11.6,29.2 Z" fill="#BD430D"></path>
                    <path d="M14.1,25.7 C14.1,29.4 11.1,30.7 7.5,30.7 C3.9,30.7 0.9,29.3 0.9,25.7 C0.9,22 3.9,19.1 7.5,19.1 C11.1,19.1 14.1,22.1 14.1,25.7 L14.1,25.7 Z" fill="#A73B0E"></path>
                </g>
                <g transform="translate(82.000000, 63.000000)" id="Shape">
                    <path d="M20.9,29 C19.5,27.6 19.1,25.6 19.8,23.8 C21.1,20.4 20.3,16.4 17.5,13.6 C14.7,10.8 10.8,10.1 7.3,11.3 C5.5,12 3.4,11.6 2.1,10.2 L2,10.1 C-0.6,7.5 0.4,3.2 3.8,1.9 C10.8,-0.7 19,0.8 24.6,6.4 C30.2,12 31.7,20.2 29.1,27.2 C27.9,30.7 23.5,31.6 20.9,29 L20.9,29 L20.9,29 Z" fill="#BD430D"></path>
                    <path d="M31.7,25.4 C31.7,29.1 28.7,30.4 25.1,30.4 C21.5,30.4 18.5,29 18.5,25.4 C18.5,21.7 21.5,18.8 25.1,18.8 C28.7,18.8 31.7,21.8 31.7,25.4 L31.7,25.4 Z" fill="#A73B0E"></path>
                </g>
                <g transform="translate(44.000000, 0.000000)">
                    <ellipse id="Oval" fill="#BD430D" cx="11.6" cy="19.5" rx="11" ry="18.9"></ellipse>
                    <ellipse id="Oval" fill="#3E2A15" cx="11.6" cy="19.5" rx="8.4" ry="14.4"></ellipse>
                    <path d="M11.6,6.1 C14.5,6.1 17.3,6.5 20,7.4 C18,3.3 15,0.7 11.6,0.7 C8.3,0.7 5.3,3.3 3.2,7.4 C5.9,6.5 8.7,6.1 11.6,6.1 L11.6,6.1 Z" id="Shape" fill="#A73B0E"></path>
                    <circle id="Oval" fill="#F2F2F2" cx="9.4" cy="9.7" r="1.1"></circle>
                    <circle id="Oval" fill="#F2F2F2" cx="7" cy="13.6" r="2.4"></circle>
                </g>
                <g transform="translate(65.000000, 0.000000)">
                    <ellipse id="Oval" fill="#BD430D" cx="11.3" cy="19.5" rx="11" ry="18.9"></ellipse>
                    <ellipse id="Oval" fill="#3E2A15" cx="11.3" cy="19.5" rx="8.4" ry="14.4"></ellipse>
                    <path d="M11.3,6.1 C14.2,6.1 17,6.5 19.7,7.4 C17.7,3.3 14.7,0.7 11.3,0.7 C7.9,0.7 5,3.3 2.9,7.4 C5.6,6.5 8.4,6.1 11.3,6.1 L11.3,6.1 Z" id="Shape" fill="#A73B0E"></path>
                    <circle id="Oval" fill="#F2F2F2" cx="9.1" cy="9.7" r="1.1"></circle>
                    <circle id="Oval" fill="#F2F2F2" cx="6.7" cy="13.6" r="2.4"></circle>
                </g>
                <polygon id="Shape" fill="#BD430D" points="61.4 45.5 57.6 45.5 53.7 36.6 57.5 36.6"></polygon>
                <polygon id="Shape" fill="#BD430D" points="79.1 36.6 75.3 36.6 71.4 45.5 75.2 45.5"></polygon>
                <ellipse id="Oval" fill="#BD430D" cx="65.9" cy="64" rx="46.9" ry="23"></ellipse>
                <ellipse id="Oval" fill="#BD430D" cx="65.9" cy="64" rx="46.9" ry="23"></ellipse>
                <path d="M22.1,69.7 C30.4,78.5 46.9,84.4 65.9,84.4 C84.9,84.4 101.4,78.4 109.7,69.7 C101.4,64 84.9,60 65.9,60 C46.9,60.1 30.4,64 22.1,69.7 L22.1,69.7 Z" id="Shape" fill="#A73B0E"></path>
                <path d="M24.3,70.2 C32.1,77.5 47.8,82.5 65.9,82.5 C84,82.5 99.7,77.5 107.5,70.2 C99.7,65.4 84,62.1 65.9,62.1 C47.8,62.1 32.2,65.4 24.3,70.2 L24.3,70.2 Z" id="Shape" fill="#D1D1D1"></path>
                <path d="M24.3,70.1 C35.4,73.7 49.9,75.8 65.9,75.8 C81.8,75.8 96.4,73.6 107.5,70.1 C99.6,65.3 84,62 65.9,62 C47.8,62 32.2,65.3 24.3,70.1 L24.3,70.1 Z" id="Shape" fill="#F5F5F5"></path>
                <g transform="translate(0.000000, 3.000000)" id="Shape">
                    <path d="M32.4,48.4 C31.5,47.5 30.2,47.3 29,47.7 C26.8,48.5 24.2,48 22.5,46.3 C20.7,44.5 20.3,42 21.1,39.8 C21.5,38.6 21.3,37.3 20.4,36.4 L20.3,36.3 C18.7,34.7 15.9,35.3 15.1,37.4 C13.4,41.9 14.4,47.1 18,50.7 C21.6,54.3 26.8,55.3 31.3,53.6 C33.5,52.9 34.1,50.1 32.4,48.4 L32.4,48.4 L32.4,48.4 Z" fill="#BD430D"></path>
                    <path d="M35.9,31.1 C38.6,22.1 34.4,12.9 26.5,10.6 L26.5,10.6 C26,10.4 25.5,10.9 25.6,11.5 C26.5,15.1 26.5,19.3 25.3,23.4 C24.2,27.1 22.3,30.4 19.8,32.8 C19.4,33.2 18.8,33 18.6,32.5 C17,27.5 16.9,21.6 18.6,15.8 C20.2,10.3 23.2,5.7 26.9,2.4 C27.3,2 27.2,1.4 26.6,1.2 C26.5,1.2 26.3,1.1 26.2,1.1 C16,-1.9 5,5.2 1.5,16.9 C-2,28.6 3.5,40.5 13.7,43.5 C16.8,44.4 20.1,44.4 23.1,43.6 C28.9,42.3 34,37.7 35.9,31.1 L35.9,31.1 Z" fill="#A73B0E"></path>
                    <path d="M10.2,22.2 C10.2,13.3 14.5,5.3 21.2,0.3 C12.7,0.5 4.6,7 1.7,16.8 C-1.8,28.5 3.7,40.4 13.9,43.4 C16.2,44.1 18.6,44.2 21,43.9 C14.4,39 10.2,31.1 10.2,22.2 L10.2,22.2 Z" fill="#BD430D"></path>
                </g>
                <g transform="translate(94.000000, 3.000000)" id="Shape">
                    <path d="M5.1,48.4 C6,47.5 7.3,47.3 8.5,47.7 C10.7,48.5 13.3,48 15,46.3 C16.8,44.5 17.2,42 16.4,39.8 C16,38.6 16.2,37.3 17.1,36.4 L17.2,36.3 C18.8,34.7 21.6,35.3 22.4,37.4 C24.1,41.9 23.1,47.1 19.5,50.7 C15.9,54.3 10.7,55.3 6.2,53.6 C4,52.9 3.4,50.1 5.1,48.4 L5.1,48.4 L5.1,48.4 Z" fill="#BD430D"></path>
                    <path d="M1.7,31.1 C-1,22.1 3.2,12.9 11.1,10.6 L11.1,10.6 C11.6,10.4 12.1,10.9 12,11.5 C11.1,15.1 11.1,19.3 12.3,23.4 C13.4,27.1 15.3,30.4 17.8,32.8 C18.2,33.2 18.8,33 19,32.5 C20.6,27.5 20.7,21.6 19,15.8 C17.4,10.3 14.4,5.7 10.7,2.4 C10.3,2 10.4,1.4 11,1.2 C11.1,1.2 11.3,1.1 11.4,1.1 C21.6,-1.9 32.6,5.2 36.1,16.9 C39.6,28.6 34.1,40.5 23.9,43.5 C20.8,44.4 17.5,44.4 14.5,43.6 C8.6,42.3 3.6,37.7 1.7,31.1 L1.7,31.1 Z" fill="#BD430D"></path>
                    <path d="M27.4,22.2 C27.4,13.3 23.1,5.3 16.4,0.3 C24.9,0.5 33,7 35.9,16.8 C39.4,28.5 33.9,40.4 23.7,43.4 C21.4,44.1 19,44.2 16.6,43.9 C23.1,39 27.4,31.1 27.4,22.2 L27.4,22.2 Z" fill="#A73B0E"></path>
                </g>
                <g transform="translate(6.000000, 56.000000)" id="Shape">
                    <path d="M9.4,23.7 C10.5,22.6 10.9,20.9 10.3,19.5 C9.3,16.7 9.9,13.5 12.1,11.2 C14.3,9 17.6,8.4 20.4,9.4 C21.9,9.9 23.5,9.6 24.6,8.5 L24.7,8.4 C26.8,6.3 26,2.8 23.2,1.8 C17.5,-0.3 10.9,0.9 6.3,5.5 C1.7,10.1 0.5,16.7 2.6,22.4 C3.7,25.1 7.2,25.8 9.4,23.7 L9.4,23.7 L9.4,23.7 Z" fill="#BD430D"></path>
                    <path d="M11.4,20.8 C11.4,23.8 9,24.9 6,24.9 C3,24.9 0.6,23.8 0.6,20.8 C0.6,17.8 3,15.4 6,15.4 C9,15.4 11.4,17.8 11.4,20.8 L11.4,20.8 Z" fill="#A73B0E"></path>
                </g>
                <g transform="translate(100.000000, 56.000000)" id="Shape">
                    <path d="M16.7,23.8 C15.6,22.7 15.2,21 15.8,19.6 C16.8,16.8 16.2,13.6 14,11.3 C11.8,9.1 8.5,8.5 5.7,9.5 C4.2,10 2.6,9.7 1.5,8.6 L1.4,8.5 C-0.7,6.4 0.1,2.9 2.9,1.9 C8.6,-0.2 15.2,1 19.8,5.6 C24.4,10.2 25.6,16.8 23.5,22.5 C22.4,25.2 18.9,26 16.7,23.8 L16.7,23.8 L16.7,23.8 Z" fill="#BD430D"></path>
                    <path d="M25.5,20.9 C25.5,23.9 23.1,25 20.1,25 C17.1,25 14.7,23.9 14.7,20.9 C14.7,17.9 17.1,15.5 20.1,15.5 C23.1,15.6 25.5,18 25.5,20.9 L25.5,20.9 Z" fill="#A73B0E"></path>
                </g>
            </g>
        </g>
    </g>
</svg>