<?xml version="1.0" encoding="UTF-8" standalone="no"?>
<svg width="1024px" height="75px" viewBox="0 0 1024 75" version="1.1" xmlns="http://www.w3.org/2000/svg" xmlns:xlink="http://www.w3.org/1999/xlink">
    <!-- Generator: Sketch 3.8.2 (29753) - http://www.bohemiancoding.com/sketch -->
    <title>wavehr</title>
    <desc>Created with Sketch.</desc>
    <defs>
        <polygon id="path-1" points="1023.81608 65.4987257 1023.81608 0.368468919 0.238945221 0.368468919 0.238945221 65.4987257"></polygon>
        <polygon id="path-3" points="1023.81608 39.3239311 1023.81608 0.0939851351 0.238945221 0.0939851351 0.238945221 39.3239311"></polygon>
    </defs>
    <g id="Page-1" stroke="none" stroke-width="1" fill="none" fill-rule="evenodd">
        <g id="wavehr">
            <g id="t" transform="translate(0.000000, 0.116769)">
                <mask id="mask-2" fill="white">
                    <use xlink:href="#path-1"></use>
                </mask>
                <g id="Clip-5"></g>
                <path d="M25.9857068,0.368468919 C75.5912314,0.368468919 120.414858,4.14098243 152.488478,10.2139689 C182.942339,15.9815365 216.152541,15.9815365 246.606402,10.2139689 C278.678302,4.14098243 323.503649,0.368468919 373.107454,0.368468919 C419.430475,0.368468919 461.587175,3.65729324 493.083047,9.03948243 C524.695844,14.440023 558.770948,14.440023 590.383744,9.03948243 C621.881335,3.65729324 664.036316,0.368468919 710.359337,0.368468919 C759.964862,0.368468919 804.788489,4.14098243 836.862109,10.2139689 C867.31425,15.9815365 900.526171,15.9815365 930.980033,10.2139689 C963.053652,4.14098243 1007.87728,0.368468919 1057.48108,0.368468919 C1155.00532,0.368468919 1234.06568,14.9486176 1234.06568,32.9329419 L1234.06568,65.4987257 L549.692048,65.4987257 L533.776463,65.4987257 L-150.597168,65.4987257 L-150.597168,32.9329419 C-150.597168,14.9486176 -71.5385243,0.368468919 25.9857068,0.368468919" id="top" fill="#007E9C" mask="url(#mask-2)"></path>
            </g>
            <g id="b" transform="translate(0.000000, 35.508661)">
                <mask id="mask-4" fill="white">
                    <use xlink:href="#path-3"></use>
                </mask>
                <g id="Clip-8"></g>
                <path d="M-142.12542,0.0939851351 C-92.5198953,0.0939851351 -47.6962683,2.36562027 -15.6226487,6.02409324 C14.8312127,9.4990527 48.0414142,9.4990527 78.4952756,6.02409324 C110.567176,2.36562027 155.392522,0.0939851351 204.996327,0.0939851351 C251.319348,0.0939851351 293.476049,2.07593108 324.97192,5.31625541 C356.584717,8.56968784 390.659821,8.56968784 422.272618,5.31625541 C453.770209,2.07593108 495.92519,0.0939851351 542.248211,0.0939851351 C591.853735,0.0939851351 636.677362,2.36562027 668.750982,6.02409324 C699.203124,9.49774189 732.415045,9.4990527 762.867187,6.02409324 C794.940806,2.36562027 839.766153,0.0939851351 889.369958,0.0939851351 C986.894189,0.0939851351 1065.95455,8.87641757 1065.95455,19.7089581 L1065.95455,39.3239311 L381.580922,39.3239311 L365.665336,39.3239311 L-318.708295,39.3239311 L-318.708295,19.7089581 C-318.708295,8.87641757 -239.649651,0.0939851351 -142.12542,0.0939851351" id="bottom" fill="#009BC0" mask="url(#mask-4)"></path>
            </g>
        </g>
    </g>
</svg>